<?xml version="1.0" encoding="utf-8"?>
<!-- Generator: Adobe Illustrator 16.0.0, SVG Export Plug-In . SVG Version: 6.00 Build 0)  -->
<!DOCTYPE svg PUBLIC "-//W3C//DTD SVG 1.1//EN" "http://www.w3.org/Graphics/SVG/1.1/DTD/svg11.dtd">
<svg version="1.1" id="Layer_1" xmlns="http://www.w3.org/2000/svg" xmlns:xlink="http://www.w3.org/1999/xlink" x="0px" y="0px"
	 width="200px" height="195px" viewBox="380 182.5 200 195" enable-background="new 380 182.5 200 195" xml:space="preserve">
<g>
	<g>
		<g>
			<path d="M565.141,182.5H395.615c-8.624,0-15.615,6.991-15.615,15.615v17.748c0,1.231,0.999,2.23,2.23,2.23h196.294
				c1.231,0,2.229-0.998,2.229-2.23v-17.748C580.754,189.491,573.766,182.5,565.141,182.5z M408.155,205.33
				c-2.78,0-5.033-2.254-5.033-5.034c0-2.779,2.253-5.033,5.033-5.033c2.779,0,5.032,2.253,5.032,5.033
				C413.189,203.076,410.935,205.33,408.155,205.33z M424.291,205.33c-2.781,0-5.034-2.254-5.034-5.034
				c0-2.779,2.254-5.033,5.034-5.033s5.033,2.253,5.033,5.033S427.071,205.33,424.291,205.33z M440.426,205.33
				c-2.778,0-5.033-2.254-5.033-5.034c0-2.779,2.254-5.033,5.033-5.033c2.781,0,5.034,2.253,5.034,5.033
				S443.206,205.33,440.426,205.33z"/>
			<path d="M578.524,227.016H382.23c-1.231,0-2.23,0.998-2.23,2.23v111.247c0,8.622,6.991,15.613,15.615,15.613h169.526
				c8.625,0,15.613-6.991,15.613-15.613V229.246C580.754,228.014,579.756,227.016,578.524,227.016z M443.521,313.818
				c1.742,1.742,1.742,4.565,0,6.309c-0.871,0.871-2.014,1.307-3.154,1.307c-1.143,0-2.284-0.436-3.156-1.307l-25.661-25.661
				c-1.743-1.743-1.743-4.568,0-6.309l25.661-25.663c1.743-1.742,4.567-1.742,6.31,0c1.743,1.743,1.743,4.567,0,6.31l-22.508,22.508
				L443.521,313.818z M504.905,260.618l-38.306,66.346c-0.826,1.432-2.325,2.232-3.867,2.232c-0.757,0-1.524-0.193-2.228-0.599
				c-2.133-1.231-2.864-3.961-1.631-6.095l38.305-66.347c1.231-2.134,3.959-2.865,6.095-1.632
				C505.407,255.755,506.137,258.484,504.905,260.618z M549.205,294.466l-25.661,25.661c-0.871,0.871-2.014,1.307-3.154,1.307
				c-1.143,0-2.283-0.436-3.154-1.307c-1.743-1.743-1.743-4.566,0-6.309l22.507-22.507l-22.507-22.508
				c-1.743-1.743-1.743-4.567,0-6.31c1.743-1.742,4.565-1.742,6.309,0l25.663,25.663c0.836,0.836,1.308,1.97,1.308,3.154
				C550.512,292.494,550.043,293.628,549.205,294.466z"/>
		</g>
	</g>
</g>
</svg>
