<?xml version="1.0" encoding="utf-8"?>
<!-- Generator: Adobe Illustrator 16.0.0, SVG Export Plug-In . SVG Version: 6.00 Build 0)  -->
<!DOCTYPE svg PUBLIC "-//W3C//DTD SVG 1.1//EN" "http://www.w3.org/Graphics/SVG/1.1/DTD/svg11.dtd">
<svg version="1.1" id="Layer_1" xmlns="http://www.w3.org/2000/svg" xmlns:xlink="http://www.w3.org/1999/xlink" x="0px" y="0px"
	 width="200px" height="195px" viewBox="0 0 200 195" enable-background="new 0 0 200 195" xml:space="preserve">
<path fill="#8038EB" d="M193.084,88.112L108.617,3.648c-4.863-4.864-12.752-4.864-17.62,0l-17.54,17.54l22.25,22.252
	c5.171-1.748,11.099-0.576,15.221,3.546c4.142,4.148,5.306,10.128,3.515,15.316l21.443,21.442c5.19-1.787,11.176-0.631,15.319,3.52
	c5.79,5.789,5.79,15.171,0,20.963c-5.794,5.795-15.174,5.795-20.972,0c-4.355-4.358-5.431-10.757-3.228-16.124L107.01,72.105
	l-0.002,52.626c1.45,0.718,2.773,1.664,3.919,2.806c5.794,5.788,5.794,15.172,0,20.969c-5.791,5.788-15.178,5.788-20.962,0
	c-5.79-5.797-5.79-15.181,0-20.969c1.389-1.388,3.039-2.488,4.853-3.236V71.185c-1.817-0.743-3.467-1.843-4.853-3.236
	c-4.386-4.379-5.442-10.819-3.194-16.207L64.837,29.808L6.918,87.722c-4.867,4.869-4.867,12.759,0,17.624l84.47,84.466
	c4.862,4.867,12.75,4.867,17.62,0l84.073-84.073C197.949,100.871,197.949,92.978,193.084,88.112"/>
</svg>
