<?xml version="1.0" encoding="utf-8"?>
<!-- Generator: Adobe Illustrator 16.0.0, SVG Export Plug-In . SVG Version: 6.00 Build 0)  -->
<!DOCTYPE svg PUBLIC "-//W3C//DTD SVG 1.1//EN" "http://www.w3.org/Graphics/SVG/1.1/DTD/svg11.dtd">
<svg version="1.1" id="Layer_1" xmlns="http://www.w3.org/2000/svg" xmlns:xlink="http://www.w3.org/1999/xlink" x="0px" y="0px"
	 width="200px" height="195px" viewBox="0 0 200 195" enable-background="new 0 0 200 195" xml:space="preserve">
<path fill="#8038EB" d="M8.333,8.333h183.333v178.333H8.333V8.333z M0,195h200V0H0V195z M131,69.5c0-0.666,0.25-1,1-1h13.083
	c0.667,0,1.001,0.25,1.001,1v65.75c0,0.666-0.167,1-1.001,1h-12.916c-0.833,0-1.084-0.417-1.084-1.083V69.5H131L131,69.5z
	 M130.083,50.583c0-5.333,3.751-8.499,8.5-8.499c5.084,0,8.501,3.416,8.501,8.499c0,5.5-3.584,8.5-8.668,8.5
	C133.583,59.083,130.083,56.083,130.083,50.583z M92.583,96.917C90.25,87.667,84.75,67.5,82.666,57.75h-0.167
	c-1.75,9.751-6.167,26.25-9.666,39.167H92.583z M69.417,110.416l-6.583,25.001c-0.167,0.666-0.417,0.832-1.25,0.832h-12.25
	c-0.833,0-1-0.249-0.833-1.249l23.667-82.834c0.417-1.5,0.667-2.833,0.833-6.916c0-0.584,0.25-0.833,0.667-0.833h17.5
	c0.583,0,0.833,0.167,1,0.833l26.5,89.917c0.167,0.666,0,1.082-0.666,1.082h-13.833c-0.667,0-1.084-0.166-1.251-0.749l-6.833-25.084
	H69.417L69.417,110.416z"/>
</svg>
