<?xml version="1.0" encoding="utf-8"?>
<!-- Generator: Adobe Illustrator 16.0.0, SVG Export Plug-In . SVG Version: 6.00 Build 0)  -->
<!DOCTYPE svg PUBLIC "-//W3C//DTD SVG 1.1//EN" "http://www.w3.org/Graphics/SVG/1.1/DTD/svg11.dtd">
<svg version="1.1" id="Layer_1" xmlns="http://www.w3.org/2000/svg" xmlns:xlink="http://www.w3.org/1999/xlink" x="0px" y="0px"
	 width="200px" height="195px" viewBox="0 0 200 195" enable-background="new 0 0 200 195" xml:space="preserve">
<path fill="#8038EB" d="M8.333,8.333h183.333v178.332H8.333V8.333z M0,195h200V0H0V195z M126.5,81
	c-1.25-0.583-2.916-0.833-4.916-0.833c-10.751,0-18.251,8.25-18.251,22c0,15.666,7.667,21.999,17.251,21.999
	c2.083,0,4.25-0.25,5.916-1V81z M122.083,67.417c1.75,0,2.751,0,4.415,0.166V45.417c0-0.584,0.418-0.834,0.834-0.834h13.5
	c0.666,0,0.834,0.25,0.834,0.667v77.916c0,2.334,0,5.251,0.416,8.417c0,0.583-0.166,0.666-0.75,1
	c-7.166,3.417-14.748,4.917-21.833,4.917c-18.416,0-31.583-11.417-31.583-34.667C87.833,82.917,101,67.417,122.083,67.417
	L122.083,67.417z M73.167,135.166c0,0.833-0.167,1.083-1.083,1.083H59.251c-0.833,0-1.084-0.416-1.084-1.083v-89.5
	c0-0.833,0.417-1.083,1.084-1.083h12.916c0.667,0,1,0.25,1,1V135.166z"/>
</svg>
