<?xml version="1.0" encoding="utf-8"?>
<!-- Generator: Adobe Illustrator 16.0.0, SVG Export Plug-In . SVG Version: 6.00 Build 0)  -->
<!DOCTYPE svg PUBLIC "-//W3C//DTD SVG 1.1//EN" "http://www.w3.org/Graphics/SVG/1.1/DTD/svg11.dtd">
<svg version="1.1" id="Layer_1" xmlns="http://www.w3.org/2000/svg" xmlns:xlink="http://www.w3.org/1999/xlink" x="0px" y="0px"
	 width="200px" height="195px" viewBox="0 0 200 195" enable-background="new 0 0 200 195" xml:space="preserve">
<path fill="#8038EB" d="M0,0.277h200v194.445H0V0.277z"/>
<path fill="#FFFFFF" d="M53.129,162.771l14.88-9.005c2.871,5.09,5.482,9.396,11.746,9.396c6.005,0,9.791-2.348,9.791-11.481V89.547
	h18.273v62.391c0,18.925-11.096,27.541-27.28,27.541C65.921,179.478,57.436,171.906,53.129,162.771 M117.744,160.812l14.876-8.615
	c3.92,6.397,9.009,11.096,18.014,11.096c7.572,0,12.399-3.785,12.399-9.008c0-6.264-4.959-8.482-13.312-12.137l-4.567-1.959
	c-13.186-5.611-21.929-12.659-21.929-27.539c0-13.706,10.442-24.149,26.758-24.149c11.617,0,19.971,4.048,25.976,14.62l-14.229,9.14
	c-3.133-5.613-6.522-7.832-11.745-7.832c-5.354,0-8.745,3.394-8.745,7.832c0,5.479,3.393,7.699,11.225,11.096l4.568,1.957
	c15.531,6.656,24.276,13.442,24.276,28.715c0,16.446-12.923,25.452-30.28,25.452c-16.969,0-27.935-8.093-33.283-18.665"/>
</svg>
