<?xml version="1.0" encoding="utf-8"?>
<!-- Generator: Adobe Illustrator 16.0.0, SVG Export Plug-In . SVG Version: 6.00 Build 0)  -->
<!DOCTYPE svg PUBLIC "-//W3C//DTD SVG 1.1//EN" "http://www.w3.org/Graphics/SVG/1.1/DTD/svg11.dtd">
<svg version="1.1" id="Layer_1" xmlns="http://www.w3.org/2000/svg" xmlns:xlink="http://www.w3.org/1999/xlink" x="0px" y="0px"
	 width="200px" height="195px" viewBox="0 0 200 195" enable-background="new 0 0 200 195" xml:space="preserve">
<g>
	<path fill="#8038EB" d="M184.965,141.126l9.937,0.054c0,0-18.474,25.034-19.981,27.075c-0.488,0.66-1.232,1.371-1.612,2.257
		c-0.952,2.22-1.933,7.091-1.933,7.091l-9.088,0.044c0,0,1.412-5.075,1.354-7.777c-0.049-2.361-1.256-4.724-1.933-7.093
		c-0.685-2.396-1.613-7.09-1.613-7.09h9.351l1.289,5.155L184.965,141.126"/>
	<path fill="#8038EB" d="M166.15,146.408c1.836,1.104,2.959,7.202,2.959,7.202s-9.594,0.14-14.814,0.14h-4.512l-5.479,23.85h-8.379
		c0,0,5.214-25.917,6.445-30.616c0.398-1.522,2.732-1.26,6.675-1.26h6.295C159.401,145.724,164.151,145.204,166.15,146.408
		 M127.141,158.021c0,0,0.264-1.532-0.884-3.304c-0.98-1.51-1.886-1.864-4.466-1.942c-7.278-0.229-7.138,5.165-7.138,5.165
		L127.141,158.021z M135.035,151.843c1.069,3.848-0.967,12.89-0.967,12.89s-10.619-0.177-16.436,0
		c-1.808,0.058-3.975-0.195-4.511,0.647c-0.757,1.178,0.277,2.995,1.154,3.761c1.009,0.881,2.975,0.983,3.68,1.072
		c4.724,0.602,14.604,0.154,14.604,0.154l-1.714,7.58c0,0-13.963,0.697-20.947-0.969c-1.378-0.329-2.67-0.991-3.544-1.933
		c-0.238-0.257-0.446-0.608-0.669-0.912c-0.182-0.243-0.706-1.038-0.941-1.667c-1.596-4.25,0.188-12.395,1.934-16.758
		c0.202-0.504,0.456-1.147,0.725-1.689c0.336-0.683,0.62-1.448,0.889-1.854c0.178-0.281,0.401-0.461,0.589-0.726
		c0.216-0.312,0.465-0.616,0.698-0.887c0.645-0.749,1.377-1.275,2.256-1.934c2.909-2.179,8.177-3.872,14.501-3.223
		c2.383,0.246,5.981,1.093,7.734,3.543C134.541,149.598,134.773,150.895,135.035,151.843L135.035,151.843z M96.604,145.693
		l8.125-0.048c0,0-4.529,21.48-6.835,31.954h-9.348c-6.532,0-12.349,0.81-14.822-3.867c-2.402-4.541-0.109-12.008,0.966-17.083
		c0.76-3.587,2.362-10.926,2.362-10.926l8.419-0.078c0,0-2.378,11.424-3.37,17.129c-0.354,2.044-1.086,3.968-0.321,5.479
		c0.726,1.438,1.739,1.54,4.833,1.611c0.979,0.021,4.192,0,4.192,0L96.604,145.693 M58.575,161.163
		c0.85-3.022,2.092-6.301,1.934-9.023c-0.17-2.912-2.613-5.566-4.19-6.122c-4.747-1.679-9.19,0.666-10.958,2.578
		c-2.285,2.473-3.059,5.366-3.869,9.346c-0.601,2.956-1.095,6.074,0,8.38c1.941,4.075,7.99,3.184,14.504,3.223
		C56.964,166.953,57.763,164.042,58.575,161.163L58.575,161.163z M69.854,149.239c0.929,6.746-2.632,14.196-5.085,20.674
		c2.503,0.226,4.692-0.034,4.851,0.149c0.163,0.242-1.676,7.733-2.318,7.752c-1.985,0.051-8.562,0.105-11.304,0.105
		c-8.952,0-17.322,0.583-21.593-3.866c-1.734-1.808-2.934-4.909-3.225-7.091c-0.483-3.643,0.122-7.652,0.967-10.957
		c0.765-2.986,1.745-5.802,3.223-8.38c3.761-6.565,10.305-11.439,21.271-10.312c2.127,0.219,5.181,1.15,7.09,2.255
		c0.132,0.078,0.593,0.446,0.699,0.508C67.009,141.721,69.36,145.636,69.854,149.239L69.854,149.239z M30.256,145.732
		c-0.541,2.466-1.083,5.26-1.653,7.696h-9.022c0.699-2.701,1.233-5.387,1.934-7.734c2.888,0,5.571,0.038,8.743,0.038
		 M19.257,155.685h8.703c-1.139,6.299-3.391,16.455-5.157,23.527c-1.105,4.422-1.843,7.653-4.835,9.988
		c-0.267,0.209-0.421,0.109-0.646,0.32c-0.551,0.528-3.101,1.139-4.511,1.291c-2.295,0.249-4.89,0.032-7.709-0.025
		c0.739-2.697,1.573-5.937,2.23-8.354c6.873,0.832,7.05-5.666,8.378-11.924C16.482,166.895,18.817,157.135,19.257,155.685"/>
</g>
<g>
	<path fill="#8038EB" d="M159.362,93.562l-0.559,1.441c-9.49,18.483-26.31,29.826-50.296,30.319
		c-11.212,0.233-21.896-2.644-28.878-5.771c-15.062-6.77-27.733-19.32-34.652-32.731c-9.923-19.224-11.715-45.96,8.924-65.933
		c0.318,0-2.506,4.331-2.186,4.331l-0.568,1.845c-14.873,46.563,30.947,86.463,75.487,81.899
		C137.34,107.861,150.985,102.002,159.362,93.562"/>
	<path fill="#8038EB" d="M132.41,74.305c11.207,0.08,22.908-5.162,29.842-12.511c-6.067,15.394-23.624,25.286-47.164,22.138
		C95.37,81.298,76.59,61.46,74.657,41.577c-1.419-14.462,3.626-23.102,11.936-33.571c-2.89,5.476-3.968,9.701-4.236,12.396
		C79.2,51.695,107.352,74.143,132.41,74.305"/>
	<path fill="#8038EB" d="M161.122,35.44c-1.739,3.993-11.771,11.539-16.198,12.482c-17.541,3.738-28.769-4.579-34.654-14.042
		c-0.873-1.418-2.491-5.278-2.779-6.257c-2.284-7.763-1.234-19.495,5.57-25.568c-2.049,5.776-2.351,12.481-1.268,16.846
		c0.654,2.637,2.647,7.238,4.64,10.136c3.626,5.277,5.924,6.556,10.588,9.354c2.1,1.261,4.348,2.276,5.321,2.553
		c4.418,1.299,13.744,4.727,28.786-5.505"/>
</g>
</svg>
