<?xml version="1.0" encoding="utf-8"?>
<!-- Generator: Adobe Illustrator 16.0.0, SVG Export Plug-In . SVG Version: 6.00 Build 0)  -->
<!DOCTYPE svg PUBLIC "-//W3C//DTD SVG 1.1//EN" "http://www.w3.org/Graphics/SVG/1.1/DTD/svg11.dtd">
<svg version="1.1" id="Layer_1" xmlns="http://www.w3.org/2000/svg" xmlns:xlink="http://www.w3.org/1999/xlink" x="0px" y="0px"
	 width="200px" height="195px" viewBox="0 0 200 195" enable-background="new 0 0 200 195" xml:space="preserve">
<path fill="#8038EB" d="M2.5,0h195v195H2.5V0z"/>
<path fill="#FFFFFF" d="M11.104,129.709h5.867v-23.245l9.163,20.267c1.038,2.437,2.528,3.34,5.417,3.34
	c2.89,0,4.289-0.903,5.372-3.34l9.118-20.267v23.245h5.913v-23.245c0-2.257-0.903-3.342-2.799-3.929
	c-4.468-1.354-7.448-0.179-8.802,2.844l-8.98,20.042l-8.667-20.042c-1.309-3.021-4.334-4.196-8.847-2.844
	c-1.852,0.587-2.754,1.672-2.754,3.929L11.104,129.709L11.104,129.709L11.104,129.709z M56.827,110.796h5.913v12.774
	c-0.044,0.721,0.226,2.348,3.431,2.392c1.67,0.045,12.729,0,12.818,0v-15.257h5.913v20.898c0,5.146-6.364,6.272-9.344,6.318H56.962
	v-3.927h18.641c3.792-0.407,3.341-2.302,3.341-2.933v-1.536H66.44c-5.822-0.046-9.568-2.618-9.612-5.553
	C56.827,123.705,56.962,110.886,56.827,110.796L56.827,110.796z M183.661,95.991c-3.61-0.089-6.41,0.271-8.757,1.265
	c-0.676,0.272-1.762,0.272-1.851,1.129c0.361,0.358,0.404,0.947,0.722,1.445c0.542,0.902,1.49,2.119,2.348,2.752
	c0.949,0.723,1.896,1.443,2.889,2.077c1.761,1.082,3.745,1.715,5.46,2.798c0.994,0.632,1.986,1.443,2.979,2.122
	c0.496,0.36,0.812,0.948,1.443,1.174v-0.137c-0.314-0.404-0.405-0.992-0.721-1.443c-0.452-0.451-0.902-0.859-1.354-1.309
	c-1.309-1.762-2.935-3.298-4.695-4.561c-1.444-0.992-4.604-2.347-5.189-4.017l-0.089-0.091c0.99-0.093,2.164-0.452,3.112-0.724
	c1.536-0.406,2.935-0.315,4.515-0.722c0.723-0.181,1.442-0.407,2.167-0.633v-0.405c-0.812-0.812-1.398-1.896-2.257-2.663
	c-2.302-1.986-4.829-3.927-7.447-5.552c-1.399-0.902-3.205-1.49-4.693-2.256c-0.543-0.271-1.443-0.406-1.76-0.858
	c-0.814-0.992-1.266-2.302-1.853-3.476c-1.309-2.482-2.572-5.235-3.699-7.854c-0.812-1.761-1.312-3.521-2.303-5.146
	c-4.648-7.674-9.706-12.322-17.47-16.881c-1.669-0.948-3.654-1.354-5.775-1.852c-1.13-0.045-2.258-0.135-3.387-0.181
	c-0.723-0.316-1.443-1.174-2.077-1.581c-2.571-1.625-9.207-5.146-11.104-0.497c-1.22,2.934,1.806,5.822,2.844,7.312
	c0.77,1.038,1.761,2.213,2.304,3.386c0.314,0.767,0.405,1.579,0.723,2.393c0.721,1.986,1.397,4.197,2.347,6.048
	c0.495,0.948,1.036,1.941,1.669,2.799c0.361,0.497,0.993,0.724,1.128,1.534c-0.632,0.904-0.676,2.257-1.037,3.387
	c-1.626,5.102-0.993,11.419,1.31,15.165c0.723,1.129,2.438,3.611,4.74,2.663c2.03-0.812,1.578-3.385,2.166-5.642
	c0.137-0.541,0.045-0.902,0.314-1.263v0.09c0.632,1.263,1.265,2.481,1.852,3.746c1.398,2.212,3.838,4.515,5.869,6.049
	c1.082,0.812,1.939,2.212,3.293,2.708v-0.137h-0.089c-0.271-0.405-0.678-0.587-1.039-0.902c-0.812-0.812-1.714-1.807-2.347-2.708
	c-1.896-2.528-3.562-5.327-5.055-8.214c-0.724-1.399-1.355-2.936-1.939-4.333c-0.272-0.542-0.272-1.354-0.724-1.624
	c-0.679,0.992-1.67,1.851-2.168,3.067c-0.858,1.94-0.947,4.333-1.263,6.816c-0.183,0.045-0.092,0-0.183,0.09
	c-1.442-0.36-1.939-1.85-2.481-3.114c-1.354-3.203-1.579-8.35-0.406-12.051c0.314-0.948,1.672-3.927,1.13-4.829
	c-0.273-0.857-1.173-1.354-1.671-2.032c-0.587-0.857-1.219-1.939-1.624-2.888c-1.082-2.527-1.623-5.326-2.798-7.854
	c-0.543-1.173-1.49-2.394-2.26-3.476c-0.856-1.219-1.803-2.076-2.479-3.521c-0.228-0.497-0.541-1.31-0.181-1.851
	c0.089-0.36,0.271-0.496,0.63-0.587c0.587-0.497,2.259,0.137,2.845,0.406c1.67,0.677,3.068,1.31,4.468,2.256
	c0.633,0.451,1.312,1.31,2.122,1.536h0.949c1.443,0.316,3.067,0.09,4.422,0.496c2.393,0.768,4.559,1.896,6.501,3.115
	c5.912,3.746,10.788,9.072,14.082,15.436c0.541,1.039,0.767,1.986,1.265,3.069c0.949,2.213,2.122,4.469,3.068,6.635
	c0.949,2.122,1.852,4.289,3.205,6.049c0.678,0.948,3.385,1.444,4.604,1.941c0.903,0.406,2.301,0.768,3.116,1.263
	c1.534,0.948,3.068,2.032,4.513,3.069C181.268,93.961,183.526,95.089,183.661,95.991L183.661,95.991z"/>
<path fill="#FFFFFF" d="M137.621,56.768c-0.768,0-1.309,0.09-1.85,0.227v0.09h0.09c0.359,0.722,0.992,1.219,1.442,1.85
	c0.361,0.724,0.679,1.445,1.04,2.167l0.09-0.09c0.632-0.451,0.947-1.173,0.947-2.256c-0.271-0.316-0.314-0.633-0.541-0.948
	C138.569,57.354,137.982,57.129,137.621,56.768L137.621,56.768z"/>
<path fill="#FFFFFF" d="M89.416,129.709h16.972c1.985,0,3.884-0.406,5.416-1.129c2.573-1.173,3.792-2.753,3.792-4.829v-4.332
	c0-1.669-1.398-3.25-4.195-4.333c-1.445-0.541-3.25-0.858-5.012-0.858h-7.131c-2.393,0-3.521-0.723-3.837-2.302
	c-0.045-0.18-0.045-0.359-0.045-0.54v-2.664c0-0.138,0-0.314,0.045-0.495c0.315-1.22,0.947-1.537,3.024-1.762h17.377v-3.928H99.301
	c-2.393,0-3.656,0.138-4.785,0.498c-3.476,1.082-5.01,2.799-5.01,5.821v3.432c0,2.662,2.979,4.92,8.034,5.462
	c0.541,0.045,1.128,0.045,1.714,0.045h6.094c0.227,0,0.45,0,0.631,0.045c1.852,0.183,2.663,0.497,3.204,1.172
	c0.361,0.36,0.452,0.679,0.452,1.086v3.43c0,0.406-0.271,0.949-0.812,1.398c-0.544,0.45-1.401,0.769-2.529,0.812
	c-0.226,0-0.359,0.045-0.588,0.045H89.414v3.926H89.416z M152.335,122.895c0,4.017,3.025,6.272,9.074,6.726
	c0.586,0.046,1.127,0.09,1.714,0.09h15.348v-3.927h-15.48c-3.434,0-4.741-0.857-4.741-2.935v-20.312h-5.914V122.895L152.335,122.895
	L152.335,122.895z M119.341,123.073v-13.992c0-3.566,2.526-5.732,7.448-6.409c0.541-0.045,1.083-0.092,1.58-0.092h11.191
	c0.587,0,1.084,0.047,1.672,0.092c4.92,0.677,7.4,2.843,7.4,6.409v13.992c0,2.889-1.037,4.424-3.476,5.462l5.776,5.234h-6.813
	l-4.695-4.242l-4.74,0.271h-6.317c-1.038,0-2.212-0.134-3.432-0.449C121.191,128.311,119.341,126.323,119.341,123.073
	L119.341,123.073z M125.705,122.759c0,0.181,0.091,0.359,0.136,0.587c0.316,1.624,1.852,2.527,4.196,2.527h5.328l-4.874-4.424h6.812
	l4.288,3.882c0.814-0.451,1.311-1.085,1.49-1.896c0.046-0.183,0.046-0.405,0.046-0.588v-13.406c0-0.18,0-0.358-0.046-0.541
	c-0.314-1.533-1.85-2.392-4.152-2.392h-8.894c-2.618,0-4.332,1.129-4.332,2.933L125.705,122.759L125.705,122.759z M181.179,129.754
	h0.858v-3.294h1.128v-0.678h-3.159v0.678h1.173V129.754L181.179,129.754z M187.724,129.754h0.812v-3.972h-1.217l-0.993,2.708
	l-1.082-2.708h-1.174v3.972h0.767v-3.022h0.046l1.128,3.022h0.587l1.129-3.022L187.724,129.754L187.724,129.754L187.724,129.754z"/>
</svg>
