<?xml version="1.0" encoding="utf-8"?>
<!-- Generator: Adobe Illustrator 16.0.0, SVG Export Plug-In . SVG Version: 6.00 Build 0)  -->
<!DOCTYPE svg PUBLIC "-//W3C//DTD SVG 1.1//EN" "http://www.w3.org/Graphics/SVG/1.1/DTD/svg11.dtd">
<svg version="1.1" id="Layer_1" xmlns="http://www.w3.org/2000/svg" xmlns:xlink="http://www.w3.org/1999/xlink" x="0px" y="0px"
	 width="200px" height="195px" viewBox="0 0 200 195" enable-background="new 0 0 200 195" xml:space="preserve">
<g>
	<path fill="#8038EB" d="M92.053,2.548c4.812-2.754,11.079-2.769,15.886,0c24.187,13.666,48.379,27.31,72.561,40.982
		c4.547,2.562,7.591,7.624,7.543,12.865v82.218c0.036,5.457-3.31,10.642-8.105,13.146c-24.104,13.592-48.199,27.197-72.301,40.787
		c-4.91,2.81-11.304,2.594-16.062-0.444c-7.227-4.191-14.466-8.359-21.691-12.545c-1.479-0.881-3.143-1.581-4.187-3.013
		c0.921-1.242,2.57-1.398,3.91-1.94c3.018-0.958,5.787-2.498,8.561-3.992c0.701-0.479,1.556-0.297,2.228,0.135
		c6.182,3.543,12.307,7.188,18.505,10.698c1.323,0.764,2.662-0.252,3.792-0.882c23.656-13.369,47.34-26.688,70.989-40.062
		c0.877-0.42,1.361-1.353,1.29-2.312c0.018-27.123,0.005-54.249,0.009-81.371c0.102-1.088-0.528-2.09-1.515-2.535
		c-24.023-13.528-48.031-27.077-72.049-40.608c-0.854-0.585-1.979-0.587-2.83-0.004c-24.02,13.536-48.023,27.097-72.04,40.625
		c-0.982,0.446-1.641,1.432-1.524,2.522c0.004,27.123,0,54.25,0,81.375c-0.085,0.96,0.438,1.87,1.309,2.282
		c6.408,3.636,12.826,7.243,19.238,10.865c3.613,1.944,8.051,3.101,12.03,1.608c3.513-1.259,5.978-4.844,5.908-8.571
		c0.033-26.964-0.016-53.934,0.025-80.894c-0.089-1.195,1.048-2.186,2.212-2.072c3.079-0.021,6.163-0.041,9.243,0.009
		c1.284-0.029,2.17,1.26,2.011,2.466c-0.013,27.135,0.032,54.269-0.021,81.405c0.01,7.229-2.962,15.101-9.65,18.639
		c-8.241,4.271-18.428,3.362-26.567-0.729c-7.048-3.52-13.774-7.668-20.696-11.438c-4.811-2.489-8.137-7.691-8.104-13.146v-82.22
		c-0.051-5.349,3.113-10.503,7.803-13.026C43.858,29.768,67.956,16.155,92.053,2.548z"/>
	<path fill="#8038EB" d="M113.079,59.502c10.512-0.679,21.764-0.401,31.223,4.775c7.325,3.97,11.385,12.297,11.514,20.435
		c-0.201,1.097-1.353,1.703-2.397,1.627c-3.049-0.004-6.103,0.042-9.149-0.021c-1.295,0.05-2.047-1.143-2.209-2.287
		c-0.877-3.893-2.998-7.749-6.664-9.626c-5.625-2.814-12.146-2.674-18.276-2.616c-4.479,0.238-9.293,0.625-13.087,3.261
		c-2.912,1.994-3.797,6.021-2.76,9.264c0.98,2.328,3.668,3.08,5.867,3.772c12.668,3.312,26.091,2.981,38.52,7.343
		c5.145,1.776,10.178,5.231,11.938,10.62c2.306,7.219,1.294,15.847-3.843,21.644c-4.164,4.771-10.231,7.364-16.282,8.773
		c-8.048,1.795-16.4,1.841-24.576,1.045c-7.687-0.877-15.685-2.896-21.619-8.133c-5.073-4.405-7.552-11.271-7.306-17.897
		c0.06-1.118,1.173-1.898,2.245-1.806c3.07-0.024,6.142-0.033,9.213,0.004c1.228-0.089,2.136,0.973,2.199,2.128
		c0.564,3.709,1.961,7.604,5.193,9.802c6.241,4.027,14.074,3.751,21.223,3.863c5.922-0.262,12.568-0.341,17.398-4.256
		c2.551-2.231,3.309-5.966,2.616-9.183c-0.746-2.711-3.584-3.975-6.021-4.802c-12.505-3.956-26.078-2.52-38.463-6.993
		c-5.027-1.775-9.891-5.137-11.82-10.302c-2.695-7.311-1.461-16.353,4.214-21.953c5.532-5.568,13.521-7.715,21.113-8.482
		L113.079,59.502L113.079,59.502z"/>
</g>
</svg>
