<?xml version="1.0" encoding="utf-8"?>
<!-- Generator: Adobe Illustrator 16.0.0, SVG Export Plug-In . SVG Version: 6.00 Build 0)  -->
<!DOCTYPE svg PUBLIC "-//W3C//DTD SVG 1.1//EN" "http://www.w3.org/Graphics/SVG/1.1/DTD/svg11.dtd">
<svg version="1.1" id="Layer_1" xmlns="http://www.w3.org/2000/svg" xmlns:xlink="http://www.w3.org/1999/xlink" x="0px" y="0px"
	 width="200px" height="195px" viewBox="0 0 200 195" enable-background="new 0 0 200 195" xml:space="preserve">
<path fill="#8038EB" d="M8.333,8.333h183.333v178.333H8.333V8.333z M0,195h200V0H0V195z M134.834,80
	c-6.585,0-8.834,3.333-8.834,6.083c0,3.001,1.501,5.084,10.334,9.667c13.083,6.333,17.166,12.416,17.166,21.332
	c0,13.334-10.166,20.501-23.916,20.501c-7.25,0-13.502-1.5-17.084-3.584c-0.583-0.249-0.666-0.666-0.666-1.333v-12.249
	c0-0.835,0.417-1.084,1-0.667c5.249,3.416,11.249,4.917,16.75,4.917c6.582,0,9.333-2.75,9.333-6.5
	c0-3.001-1.917-5.667-10.334-10.001c-11.833-5.666-16.749-11.417-16.749-21c0-10.75,8.416-19.667,23-19.667
	c7.166,0,12.166,1.083,14.916,2.333c0.667,0.417,0.833,1.084,0.833,1.667v11.417c0,0.666-0.417,1.083-1.25,0.833
	C145.667,81.417,140.25,80,134.834,80L134.834,80z M63.167,89.916c1.917,0.167,3.417,0.167,6.75,0.167
	c9.75,0,18.916-3.416,18.916-16.667c0-10.583-6.583-15.917-17.667-15.917c-3.333,0-6.5,0.167-8,0.25L63.167,89.916L63.167,89.916z
	 M48.334,45.667c0-0.583,1.167-1,1.833-1c5.333-0.25,13.25-0.417,21.5-0.417c23.083,0,32.083,12.667,32.083,28.833
	c0,21.167-15.333,30.251-34.167,30.251c-3.167,0-4.25-0.168-6.5-0.168v32.001c0,0.665-0.25,0.999-1,0.999h-12.75
	c-0.667,0-1-0.25-1-0.999L48.334,45.667L48.334,45.667z"/>
</svg>
