<?xml version="1.0" encoding="utf-8"?>
<!-- Generator: Adobe Illustrator 16.0.0, SVG Export Plug-In . SVG Version: 6.00 Build 0)  -->
<!DOCTYPE svg PUBLIC "-//W3C//DTD SVG 1.1//EN" "http://www.w3.org/Graphics/SVG/1.1/DTD/svg11.dtd">
<svg version="1.1" id="Layer_1" xmlns="http://www.w3.org/2000/svg" xmlns:xlink="http://www.w3.org/1999/xlink" x="0px" y="0px"
	 width="200px" height="195px" viewBox="0 0 200 195" enable-background="new 0 0 200 195" xml:space="preserve">
<path fill="#8038EB" d="M100,47.858c-54.62,0-98.897,23.05-98.897,51.481S45.38,150.821,100,150.821
	c54.619,0,98.896-23.05,98.896-51.481S154.619,47.858,100,47.858z M56.646,115.597H44.454l-2.709,14.225H28.874l10.839-54.867
	h25.062c10.837,0.678,16.257,6.096,16.257,15.581C81.033,106.792,68.163,116.273,56.646,115.597z M107.641,85.114H97.482
	l-6.098,30.481h-12.87l10.837-54.868h12.87l-2.709,14.225h12.191c10.84,0.678,14.904,6.096,13.551,12.871l-4.742,27.772h-13.547
	l4.74-25.062C112.383,87.146,112.383,85.114,107.641,85.114z M147.416,115.597h-12.193l-2.709,14.225h-12.871l10.84-54.867h25.062
	c10.838,0.678,16.258,6.096,16.258,15.581C171.803,106.792,158.932,116.273,147.416,115.597z"/>
<path fill="#FFFFFF" d="M64.776,74.953H39.713L28.875,129.82h12.871l2.709-14.225h12.191c11.518,0.677,24.387-8.805,24.387-25.062
	C81.033,81.049,75.613,75.632,64.776,74.953z M55.292,105.435h-8.128h-0.001l3.388-20.319h8.806c4.741,0,8.128,2.031,8.128,6.096
	C66.808,102.727,61.389,104.758,55.292,105.435z"/>
<path fill="#8038EB" d="M59.357,85.114h-8.806l-3.388,20.319h0.001h8.128c6.098-0.677,11.516-2.708,12.193-14.225
	C67.486,87.146,64.098,85.114,59.357,85.114z"/>
<path fill="#FFFFFF" d="M106.965,115.597h13.547l4.742-27.772c1.354-6.775-2.711-12.192-13.551-12.871H99.512l2.709-14.225h-12.87
	l-10.837,54.868h12.87l6.098-30.481h10.158c4.742,0,4.742,2.031,4.064,5.419L106.965,115.597z"/>
<path fill="#FFFFFF" d="M155.545,74.953h-25.062l-10.84,54.867h12.871l2.709-14.225h12.193c11.516,0.677,24.387-8.805,24.387-25.062
	C171.803,81.049,166.383,75.632,155.545,74.953z M146.062,105.435h-8.131h-0.002l3.391-20.319h8.807
	c4.742,0,8.127,2.031,8.127,6.096C157.578,102.727,152.16,104.758,146.062,105.435z"/>
<path fill="#8038EB" d="M150.127,85.114h-8.807l-3.391,20.319h0.002h8.129c6.1-0.677,11.518-2.708,12.191-14.225
	C158.254,87.146,154.869,85.114,150.127,85.114z"/>
</svg>
