<?xml version="1.0" encoding="utf-8"?>
<!-- Generator: Adobe Illustrator 16.0.0, SVG Export Plug-In . SVG Version: 6.00 Build 0)  -->
<!DOCTYPE svg PUBLIC "-//W3C//DTD SVG 1.1//EN" "http://www.w3.org/Graphics/SVG/1.1/DTD/svg11.dtd">
<svg version="1.1" id="Layer_1" xmlns="http://www.w3.org/2000/svg" xmlns:xlink="http://www.w3.org/1999/xlink" x="0px" y="0px"
	 width="200px" height="195px" viewBox="0 0 200 195" enable-background="new 0 0 200 195" xml:space="preserve">
<path fill="#8038EB" d="M8.333,8.333h183.333v178.333H8.333V8.333z M0,195h200V0H0V195z M120,82.333c0-1,0-3.416-0.417-8.083
	c0-0.667,0.084-0.833,0.667-1.083c5.084-2.083,17-5.75,30.5-5.75c0.666,0,1,0.166,1,0.833v12.083c0,0.667-0.25,0.833-0.917,0.833
	c-5.25-0.25-12.833,0.417-15.75,1.667v52.501c0,0.665-0.251,0.999-1.001,0.999H121c-0.666,0-1-0.251-1-0.999V82.333L120,82.333z
	 M66.667,89.917c1.917,0.167,3.417,0.167,6.75,0.167c9.75,0,18.917-3.417,18.917-16.667c0-10.583-6.5-15.917-17.667-15.917
	c-3.334,0-6.5,0.167-8,0.251V89.917L66.667,89.917z M51.917,45.666c0-0.583,0.167-1,0.833-1c5.333-0.25,13.167-0.417,21.417-0.417
	c23.083,0,33.167,12.667,33.167,28.918c0,21.167-15.333,30.249-34.166,30.249c-3.167,0-4.25-0.166-6.5-0.166v32
	c0,0.667-0.25,0.999-1,0.999H52.835c-0.667,0-1-0.249-1-0.999V45.666H51.917L51.917,45.666z"/>
</svg>
