<?xml version="1.0" encoding="utf-8"?>
<!-- Generator: Adobe Illustrator 16.0.0, SVG Export Plug-In . SVG Version: 6.00 Build 0)  -->
<!DOCTYPE svg PUBLIC "-//W3C//DTD SVG 1.1//EN" "http://www.w3.org/Graphics/SVG/1.1/DTD/svg11.dtd">
<svg version="1.1" id="Layer_1" xmlns="http://www.w3.org/2000/svg" xmlns:xlink="http://www.w3.org/1999/xlink" x="0px" y="0px"
	 width="200px" height="195px" viewBox="0 0 200 195" enable-background="new 0 0 200 195" xml:space="preserve">
<path fill="#8038EB" d="M99.296,0.3c-49.608,0-46.512,21.514-46.512,21.514l0.055,22.288h47.341v6.692H34.035
	c0,0-31.744-3.6-31.744,46.455c0,50.056,27.708,48.281,27.708,48.281h16.536v-23.229c0,0-0.893-27.708,27.265-27.708h46.953
	c0,0,26.38,0.426,26.38-25.496V26.237C147.134,26.237,151.142,0.3,99.296,0.3z M73.192,15.289c4.698-0.004,8.512,3.802,8.517,8.501
	c0,0.005,0,0.01,0,0.015c0.004,4.7-3.802,8.512-8.501,8.517c-0.005,0-0.011,0-0.016,0c-4.699,0.006-8.515-3.801-8.519-8.5
	c0-0.006,0-0.011,0-0.017c-0.004-4.699,3.803-8.512,8.501-8.516C73.182,15.289,73.188,15.289,73.192,15.289z"/>
<path fill="#8038EB" d="M100.705,194.7c49.607,0,46.511-21.515,46.511-21.515l-0.055-22.289H99.82v-6.688h66.143
	c0,0,31.745,3.6,31.745-46.457S170,49.47,170,49.47h-16.535v23.229c0,0,0.891,27.708-27.267,27.708H79.245
	c0,0-26.379-0.428-26.379,25.494v42.86c0,0-4.007,25.938,47.837,25.938H100.705z M126.809,179.713
	c-4.697,0.004-8.513-3.801-8.517-8.502c0-0.005,0-0.01,0-0.015c-0.005-4.699,3.802-8.515,8.501-8.52c0.005,0,0.009,0,0.016,0
	c4.698-0.004,8.514,3.803,8.518,8.502c0,0.005,0,0.01,0,0.014c0.005,4.702-3.803,8.516-8.502,8.521
	C126.818,179.713,126.812,179.713,126.809,179.713L126.809,179.713z"/>
</svg>
