<?xml version="1.0" encoding="utf-8"?>
<!-- Generator: Adobe Illustrator 16.0.0, SVG Export Plug-In . SVG Version: 6.00 Build 0)  -->
<!DOCTYPE svg PUBLIC "-//W3C//DTD SVG 1.1//EN" "http://www.w3.org/Graphics/SVG/1.1/DTD/svg11.dtd">
<svg version="1.1" xmlns="http://www.w3.org/2000/svg" xmlns:xlink="http://www.w3.org/1999/xlink" x="0px" y="0px" width="200px"
	 height="195px" viewBox="869.5 1152.5 200 195" enable-background="new 869.5 1152.5 200 195" xml:space="preserve">
<g id="Layer_1">
	<g>
		<g>
			<path fill="#A62C39" d="M901.523,1313.755v33.242h8.479v-8.658l7.717,7.715h13.009l-10.318-10.317c0,0,7.423-0.12,7.986-10.855
				c0-9.85-7.433-11.126-16.015-11.126H901.523z M910.406,1322.772h7.313v5.921h-7.314L910.406,1322.772L910.406,1322.772z
				 M947.102,1313.889c-4.641-0.025-11.08,0.405-11.08,9.152v23.104h8.703v-5.653h8.434v5.518h8.748v-24.225
				c0-7.601-8.442-7.896-12.964-7.896C948.377,1313.889,947.766,1313.895,947.102,1313.889L947.102,1313.889z M944.858,1322.233
				h8.165v9.106h-8.163v-9.106H944.858z M970.626,1313.911h9.005v31.802h-9.005V1313.911z M989.059,1314.334v31.8h21.668v-8.443
				h-12.803v-23.498L989.059,1314.334L989.059,1314.334z M1039.432,1314.052v8.584h-14.492v3.095h6.191
				c3.236,0,9.99-0.14,9.99,9.992c0,10.13-4.645,10.692-14.072,10.692h-11.396v-7.739h13.086c3.939,0,4.156-1.283,4.156-2.4
				s-2.014-1.637-6.111-1.637c-4.096,0-11.693-2.013-11.693-9.895c0-7.878,3.939-10.834,11.818-10.834
				C1034.789,1313.91,1039.432,1314.052,1039.432,1314.052z"/>
		</g>
		<g>
			<path fill="#A62C39" d="M909.417,1304.343h74.856c0,0-16.604-37.709-12.382-72.325c4.222-34.614,31.521-50.373,46.997-52.062
				c15.479-1.688,23.92,7.88,23.92,7.88l3.377-5.066c0,0-22.232-22.513-50.373-19.98c-28.141,2.533-47.56,21.105-59.661,43.621
				c-12.101,22.512-19.135,38.271-23.919,61.911C907.447,1291.961,909.417,1304.343,909.417,1304.343L909.417,1304.343z
				 M894.502,1266.633l14.634,1.127l-2.533,14.633l-13.789-1.689L894.502,1266.633L894.502,1266.633z M917.579,1235.678
				l3.939-10.975l-12.945-5.066l-4.222,11.82L917.579,1235.678L917.579,1235.678z M935.871,1197.967l7.597-9.004l-9.849-6.472
				l-7.88,8.724L935.871,1197.967L935.871,1197.967z M955.852,1163.072l6.753,8.16l9.287-5.346l-6.754-7.599L955.852,1163.072
				L955.852,1163.072z M988.777,1153.785l1.689,8.161l11.537-0.282l-1.127-7.316L988.777,1153.785L988.777,1153.785z"/>
			<path fill="#A62C39" d="M1027.895,1162.509l-0.283,5.065l7.881,4.222l1.688-2.534L1027.895,1162.509L1027.895,1162.509z
				 M1026.205,1184.177v4.222l7.598,0.843v-3.376L1026.205,1184.177L1026.205,1184.177z M1002.004,1187.836l3.658,6.754l5.346-4.222
				l-1.125-4.502L1002.004,1187.836L1002.004,1187.836z M990.467,1196.56l5.627,8.443l-3.377,5.91l-8.161-9.005L990.467,1196.56z
				 M979.209,1219.918l-3.658,7.316l9.568,8.161l2.251-9.287L979.209,1219.918L979.209,1219.918z M975.268,1245.526l-0.561,9.85
				l11.818,5.065l-0.563-9.286l-10.692-5.629H975.268z M978.646,1280.422l2.814,10.132l14.915,0.844l-5.347-10.976H978.646z"/>
		</g>
	</g>
</g>
<g id="bg" display="none">
	<path display="inline" fill="#A62C39" d="M31.024,2465.128c0,0,3.765-590.668,3.765-1191.121
		c0-1163.014-98.003-1249.641,423.831-1249.641h1452.508v1677.561c0,552.236,103.229,768.571-477.131,768.571
		c-580.352,0-1402.964-5.362-1402.964-5.362L31.024,2465.128z"/>
	
		<linearGradient id="SVGID_1_" gradientUnits="userSpaceOnUse" x1="489.499" y1="1530.5107" x2="490.1579" y2="1530.6614" gradientTransform="matrix(682.5432 0 0 -1563.6445 -332643.6562 2394135.5)">
		<stop  offset="0" style="stop-color:#FFFFFF"/>
		<stop  offset="1" style="stop-color:#C0815E"/>
	</linearGradient>
	<path display="inline" fill="url(#SVGID_1_)" d="M1228.576,243.761c0,0,93.072,18.617,173.737,155.12
		c80.665,136.511,508.806,1197.561,508.806,1197.561v-862.5l-397.124-645.3l111.697,136.51l210.965-173.753l-273.013-18.602
		L1228.576,243.761z"/>
	
		<radialGradient id="SVGID_2_" cx="490.1216" cy="1530.3906" r="0.505" gradientTransform="matrix(1514.0029 0 0 -2413.7141 -740884.4375 3695166)" gradientUnits="userSpaceOnUse">
		<stop  offset="0" style="stop-color:#FFFFFF"/>
		<stop  offset="1" style="stop-color:#A94436"/>
	</radialGradient>
	<path display="inline" opacity="0.668" fill="url(#SVGID_2_)" enable-background="new    " d="M403.319,39
		c0,0,614.284,409.523,912.126,490.188c297.833,80.666,601.877,167.77,601.877,167.77l-701.16,1737.146l304.044,12.407
		l397.116-974.075L1904.908,32.796L403.319,39.007V39z"/>
	<path display="inline" fill="#FFFFFF" fill-opacity="0.44" d="M974.174,1869.446l624.259,600.029L421.93,2458.917
		c0,0-37.228-378.499-24.813-577.057c12.406-198.559,74.455-198.559,74.455-198.559L974.174,1869.446L974.174,1869.446z"/>
	<path display="inline" fill-opacity="0.362" d="M1563.645,2471.331L986.58,1875.657l-527.416-198.559L49.642,764.974
		L483.985,39.007H205.738L74.462,138.283l-43.438,86.869v2246.18H1563.645z"/>
	<path display="inline" opacity="0.5" fill="#83222D" enable-background="new    " d="M1917.322,1521.979
		c0,0-583.26,186.145-930.742,359.882c-347.475,173.745-533.619,595.674-533.619,595.674s744.592-37.228,1023.807-24.82
		c279.225,12.414,409.531,12.414,434.352-378.499C1935.939,1683.31,1917.322,1521.979,1917.322,1521.979L1917.322,1521.979z"/>
	<path display="inline" fill="#5E000E" d="M54.762,2465.279l0.045-6.786l0.121-19.776l0.424-75.137
		c0.439-80.953,0.878-171.291,1.288-268.74c1.182-278.429,1.886-558.092,1.886-820.826c0-135.381-1.167-253.607-3.658-419.028
		c-7.62-505.428-3.954-601.696,38.235-692.533C135.488,71.198,215.047,48.096,458.619,48.096h1452.508l-23.737-23.737V1701.92
		c0,51.481,0.553,95.904,1.894,170.73c5.195,288.403-1.189,370.409-47.74,446.409c-54.443,88.898-171.654,127.693-407.546,127.693
		c-133.178,0-289.858-0.303-465.231-0.878c-141.062-0.455-290.593-1.068-444.455-1.803c-161.16-0.771-322.319-1.637-483.478-2.621
		l-9.649-0.061l23.586,23.889H54.762z M7.135,2488.714l23.738,0.151c12.502,0.079,25.005,0.155,37.507,0.228
		c151.896,0.909,303.792,1.732,455.688,2.454c153.894,0.734,303.446,1.348,444.539,1.811c175.419,0.568,332.145,0.871,465.383,0.871
		c250.767,0,382.68-43.658,448.037-150.371c53.55-87.43,60.124-171.958,54.724-472.056c-1.34-74.561-1.893-118.757-1.893-169.883
		V0.621H458.619c-261.159,0-355.413,27.358-408.576,141.827C23.465,199.671,10.626,278.89,5.968,401.282
		C2.378,495.597,2.75,547.578,7.4,855.705c2.484,165.201,3.651,283.207,3.651,418.309c0,262.659-0.712,542.254-1.886,820.621
		c-0.484,114.599-1.057,229.196-1.72,343.794l-0.113,19.769l-0.197,30.524V2488.714z"/>
</g>
</svg>
