<?xml version="1.0" encoding="utf-8"?>
<!-- Generator: Adobe Illustrator 16.0.0, SVG Export Plug-In . SVG Version: 6.00 Build 0)  -->
<!DOCTYPE svg PUBLIC "-//W3C//DTD SVG 1.1//EN" "http://www.w3.org/Graphics/SVG/1.1/DTD/svg11.dtd">
<svg version="1.1" id="Layer_1" xmlns="http://www.w3.org/2000/svg" xmlns:xlink="http://www.w3.org/1999/xlink" x="0px" y="0px"
	 width="200px" height="195px" viewBox="1150 1152.5 200 195" enable-background="new 1150 1152.5 200 195" xml:space="preserve">
<rect x="1152.501" y="1152.5" fill="none" width="194.997" height="195"/>
<g>
	<path fill="#8038EB" d="M1166.36,1249.997c0,33.109,19.241,61.717,47.14,75.277l-39.898-109.316
		C1168.819,1226.668,1166.352,1238.267,1166.36,1249.997L1166.36,1249.997z M1306.467,1245.776c0-10.337-3.714-17.496-6.898-23.067
		c-4.24-6.89-8.213-12.724-8.213-19.614c0-7.689,5.83-14.846,14.045-14.846c0.37,0,0.722,0.046,1.085,0.066
		c-14.883-13.633-34.708-21.957-56.483-21.957c-29.221,0-54.929,14.992-69.884,37.7c1.962,0.059,3.813,0.099,5.382,0.099
		c8.749,0,22.291-1.062,22.291-1.062c4.509-0.266,5.041,6.356,0.538,6.89c0,0-4.533,0.533-9.575,0.796l30.458,90.599l18.306-54.897
		l-13.033-35.703c-4.504-0.265-8.771-0.797-8.771-0.797c-4.507-0.265-3.979-7.156,0.528-6.89c0,0,13.813,1.061,22.031,1.061
		c8.748,0,22.292-1.061,22.292-1.061c4.511-0.266,5.041,6.357,0.535,6.89c0,0-4.539,0.532-9.573,0.797l30.228,89.912l8.341-27.879
		C1303.715,1261.245,1306.467,1252.938,1306.467,1245.776L1306.467,1245.776z"/>
	<path fill="#8038EB" d="M1251.469,1257.313l-25.095,72.919c7.672,2.264,15.629,3.411,23.628,3.411
		c9.739,0,19.081-1.685,27.775-4.741c-0.233-0.364-0.433-0.752-0.595-1.153L1251.469,1257.313z M1323.393,1209.868
		c0.36,2.665,0.564,5.526,0.564,8.602c0,8.488-1.586,18.028-6.36,29.959l-25.549,73.868c24.866-14.5,41.592-41.44,41.592-72.299
		C1333.663,1235.971,1330.137,1222.167,1323.393,1209.868L1323.393,1209.868z"/>
	<path fill="#8038EB" d="M1250.002,1152.5c-53.761,0-97.501,43.737-97.501,97.497c0,53.768,43.739,97.503,97.501,97.503
		c53.758,0,97.505-43.733,97.505-97.502C1347.505,1196.237,1303.76,1152.5,1250.002,1152.5z M1250.002,1343.03
		c-51.295,0-93.03-41.736-93.03-93.034c0-51.293,41.733-93.024,93.03-93.024c51.293,0,93.024,41.731,93.024,93.024
		C1343.026,1301.294,1301.294,1343.03,1250.002,1343.03L1250.002,1343.03z"/>
</g>
</svg>
