<?xml version="1.0" encoding="utf-8"?>
<!-- Generator: Adobe Illustrator 16.0.0, SVG Export Plug-In . SVG Version: 6.00 Build 0)  -->
<!DOCTYPE svg PUBLIC "-//W3C//DTD SVG 1.1//EN" "http://www.w3.org/Graphics/SVG/1.1/DTD/svg11.dtd">
<svg version="1.1" xmlns="http://www.w3.org/2000/svg" xmlns:xlink="http://www.w3.org/1999/xlink" x="0px" y="0px" width="480px"
	 height="640px" viewBox="0 0 480 640" enable-background="new 0 0 480 640" xml:space="preserve">
<g id="legs">
	<g>
		<g>
			<polygon fill="#231F20" stroke="#231F20" stroke-width="0.401" stroke-miterlimit="10" points="71.343,534.479 66.52,556.562 
				73.881,572.3 126.171,565.954 122.617,534.479 			"/>
			
				<rect x="94.627" y="390.604" transform="matrix(0.984 0.1784 -0.1784 0.984 80.928 -11.4412)" fill="#FCB849" width="18.894" height="107.227"/>
			<path fill="#B86028" d="M85.647,531.429l-10.988,0.716c-1.619,0.105-3.209-0.464-4.393-1.573
				c-1.184-1.108-1.855-2.658-1.855-4.28v-45.257c0-3.092,2.399-5.652,5.485-5.854l11.751-0.767V531.429z"/>
			<path fill="#B86028" d="M121.778,523.579c0,3.092-2.4,5.653-5.485,5.854l-6.076,0.396v-57.015l5.313-0.346
				c1.619-0.105,3.209,0.464,4.393,1.573c1.184,1.108,1.855,2.658,1.855,4.28V523.579z"/>
			<polygon fill="#D3EEFB" points="97.932,526.319 85.647,527.12 85.647,479.719 97.932,478.918 			"/>
			<polygon fill="#C6DCF2" points="110.217,525.52 97.932,526.319 97.932,486.296 110.217,485.496 			"/>
			<polygon fill="#B86028" points="66.52,556.562 93.58,609.864 89.139,627.014 69.029,608.754 			"/>
			<polygon fill="#FCB849" points="93.58,609.864 127.413,605.793 134.787,620.722 89.139,627.014 			"/>
			<polygon fill="#F1903D" points="93.58,609.864 74.473,572.228 126.171,565.954 127.413,605.793 			"/>
			<polygon fill="#B86028" points="134.787,620.722 127.413,605.793 122.696,546.327 131.579,567.794 			"/>
		</g>
		<g>
			<path fill="#F1903D" d="M88.901,514.726l-6.824,14.713l-19.965-29.955c0,0,2.651,33.305,10.938,53.316
				c8.287,20.014,14.957,22.562,24.881,21.583c2.209-0.218,4.649-0.666,7.127-1.419l-6.025-58.898L88.901,514.726z"/>
			<path fill="#FCB849" d="M117.438,519.712l-3.102-6.644l-15.301,0.997l6.025,58.898c8.65-2.632,17.75-9.011,19.039-22.493
				c1.658-17.346,3.315-62.533,3.315-62.533L117.438,519.712z"/>
		</g>
	</g>
	<g>
		<path fill="#231F20" stroke="#231F20" stroke-width="0.401" stroke-miterlimit="10" d="M242.924,575.789l-37.303-2.64
			l-20.792-18.108l5.68-13.741c-1.037-2.816,8.06-0.922,11.553-0.922l39-1.426L242.924,575.789z"/>
		
			<rect x="201.126" y="392.936" transform="matrix(0.987 -0.1608 0.1608 0.987 -67.7689 39.4113)" fill="#FCB849" width="16.905" height="90.824"/>
		<path fill="#B86028" d="M205.621,526.608l-12.79,0.833c-1.619,0.105-3.209-0.464-4.393-1.573c-1.184-1.108-1.855-2.658-1.855-4.28
			v-42.816c0-3.092,2.4-5.653,5.485-5.854l13.553-0.883V526.608z"/>
		<polygon fill="#D3EEFB" points="217.805,521.498 205.621,522.292 205.621,477.11 217.805,476.316 		"/>
		<polygon fill="#C6DCF2" points="228.72,523.584 217.805,524.295 217.805,471.24 228.72,470.529 		"/>
		<path fill="#B86028" d="M236.589,519.095c0,3.092-2.4,5.653-5.486,5.854l-2.383,0.155v-57.62l1.622-0.105
			c1.619-0.105,3.208,0.464,4.392,1.573s1.855,2.659,1.855,4.281V519.095z"/>
		<polygon fill="#B86028" points="184.83,555.041 176.53,573.863 187.201,606.911 209.579,625.289 215.359,609.876 194.463,585.571 
					"/>
		<polygon fill="#F1903D" points="184.83,555.041 194.463,585.571 215.359,609.876 245.74,605.726 245.74,569.27 239.96,558.302 
			205.976,569.487 		"/>
		<polygon fill="#FCB849" points="245.74,605.726 249.296,619.657 209.579,625.289 215.359,609.876 		"/>
		<polygon fill="#B86028" points="245.74,569.27 249.146,619.065 245.74,605.726 		"/>
		<g>
			<path fill="#F1903D" d="M210.444,509.232l-8.122,14.798l-20.561-30.137c0,0,6.598,51.861,14.34,61.257
				c7.743,9.395,13.249,13.351,24.076,12.645c0.719-0.046,1.414-0.129,2.089-0.243l-3.744-58.847L210.444,509.232z"/>
			<path fill="#FCB849" d="M243.697,484.528l-6.092,28.066l-2.703-4.955l-16.378,1.065l3.744,58.847
				c9.495-1.596,14.711-9.579,16.607-18.233C240.904,540.047,248.106,495.269,243.697,484.528z"/>
		</g>
	</g>
</g>
<g id="arm-2">
	<g>
		<g>
			<polygon fill="#F1903D" points="353.496,284.434 448.796,200.742 428.678,183.557 344.8,275.348 			"/>
			<polygon fill="#FCB849" points="339.562,269.874 344.8,275.348 428.678,183.557 417.646,174.132 			"/>
		</g>
		<g>
			<path fill="#F1903D" d="M412.91,145.683l15.503-20.099l7.087,8.712c0,0,4.392,7.748,0.183,11.137
				c-4.209,3.389-10.955,4.299-10.955,4.299L412.91,145.683z"/>
			<path fill="#F1903D" d="M445.33,151.728l0.013-14.44c0,0,1.485-6.276,6.14-7.747c4.655-1.472,14.685-2.826,14.685-2.826
				s3.433,0.537,3.735,3.956l-4.929,28.441L445.33,151.728z"/>
			<polygon fill="#FCB849" points="410.04,166.136 411.852,144.147 428.415,149.715 421.846,166.297 			"/>
			<polygon fill="#FCB849" points="439.854,171.327 443.973,150.084 467.219,157.771 456.594,185.547 			"/>
			<polygon fill="#F1903D" points="411.12,173.109 408.773,164.796 423.907,164.351 428.544,178.347 			"/>
			<path fill="#F1903D" d="M423.792,175.379c0,0,15.283-6.734,15.472-7.154c0.189-0.419,19.449,16.881,19.449,16.881l-3.563,12.332
				L423.792,175.379z"/>
			<path fill="#B86028" d="M407.168,186.742l0.219-12.836c0,0,2.184-3.816,3.952-3.731c1.769,0.084,21.272,4.428,29.347,10.089
				c8.075,5.661,16.892,12.934,17.876,17.074c0.985,4.14,0.234,5.823-2.657,8.748c-2.892,2.927-8.04,7.593-8.04,7.593
				s-2.987,3.794-5.579,2.731c-2.593-1.061-8.13-3.003-8.13-3.003l3.052-2.68c0,0,1.922-2.224-3.095-6.637
				C430.278,200.718,418.379,187.466,407.168,186.742z"/>
		</g>
	</g>
	<g>
		<g>
			<polygon fill="#F1903D" points="348.646,285.048 353.582,277.355 252.836,212.646 247.899,220.339 			"/>
			<circle fill="#D3EEFB" cx="348.967" cy="278.766" r="12.741"/>
		</g>
		<circle fill="#D3EEFB" cx="244.362" cy="219.685" r="19.418"/>
	</g>
</g>
<g id="head">
	<g>
		<g>
			<polygon fill="#404041" points="94.744,165.8 101.667,186.752 205.147,186.752 215.896,171.447 118.61,161.975 			"/>
			<path fill="#E7B533" d="M115.266,70.99L80.053,88.163c0,0-2.765,1.018-2.765,3.783c0,2.764,0.291,74.5,0.291,74.5
				s2.036,12.163,14.38,10.738l31.333-10.918L115.266,70.99z"/>
			<path fill="#231F20" d="M231.1,172.218c0,2.359-1.913,4.149-4.273,3.997l-109.959-7.106c-2.36-0.152-4.273-2.189-4.273-4.549
				V74.996c0-2.359,1.913-4.149,4.273-3.997l109.959,7.107c2.36,0.152,4.273,2.188,4.273,4.549V172.218z"/>
			<path fill="#F1903D" d="M221.805,95.068c0-3.7-3-6.896-6.701-7.134l-87.289-5.643c-3.701-0.238-6.701,2.568-6.701,6.269v63.536
				c0,3.701,3,6.896,6.701,7.135l87.289,5.641c3.701,0.239,6.701-2.567,6.701-6.269V95.068z"/>
			<path fill="#D3EEFB" d="M210.702,146.233c0,5.574-4.518,9.801-10.093,9.44l-60.625-3.918c-5.573-0.36-10.092-5.17-10.092-10.745
				V103.88c0-5.575,4.52-9.801,10.092-9.441l60.625,3.917c5.575,0.36,10.093,5.172,10.093,10.746V146.233z"/>
			<path fill="#231F20" d="M146.813,193.824v4.773c0,1.221,2.447,2.211,5.468,2.211c3.02,0,5.467-0.99,5.467-2.211v-4.773H146.813z"
				/>
			<path fill="#231F20" d="M144.718,189.587v4.71c0,1.689,3.386,3.059,7.563,3.059c4.177,0,7.563-1.369,7.563-3.059v-4.71H144.718z"
				/>
			<ellipse fill="#231F20" cx="152.281" cy="182.949" rx="11.319" ry="4.576"/>
			<path fill="#231F20" d="M152.281,182.745c-5.022,0-9.093,1.364-9.093,3.046l0,0v2.818c0,2.031,4.071,3.677,9.093,3.677
				c5.021,0,9.092-1.646,9.092-3.677v-2.818l0,0C161.373,184.109,157.303,182.745,152.281,182.745z"/>
		</g>
		<path fill="#231F20" d="M171.847,103.129c-10.311,0-18.836,7.631-20.245,17.553l40.696,2.789
			C192.237,112.227,183.105,103.129,171.847,103.129z"/>
		<path fill="#FFFFFF" d="M151.602,120.682c-0.135,0.948-0.208,1.915-0.208,2.9c0,11.295,9.158,20.454,20.454,20.454
			c11.296,0,20.454-9.159,20.454-20.454c0-0.038-0.003-0.074-0.003-0.111L151.602,120.682z"/>
		<g>
			<path fill="#231F20" d="M171.847,113.983c-4.566,0-8.381,3.191-9.353,7.464l18.912,1.328
				C180.994,117.852,176.875,113.983,171.847,113.983z"/>
			<path fill="#00ADEE" d="M162.494,121.447c-0.156,0.688-0.247,1.401-0.247,2.136c0,5.302,4.298,9.6,9.6,9.6s9.6-4.298,9.6-9.6
				c0-0.273-0.019-0.542-0.041-0.808L162.494,121.447z"/>
		</g>
	</g>
</g>
<g id="torso">
	<circle fill="#D3EEFB" cx="31.416" cy="226.425" r="21.025"/>
	<g>
		<g>
			<g>
				<polygon fill="#B9834E" points="227.395,243.773 234.85,243.773 234.85,195.923 224.273,195.923 				"/>
				<polygon fill="#F1903D" points="234.85,243.773 238.664,243.773 249.933,195.923 234.85,195.923 				"/>
			</g>
			<g>
				<g>
					<g>
						<path fill="#808080" d="M207.718,302.549c0.014,3.453-2.84,6.352-6.375,6.476l-101.289,3.592
							c-3.535,0.126-6.413-2.57-6.427-6.021l-0.01-2.373c-0.014-3.451,2.841-6.352,6.376-6.477l101.289-3.592
							c3.536-0.124,6.413,2.572,6.427,6.023L207.718,302.549z"/>
						<g>
							<path fill="#808080" d="M215.87,291.746c0.015,3.451-2.841,6.351-6.376,6.475L80.656,302.79
								c-3.536,0.125-6.413-2.57-6.427-6.022l-0.01-2.373c-0.014-3.451,2.84-6.352,6.375-6.476l128.838-4.568
								c3.536-0.125,6.414,2.57,6.428,6.021L215.87,291.746z"/>
							<path fill="#808080" d="M200.472,311.869c0.014,3.451-2.841,6.35-6.376,6.475l-85.73,3.04
								c-3.535,0.125-6.413-2.57-6.427-6.021l-0.01-2.374c-0.014-3.45,2.84-6.351,6.376-6.475l85.73-3.04
								c3.536-0.126,6.413,2.57,6.428,6.022L200.472,311.869z"/>
							<path fill="#808080" d="M193.7,320.687c0.014,3.451-2.84,6.351-6.376,6.477l-67.255,2.385
								c-3.535,0.124-6.413-2.572-6.427-6.023l-0.009-2.372c-0.015-3.452,2.84-6.352,6.375-6.476l67.255-2.386
								c3.536-0.125,6.413,2.571,6.427,6.022L193.7,320.687z"/>
						</g>
					</g>
					<path fill="#F1903D" d="M104.186,182.188c0,0-59.995,0.134-63.804,29.83l-4.456,58.163c0,0-4.206,18.117,7.117,24.588
						c11.323,6.47,25.233,13.586,54.349,4.852c29.115-8.735,38.82-13.588,51.437-14.558c1.567-0.121,3.315-0.212,5.199-0.27
						l-7.413-102.887C123.366,181.949,104.186,182.188,104.186,182.188z"/>
					<path fill="#FCB849" d="M244.587,278.916l-10.028-71.818c0,0-5.177-24.262-41.732-24.91
						c-14.374-0.255-31.146-0.309-46.21-0.281l7.413,102.887c13.277-0.409,33.328,0.791,44.944,4.475
						C212.236,293.474,246.204,307.061,244.587,278.916z"/>
				</g>
				<g>
					<circle fill="#231F20" cx="141.571" cy="186.441" r="1.15"/>
					<circle fill="#231F20" cx="141.92" cy="191.547" r="1.15"/>
					<circle fill="#231F20" cx="142.27" cy="196.653" r="1.15"/>
					<circle fill="#231F20" cx="142.619" cy="201.758" r="1.15"/>
					<circle fill="#231F20" cx="142.969" cy="206.863" r="1.15"/>
					<circle fill="#231F20" cx="143.317" cy="211.968" r="1.15"/>
					<circle fill="#231F20" cx="143.667" cy="217.074" r="1.15"/>
					<circle fill="#231F20" cx="144.017" cy="222.178" r="1.151"/>
					<circle fill="#231F20" cx="144.366" cy="227.283" r="1.151"/>
					<circle fill="#231F20" cx="144.715" cy="232.389" r="1.15"/>
					<circle fill="#231F20" cx="145.064" cy="237.494" r="1.151"/>
					<circle fill="#231F20" cx="145.414" cy="242.599" r="1.151"/>
					<circle fill="#231F20" cx="145.764" cy="247.704" r="1.151"/>
					<circle fill="#231F20" cx="146.112" cy="252.81" r="1.15"/>
					<circle fill="#231F20" cx="146.462" cy="257.915" r="1.15"/>
					<circle fill="#231F20" cx="146.811" cy="263.021" r="1.151"/>
					<circle fill="#231F20" cx="147.16" cy="268.125" r="1.15"/>
					<circle fill="#231F20" cx="147.51" cy="273.23" r="1.151"/>
					<circle fill="#231F20" cx="147.859" cy="278.336" r="1.151"/>
				</g>
				<g>
					<circle fill="#231F20" cx="151.276" cy="186.441" r="1.151"/>
					<circle fill="#231F20" cx="151.625" cy="191.547" r="1.15"/>
					<circle fill="#231F20" cx="151.975" cy="196.653" r="1.15"/>
					<circle fill="#231F20" cx="152.323" cy="201.758" r="1.15"/>
					<circle fill="#231F20" cx="152.673" cy="206.863" r="1.15"/>
					<circle fill="#231F20" cx="153.022" cy="211.968" r="1.15"/>
					<circle fill="#231F20" cx="153.371" cy="217.074" r="1.15"/>
					<circle fill="#231F20" cx="153.721" cy="222.178" r="1.151"/>
					<circle fill="#231F20" cx="154.07" cy="227.283" r="1.15"/>
					<circle fill="#231F20" cx="154.419" cy="232.389" r="1.151"/>
					<circle fill="#231F20" cx="154.768" cy="237.494" r="1.151"/>
					<circle fill="#231F20" cx="155.118" cy="242.599" r="1.15"/>
					<circle fill="#231F20" cx="155.468" cy="247.704" r="1.15"/>
					<circle fill="#231F20" cx="155.816" cy="252.81" r="1.15"/>
					<circle fill="#231F20" cx="156.166" cy="257.915" r="1.15"/>
					<circle fill="#231F20" cx="156.515" cy="263.021" r="1.151"/>
					<circle fill="#231F20" cx="156.865" cy="268.125" r="1.15"/>
					<circle fill="#231F20" cx="157.214" cy="273.23" r="1.151"/>
					<circle fill="#231F20" cx="157.563" cy="278.336" r="1.15"/>
				</g>
				<g>
					<circle fill="#231F20" cx="53.077" cy="213.376" r="0.942"/>
					<circle fill="#231F20" cx="52.856" cy="217.557" r="0.942"/>
					<circle fill="#231F20" cx="52.635" cy="221.739" r="0.942"/>
					<circle fill="#231F20" cx="52.414" cy="225.92" r="0.941"/>
					<circle fill="#231F20" cx="52.192" cy="230.102" r="0.941"/>
					<circle fill="#231F20" cx="51.971" cy="234.284" r="0.941"/>
					<circle fill="#231F20" cx="51.75" cy="238.464" r="0.942"/>
					<circle fill="#231F20" cx="51.528" cy="242.647" r="0.941"/>
					<circle fill="#231F20" cx="51.307" cy="246.828" r="0.942"/>
					<circle fill="#231F20" cx="51.086" cy="251.009" r="0.941"/>
					<circle fill="#231F20" cx="50.864" cy="255.191" r="0.942"/>
					<circle fill="#231F20" cx="50.643" cy="259.373" r="0.941"/>
					<circle fill="#231F20" cx="50.422" cy="263.554" r="0.941"/>
					<circle fill="#231F20" cx="50.201" cy="267.736" r="0.941"/>
					<circle fill="#231F20" cx="49.979" cy="271.917" r="0.942"/>
					<circle fill="#231F20" cx="49.758" cy="276.099" r="0.942"/>
					<circle fill="#231F20" cx="49.537" cy="280.28" r="0.942"/>
					<circle fill="#231F20" cx="49.315" cy="284.461" r="0.942"/>
				</g>
				<g>
					<circle fill="#231F20" cx="227.731" cy="205.432" r="0.942"/>
					<circle fill="#231F20" cx="228.278" cy="209.582" r="0.942"/>
					<circle fill="#231F20" cx="228.825" cy="213.733" r="0.941"/>
					<circle fill="#231F20" cx="229.371" cy="217.885" r="0.941"/>
					<circle fill="#231F20" cx="229.918" cy="222.037" r="0.941"/>
					<circle fill="#231F20" cx="230.465" cy="226.188" r="0.941"/>
					<circle fill="#231F20" cx="231.012" cy="230.34" r="0.941"/>
					<circle fill="#231F20" cx="231.559" cy="234.491" r="0.942"/>
					<circle fill="#231F20" cx="232.105" cy="238.643" r="0.941"/>
					<circle fill="#231F20" cx="232.652" cy="242.794" r="0.942"/>
					<circle fill="#231F20" cx="233.199" cy="246.946" r="0.942"/>
					<circle fill="#231F20" cx="233.746" cy="251.098" r="0.941"/>
					<circle fill="#231F20" cx="234.293" cy="255.249" r="0.941"/>
					<circle fill="#231F20" cx="234.839" cy="259.4" r="0.941"/>
					<circle fill="#231F20" cx="235.386" cy="263.553" r="0.941"/>
					<circle fill="#231F20" cx="235.933" cy="267.704" r="0.941"/>
					<circle fill="#231F20" cx="236.48" cy="271.855" r="0.941"/>
					<circle fill="#231F20" cx="237.026" cy="276.007" r="0.942"/>
					<circle fill="#231F20" cx="237.573" cy="280.158" r="0.941"/>
				</g>
			</g>
			<g>
				<path fill="#F1903D" d="M37.584,249.241h-1.389c-1.421,0-2.655-0.978-2.98-2.36l-10.712-45.487h15.082V249.241z"/>
				<path fill="#FCB849" d="M45.227,246.377c-0.105,1.61-1.442,2.864-3.056,2.864h-4.586v-47.854h7.308"/>
			</g>
			<g>
				<path fill-rule="evenodd" clip-rule="evenodd" fill="#231F20" d="M111.163,256.749c-2.406,0.401-4.732-1.15-5.19-3.51
					c-2.053-10.766-4.107-21.531-6.161-32.297c-0.459-2.359,1.464-4.732,4.294-5.229c32.249-5.679,65.237-5.805,97.543-0.374
					c2.835,0.476,4.756,2.87,4.288,5.277c-2.095,10.982-4.19,21.966-6.285,32.949c-0.468,2.407-2.796,3.98-5.198,3.558
					C166.921,252.256,138.752,252.129,111.163,256.749z"/>
				<path fill-rule="evenodd" clip-rule="evenodd" fill="#D3EEFB" d="M198.345,253.546c-0.351,1.81-2.094,2.987-3.898,2.661
					c-27.518-4.979-55.702-5.103-83.276-0.363c-1.808,0.31-3.549-0.851-3.893-2.624c-2.053-10.766-4.107-21.532-6.161-32.297
					c-0.343-1.771,1.089-3.546,3.204-3.928c32.094-5.786,64.959-5.909,97.11-0.361c2.118,0.364,3.548,2.154,3.198,3.963
					C202.535,231.578,200.44,242.563,198.345,253.546z"/>
				<g>
					<g>
						<defs>
							<path id="SVGID_1_" d="M200.362,253.718c-0.35,1.809-2.159,2.975-4.044,2.634c-28.755-5.185-58.204-5.295-87.011-0.326
								c-1.89,0.326-3.696-0.823-4.039-2.595c-2.053-10.767-4.107-21.532-6.161-32.299c-0.343-1.771,1.154-3.559,3.35-3.955
								c33.326-6.016,67.456-6.151,100.844-0.398c2.199,0.378,3.695,2.18,3.346,3.989
								C204.553,231.75,202.458,242.733,200.362,253.718z"/>
						</defs>
						<clipPath id="SVGID_2_">
							<use xlink:href="#SVGID_1_"  overflow="visible"/>
						</clipPath>
					</g>
					<g>
						<defs>
							<path id="SVGID_3_" d="M200.362,253.718c-0.35,1.809-2.159,2.975-4.044,2.634c-28.755-5.185-58.204-5.295-87.011-0.326
								c-1.89,0.326-3.696-0.823-4.039-2.595c-2.053-10.767-4.107-21.532-6.161-32.299c-0.343-1.771,1.154-3.559,3.35-3.955
								c33.326-6.016,67.456-6.151,100.844-0.398c2.199,0.378,3.695,2.18,3.346,3.989
								C204.553,231.75,202.458,242.733,200.362,253.718z"/>
						</defs>
						<clipPath id="SVGID_4_">
							<use xlink:href="#SVGID_3_"  overflow="visible"/>
						</clipPath>
						<g clip-path="url(#SVGID_4_)">
							<path fill="#404041" d="M174.423,237.875c-0.228-0.158-0.464-0.296-0.708-0.418c0.075-0.198,0.148-0.395,0.223-0.591
								c-0.589-0.283-1.212-0.478-1.846-0.582c-0.073,0.196-0.146,0.395-0.219,0.591c-0.559-0.085-1.126-0.092-1.681-0.026
								c-0.071-0.2-0.143-0.398-0.215-0.597c-0.641,0.087-1.265,0.264-1.849,0.522c0.074,0.199,0.146,0.397,0.219,0.596
								c-0.488,0.229-0.943,0.523-1.346,0.884c-0.188-0.123-0.376-0.246-0.564-0.367c-0.221,0.205-0.427,0.428-0.616,0.668
								c-0.189,0.241-0.354,0.491-0.496,0.746c0.188,0.122,0.377,0.243,0.563,0.366c-0.245,0.461-0.407,0.944-0.491,1.436
								c-0.228,0.001-0.456,0.002-0.683,0.004c-0.085,0.581-0.073,1.171,0.033,1.744c0.226-0.001,0.453-0.002,0.679-0.003
								c0.1,0.494,0.276,0.979,0.524,1.433c-0.181,0.123-0.361,0.247-0.541,0.37c0.293,0.509,0.668,0.985,1.122,1.41
								c0.18-0.123,0.36-0.246,0.54-0.367c0.193,0.175,0.401,0.339,0.625,0.491c0.224,0.151,0.455,0.286,0.691,0.402
								c-0.069,0.198-0.137,0.396-0.205,0.594c0.57,0.271,1.167,0.457,1.772,0.56c0.07-0.197,0.141-0.395,0.211-0.592
								c0.536,0.08,1.081,0.091,1.615,0.028c0.066,0.199,0.133,0.399,0.2,0.599c0.614-0.081,1.216-0.245,1.784-0.494
								c-0.065-0.198-0.131-0.398-0.196-0.599c0.478-0.218,0.927-0.502,1.331-0.85c0.179,0.129,0.358,0.258,0.537,0.388
								c0.222-0.198,0.431-0.414,0.627-0.646c0.194-0.234,0.366-0.477,0.518-0.727c-0.179-0.13-0.358-0.259-0.538-0.389
								c0.26-0.453,0.442-0.932,0.546-1.419c0.227,0.009,0.454,0.019,0.681,0.028c0.113-0.579,0.129-1.169,0.05-1.75
								c-0.228-0.009-0.457-0.018-0.685-0.026c-0.079-0.501-0.238-0.992-0.476-1.456c0.189-0.117,0.378-0.232,0.567-0.348
								c-0.278-0.523-0.647-1.015-1.104-1.455c-0.189,0.117-0.379,0.232-0.568,0.35
								C174.862,238.203,174.652,238.032,174.423,237.875z M174.798,244.663c-1.573,1.891-4.47,2.255-6.563,0.833
								c-2.093-1.424-2.623-4.134-1.089-6.077c1.531-1.942,4.578-2.342,6.709-0.866
								C175.989,240.027,176.369,242.771,174.798,244.663z M169.63,241.072c-0.556,0.692-0.382,1.671,0.374,2.188
								c0.756,0.518,1.815,0.383,2.376-0.303c0.56-0.686,0.406-1.669-0.356-2.192C171.262,240.239,170.185,240.38,169.63,241.072z
								 M171.479,242.334c-0.191,0.235-0.556,0.281-0.815,0.104c-0.259-0.178-0.317-0.513-0.125-0.75
								c0.19-0.235,0.557-0.283,0.817-0.105C171.616,241.762,171.67,242.098,171.479,242.334z"/>
							<g>
								<path fill="#808184" d="M184.807,243.764c-0.344-0.133-0.692-0.236-1.043-0.317c0.017-0.274,0.033-0.551,0.05-0.825
									c-0.843-0.18-1.692-0.231-2.52-0.167c-0.014,0.276-0.028,0.552-0.042,0.827c-0.729,0.068-1.433,0.239-2.094,0.5
									c-0.166-0.232-0.333-0.465-0.5-0.696c-0.759,0.317-1.461,0.741-2.079,1.261c0.167,0.23,0.335,0.46,0.502,0.691
									c-0.514,0.448-0.96,0.972-1.316,1.561c-0.279-0.097-0.558-0.193-0.836-0.289c-0.193,0.334-0.361,0.686-0.501,1.055
									c-0.139,0.367-0.247,0.74-0.323,1.112c0.277,0.096,0.554,0.191,0.83,0.287c-0.126,0.668-0.142,1.341-0.062,1.995
									c-0.278,0.074-0.558,0.15-0.836,0.225c0.113,0.772,0.347,1.521,0.686,2.225c0.277-0.076,0.554-0.15,0.831-0.223
									c0.303,0.604,0.694,1.166,1.163,1.67c-0.177,0.216-0.354,0.431-0.531,0.646c0.541,0.562,1.168,1.054,1.874,1.453
									c0.177-0.212,0.356-0.426,0.534-0.64c0.299,0.162,0.611,0.308,0.938,0.434c0.329,0.124,0.658,0.225,0.991,0.301
									c-0.016,0.275-0.031,0.552-0.048,0.826c0.795,0.172,1.593,0.223,2.375,0.164c0.019-0.274,0.037-0.55,0.056-0.825
									c0.689-0.062,1.365-0.22,2.004-0.466c0.151,0.237,0.301,0.473,0.452,0.71c0.732-0.295,1.421-0.692,2.042-1.185
									c-0.149-0.239-0.299-0.477-0.45-0.715c0.517-0.428,0.977-0.932,1.358-1.502c0.267,0.11,0.534,0.222,0.8,0.333
									c0.209-0.323,0.395-0.665,0.557-1.025c0.16-0.36,0.291-0.727,0.39-1.095c-0.269-0.112-0.538-0.225-0.807-0.338
									c0.163-0.661,0.219-1.334,0.173-1.995c0.287-0.058,0.573-0.115,0.86-0.174c-0.067-0.779-0.262-1.543-0.573-2.268
									c-0.289,0.059-0.577,0.117-0.866,0.177c-0.283-0.62-0.664-1.203-1.134-1.729c0.192-0.207,0.384-0.416,0.577-0.623
									c-0.545-0.587-1.189-1.104-1.926-1.527c-0.192,0.208-0.384,0.417-0.576,0.627
									C185.478,244.047,185.15,243.894,184.807,243.764z M187.774,252.378c-1.293,2.921-4.753,4.282-7.822,3.115
									c-3.067-1.171-4.705-4.471-3.564-7.45c1.14-2.976,4.751-4.459,7.971-3.231C187.581,246.036,189.065,249.459,187.774,252.378
									z M177.615,248.479c-0.911,2.34,0.367,4.946,2.793,5.872c2.428,0.924,5.163-0.158,6.168-2.46
									c1.003-2.304-0.179-4.987-2.701-5.945C181.355,244.984,178.525,246.143,177.615,248.479z M182.821,250.412
									c-0.15,0.363-0.583,0.537-0.97,0.39c-0.384-0.146-0.579-0.56-0.43-0.923c0.148-0.363,0.584-0.539,0.973-0.392
									S182.973,250.05,182.821,250.412z"/>
							</g>
							<g>
								<path fill="#F1903D" d="M189.657,219.603c-0.167-0.073-0.339-0.136-0.51-0.189c0.045-0.278,0.089-0.555,0.133-0.833
									c-0.519-0.145-1.049-0.219-1.571-0.226c-0.042,0.276-0.085,0.554-0.127,0.831c-0.369,0.006-0.73,0.054-1.077,0.139
									c-0.161-0.25-0.322-0.501-0.484-0.752c-0.495,0.139-0.961,0.342-1.382,0.603c0.163,0.249,0.325,0.5,0.486,0.749
									c-0.279,0.188-0.528,0.406-0.743,0.655c-0.3-0.128-0.602-0.254-0.903-0.379c-0.142,0.18-0.27,0.37-0.381,0.573
									c-0.111,0.2-0.203,0.408-0.274,0.615c0.3,0.126,0.601,0.251,0.9,0.377c-0.091,0.302-0.133,0.607-0.129,0.912
									c-0.323,0.045-0.646,0.092-0.968,0.139c0.025,0.446,0.13,0.889,0.306,1.31c0.321-0.046,0.642-0.093,0.963-0.136
									c0.132,0.288,0.307,0.565,0.52,0.821c-0.223,0.198-0.446,0.398-0.667,0.597c0.316,0.353,0.693,0.669,1.126,0.938
									c0.223-0.199,0.446-0.397,0.669-0.596c0.148,0.087,0.304,0.168,0.468,0.239c0.165,0.071,0.331,0.133,0.498,0.185
									c-0.042,0.277-0.085,0.555-0.127,0.832c0.505,0.142,1.017,0.213,1.523,0.222c0.044-0.276,0.087-0.555,0.131-0.831
									c0.359-0.005,0.712-0.05,1.052-0.132c0.153,0.253,0.306,0.506,0.458,0.759c0.484-0.131,0.944-0.324,1.362-0.577
									c-0.152-0.253-0.305-0.507-0.457-0.76c0.277-0.182,0.528-0.396,0.748-0.638c0.293,0.134,0.587,0.27,0.879,0.403
									c0.147-0.175,0.281-0.361,0.397-0.562c0.117-0.198,0.215-0.401,0.294-0.605c-0.294-0.137-0.589-0.273-0.883-0.407
									c0.099-0.3,0.152-0.606,0.156-0.911c0.325-0.035,0.651-0.07,0.976-0.105c-0.009-0.449-0.098-0.896-0.263-1.322
									c-0.327,0.035-0.654,0.071-0.979,0.107c-0.126-0.294-0.297-0.575-0.509-0.836c0.231-0.194,0.462-0.388,0.693-0.581
									c-0.314-0.361-0.695-0.687-1.135-0.967c-0.232,0.194-0.463,0.39-0.694,0.585
									C189.982,219.759,189.823,219.678,189.657,219.603z M189.352,220.127c1.777,0.783,2.496,2.62,1.639,4.082
									c-0.86,1.463-2.942,2.015-4.684,1.253c-1.74-0.763-2.51-2.566-1.687-4.051C185.441,219.927,187.575,219.343,189.352,220.127
									z"/>
								<path fill="#F1903D" d="M187.077,222.468c-0.195,0.342-0.02,0.765,0.388,0.944c0.408,0.179,0.896,0.047,1.092-0.295
									c0.196-0.343,0.026-0.765-0.385-0.945C187.762,221.992,187.271,222.124,187.077,222.468z"/>
								<path fill="#F1903D" d="M185.774,222.067c-0.422,0.949,0.149,2.039,1.266,2.438c1.116,0.399,2.373-0.034,2.812-0.976
									c0.438-0.942-0.117-2.046-1.25-2.452C187.471,220.672,186.197,221.12,185.774,222.067z M189.631,223.449
									c-0.39,0.84-1.512,1.229-2.508,0.871c-0.997-0.356-1.505-1.33-1.127-2.176c0.378-0.845,1.511-1.243,2.521-0.882
									C189.526,221.626,190.023,222.609,189.631,223.449z"/>
							</g>
							<g>
								<path fill="#6D6E70" d="M193.906,228.224c-0.186-0.089-0.374-0.163-0.563-0.228c0.056-0.316,0.112-0.634,0.169-0.949
									c-0.575-0.177-1.165-0.271-1.744-0.289c-0.054,0.316-0.109,0.633-0.164,0.95c-0.41,0-0.814,0.048-1.202,0.14
									c-0.173-0.291-0.346-0.58-0.521-0.87c-0.554,0.151-1.078,0.374-1.551,0.666c0.173,0.289,0.348,0.578,0.521,0.866
									c-0.312,0.209-0.595,0.456-0.841,0.737c-0.332-0.15-0.664-0.3-0.996-0.448c-0.162,0.204-0.308,0.42-0.437,0.649
									c-0.128,0.228-0.233,0.464-0.318,0.701c0.332,0.148,0.663,0.297,0.994,0.446c-0.109,0.344-0.162,0.694-0.164,1.043
									c-0.36,0.046-0.719,0.093-1.078,0.142c0.018,0.513,0.124,1.021,0.31,1.506c0.357-0.048,0.714-0.096,1.072-0.142
									c0.142,0.333,0.328,0.653,0.558,0.949c-0.251,0.226-0.502,0.448-0.753,0.674c0.342,0.408,0.753,0.777,1.226,1.093
									c0.251-0.225,0.503-0.448,0.756-0.671c0.163,0.101,0.333,0.196,0.514,0.28c0.179,0.086,0.363,0.157,0.546,0.221
									c-0.054,0.317-0.107,0.634-0.161,0.949c0.554,0.172,1.12,0.264,1.682,0.282c0.056-0.317,0.111-0.633,0.167-0.949
									c0.398,0.001,0.792-0.045,1.171-0.132c0.163,0.292,0.326,0.585,0.488,0.879c0.54-0.144,1.055-0.356,1.525-0.636
									c-0.161-0.294-0.321-0.587-0.483-0.879c0.312-0.202,0.598-0.442,0.846-0.718c0.323,0.159,0.646,0.32,0.967,0.48
									c0.167-0.198,0.32-0.409,0.457-0.634c0.137-0.225,0.25-0.456,0.344-0.689c-0.323-0.162-0.646-0.322-0.971-0.483
									c0.12-0.341,0.187-0.689,0.202-1.039c0.362-0.033,0.724-0.067,1.086-0.101c0.002-0.516-0.083-1.027-0.255-1.521
									c-0.364,0.033-0.729,0.067-1.094,0.104c-0.133-0.34-0.314-0.665-0.542-0.968c0.262-0.217,0.525-0.434,0.789-0.65
									c-0.341-0.421-0.756-0.802-1.239-1.13c-0.264,0.219-0.526,0.438-0.788,0.657
									C194.264,228.407,194.088,228.31,193.906,228.224z M193.552,228.816c1.958,0.932,2.705,3.048,1.71,4.706
									c-0.995,1.658-3.318,2.253-5.23,1.35c-1.91-0.903-2.725-2.98-1.777-4.668C189.203,228.52,191.595,227.887,193.552,228.816z"
									/>
								<path fill="#E5A4A9" d="M190.962,231.455c-0.224,0.391-0.041,0.876,0.408,1.089c0.448,0.212,0.994,0.07,1.221-0.317
									s0.047-0.877-0.403-1.089C191.736,230.924,191.187,231.066,190.962,231.455z"/>
								<path fill="#E5A4A9" d="M189.523,230.977c-0.492,1.078,0.118,2.336,1.347,2.812c1.229,0.477,2.635,0.004,3.149-1.066
									c0.513-1.069-0.077-2.345-1.326-2.831C191.443,229.404,190.017,229.896,189.523,230.977z M193.777,232.626
									c-0.458,0.956-1.713,1.379-2.811,0.952c-1.096-0.427-1.638-1.548-1.198-2.51c0.44-0.962,1.713-1.397,2.825-0.966
									C193.708,230.537,194.233,231.673,193.777,232.626z"/>
								<path fill="#E5A4A9" d="M188.688,230.661c-0.67,1.48,0.17,3.199,1.849,3.851c1.679,0.652,3.601,0.009,4.31-1.457
									c0.708-1.464-0.094-3.214-1.812-3.884C191.318,228.503,189.357,229.181,188.688,230.661z M194.516,232.922
									c-0.63,1.307-2.348,1.883-3.847,1.301c-1.499-0.582-2.246-2.116-1.646-3.436c0.599-1.319,2.346-1.923,3.877-1.327
									C194.429,230.055,195.145,231.615,194.516,232.922z"/>
							</g>
							<g>
								<path fill="#F1903D" d="M172.717,249.608c-0.081-0.096-0.167-0.185-0.256-0.267c0.126-0.181,0.254-0.359,0.382-0.54
									c-0.277-0.239-0.585-0.433-0.915-0.577c-0.126,0.18-0.254,0.361-0.38,0.542c-0.235-0.095-0.483-0.158-0.733-0.193
									c-0.012-0.217-0.024-0.435-0.037-0.651c-0.364-0.038-0.734-0.022-1.095,0.044c0.013,0.216,0.026,0.434,0.04,0.65
									c-0.244,0.054-0.482,0.138-0.709,0.253c-0.146-0.17-0.293-0.339-0.44-0.509c-0.154,0.085-0.304,0.184-0.447,0.292
									c-0.144,0.11-0.274,0.229-0.396,0.354c0.147,0.168,0.295,0.337,0.441,0.506c-0.165,0.186-0.301,0.387-0.407,0.6
									c-0.222-0.057-0.444-0.112-0.666-0.168c-0.143,0.317-0.231,0.653-0.268,0.994c0.222,0.055,0.443,0.111,0.665,0.166
									c-0.016,0.237-0.001,0.478,0.045,0.713c-0.212,0.077-0.424,0.157-0.636,0.235c0.082,0.331,0.213,0.653,0.398,0.957
									c0.212-0.077,0.423-0.155,0.634-0.232c0.064,0.101,0.137,0.198,0.217,0.291c0.08,0.095,0.166,0.184,0.256,0.263
									c-0.123,0.182-0.245,0.364-0.367,0.546c0.275,0.234,0.578,0.424,0.9,0.563c0.123-0.181,0.245-0.361,0.367-0.543
									c0.232,0.092,0.473,0.155,0.719,0.188c0.011,0.217,0.023,0.435,0.035,0.652c0.354,0.037,0.713,0.022,1.066-0.041
									c-0.011-0.217-0.021-0.434-0.032-0.652c0.239-0.051,0.473-0.133,0.696-0.246c0.142,0.172,0.283,0.343,0.423,0.516
									c0.152-0.085,0.302-0.18,0.444-0.287c0.143-0.106,0.274-0.221,0.396-0.344c-0.142-0.173-0.283-0.345-0.424-0.517
									c0.167-0.182,0.306-0.38,0.415-0.59c0.22,0.062,0.439,0.122,0.658,0.183c0.148-0.314,0.247-0.647,0.292-0.987
									c-0.22-0.062-0.44-0.123-0.66-0.185c0.022-0.237,0.013-0.477-0.029-0.715c0.214-0.072,0.429-0.146,0.645-0.219
									c-0.072-0.333-0.198-0.659-0.378-0.969c-0.216,0.072-0.431,0.147-0.647,0.22
									C172.867,249.805,172.796,249.705,172.717,249.608z M172.337,249.89c0.85,1.017,0.663,2.479-0.387,3.271
									c-1.05,0.79-2.57,0.621-3.422-0.379c-0.853-1-0.712-2.465,0.342-3.271C169.922,248.703,171.487,248.875,172.337,249.89z"/>
								<path fill="#F1903D" d="M170.061,250.906c-0.243,0.186-0.28,0.525-0.082,0.759c0.197,0.235,0.553,0.274,0.798,0.09
									c0.245-0.187,0.284-0.526,0.086-0.76C170.667,250.759,170.306,250.721,170.061,250.906z"/>
								<path fill="#F1903D" d="M169.373,250.277c-0.606,0.545-0.622,1.457-0.045,2.035c0.575,0.578,1.527,0.611,2.134,0.073
									c0.606-0.539,0.639-1.451,0.062-2.036C170.948,249.767,169.978,249.733,169.373,250.277z M171.349,252.271
									c-0.54,0.48-1.391,0.451-1.905-0.063c-0.512-0.516-0.497-1.331,0.042-1.816c0.54-0.483,1.404-0.455,1.918,0.065
									C171.917,250.977,171.888,251.792,171.349,252.271z"/>
								<path fill="#F1903D" d="M168.982,249.89c-0.831,0.747-0.848,1.998-0.059,2.788c0.789,0.79,2.089,0.838,2.919,0.101
									c0.831-0.736,0.881-1.987,0.091-2.79C171.146,249.187,169.812,249.144,168.982,249.89z M171.69,252.621
									c-0.74,0.657-1.902,0.616-2.605-0.089c-0.703-0.706-0.688-1.822,0.053-2.487c0.74-0.667,1.927-0.627,2.632,0.087
									C172.474,250.848,172.431,251.965,171.69,252.621z"/>
							</g>
							<g>
								<path fill="#721E13" d="M124.217,223.339c0.25,0.333,0.527,0.644,0.822,0.933c-0.248,0.258-0.495,0.514-0.741,0.771
									c0.723,0.679,1.547,1.246,2.442,1.695c0.247-0.256,0.494-0.51,0.743-0.764c0.799,0.387,1.656,0.671,2.545,0.85
									c-0.034,0.325-0.066,0.651-0.099,0.979c1.029,0.19,2.092,0.252,3.158,0.182c0.036-0.326,0.072-0.652,0.109-0.979
									c0.905-0.074,1.81-0.256,2.689-0.552c0.189,0.279,0.379,0.56,0.567,0.839c0.488-0.173,0.97-0.377,1.438-0.613
									c0.47-0.238,0.913-0.501,1.327-0.784c-0.187-0.282-0.374-0.564-0.561-0.846c0.732-0.521,1.363-1.117,1.884-1.77
									c0.348,0.134,0.696,0.268,1.043,0.4c0.6-0.774,1.062-1.619,1.373-2.499c-0.349-0.135-0.699-0.269-1.049-0.403
									c0.25-0.765,0.373-1.559,0.355-2.354c0.384-0.066,0.768-0.132,1.152-0.197c-0.035-0.902-0.232-1.809-0.604-2.685
									c-0.388,0.065-0.775,0.131-1.162,0.198c-0.166-0.362-0.363-0.721-0.598-1.068c-0.236-0.349-0.5-0.676-0.788-0.98
									c0.271-0.245,0.542-0.489,0.814-0.732c-0.703-0.723-1.532-1.333-2.449-1.82c-0.272,0.246-0.543,0.492-0.815,0.738
									c-0.818-0.414-1.708-0.723-2.643-0.916c0.043-0.326,0.088-0.65,0.131-0.978c-1.086-0.207-2.221-0.274-3.357-0.197
									c-0.041,0.326-0.081,0.654-0.121,0.98c-0.958,0.081-1.915,0.279-2.84,0.602c-0.205-0.274-0.411-0.548-0.616-0.821
									c-0.514,0.188-1.019,0.41-1.509,0.668c-0.49,0.258-0.948,0.54-1.373,0.845c0.208,0.271,0.416,0.544,0.623,0.816
									c-0.746,0.553-1.375,1.183-1.878,1.863c-0.367-0.111-0.734-0.221-1.102-0.331c-0.574,0.813-0.992,1.686-1.246,2.584
									c0.366,0.107,0.731,0.217,1.095,0.325c-0.206,0.778-0.273,1.576-0.202,2.367c-0.379,0.092-0.757,0.186-1.136,0.279
									c0.104,0.894,0.369,1.778,0.797,2.623c0.375-0.093,0.75-0.185,1.126-0.275C123.75,222.662,123.967,223.006,124.217,223.339z
									 M128.315,213.144c3.953-2.074,9.114-1.058,11.315,2.204c2.207,3.262,0.738,7.417-3.072,9.35
									c-3.816,1.93-8.643,1.014-10.993-2.106C123.221,219.474,124.358,215.217,128.315,213.144z M133.985,220.967
									c1.386-0.71,1.876-2.216,1.067-3.371c-0.809-1.156-2.624-1.51-4.028-0.781c-1.406,0.728-1.853,2.247-1.026,3.384
									C130.825,221.335,132.597,221.677,133.985,220.967z M132.005,218.176c0.479-0.247,1.096-0.127,1.375,0.267
									s0.117,0.911-0.361,1.155c-0.476,0.244-1.087,0.127-1.37-0.264C131.368,218.942,131.526,218.423,132.005,218.176z"/>
							</g>
							<path fill="#6D6E70" d="M127.818,253.209c0.241,0.131,0.487,0.243,0.738,0.336c-0.048,0.21-0.096,0.419-0.144,0.629
								c0.602,0.215,1.221,0.339,1.843,0.377c0.049-0.209,0.099-0.419,0.149-0.628c0.548,0.025,1.096-0.026,1.626-0.147
								c0.088,0.197,0.176,0.395,0.264,0.591c0.609-0.15,1.196-0.385,1.74-0.698c-0.086-0.198-0.172-0.395-0.259-0.594
								c0.457-0.274,0.879-0.612,1.249-1.011c0.193,0.111,0.385,0.223,0.578,0.335c0.204-0.226,0.392-0.469,0.563-0.729
								c0.17-0.26,0.319-0.526,0.445-0.799c-0.193-0.113-0.386-0.227-0.58-0.341c0.215-0.488,0.35-0.997,0.405-1.507
								c0.229-0.017,0.458-0.032,0.687-0.047c0.054-0.602,0.01-1.208-0.127-1.792c-0.23,0.015-0.46,0.029-0.691,0.046
								c-0.13-0.503-0.339-0.988-0.624-1.438c0.178-0.14,0.355-0.277,0.535-0.416c-0.333-0.507-0.752-0.969-1.255-1.367
								c-0.179,0.14-0.357,0.279-0.536,0.419c-0.213-0.164-0.442-0.314-0.688-0.451c-0.245-0.137-0.497-0.251-0.755-0.351
								c0.056-0.209,0.112-0.418,0.167-0.627c-0.622-0.226-1.269-0.355-1.917-0.395c-0.054,0.21-0.109,0.418-0.163,0.628
								c-0.572-0.024-1.144,0.028-1.696,0.158c-0.092-0.195-0.185-0.392-0.277-0.587c-0.638,0.16-1.249,0.407-1.811,0.737
								c0.094,0.194,0.188,0.39,0.281,0.585c-0.47,0.286-0.897,0.639-1.267,1.05c-0.202-0.104-0.404-0.208-0.606-0.312
								c-0.203,0.233-0.388,0.483-0.553,0.751c-0.167,0.266-0.308,0.54-0.424,0.818c0.202,0.103,0.403,0.206,0.604,0.311
								c-0.198,0.498-0.312,1.011-0.345,1.522c-0.229,0.026-0.459,0.052-0.689,0.079c-0.025,0.604,0.049,1.204,0.215,1.779
								c0.228-0.025,0.456-0.053,0.684-0.078c0.152,0.495,0.38,0.97,0.679,1.407c-0.169,0.146-0.338,0.291-0.506,0.438
								c0.348,0.489,0.776,0.934,1.278,1.316c0.168-0.145,0.337-0.288,0.506-0.433C127.351,252.933,127.577,253.078,127.818,253.209
								z M126.562,246.354c1.343-2.155,4.376-2.896,6.67-1.621c2.296,1.273,2.951,4.041,1.568,6.145
								c-1.386,2.104-4.256,2.791-6.513,1.568C126.034,251.221,125.215,248.51,126.562,246.354z M132.842,249.76
								c0.712-1.095,0.352-2.521-0.832-3.175c-1.184-0.653-2.733-0.276-3.435,0.832c-0.702,1.11-0.299,2.522,0.874,3.162
								C130.623,251.219,132.129,250.856,132.842,249.76z M130.385,248.396c0.111-0.171,0.35-0.229,0.534-0.128
								c0.185,0.1,0.244,0.323,0.132,0.495c-0.109,0.172-0.347,0.23-0.532,0.129C130.334,248.791,130.274,248.569,130.385,248.396z"
								/>
							<g>
								<path fill="#231F20" d="M136.097,243.535c0.41,0.333,0.84,0.633,1.284,0.904c-0.183,0.376-0.365,0.753-0.546,1.128
									c1.071,0.627,2.212,1.094,3.387,1.401c0.186-0.375,0.371-0.748,0.558-1.122c1.045,0.256,2.119,0.376,3.191,0.357
									c0.081,0.404,0.161,0.809,0.242,1.213c1.232-0.041,2.46-0.241,3.645-0.606c-0.074-0.406-0.149-0.812-0.225-1.217
									c1.002-0.328,1.967-0.787,2.865-1.379c0.316,0.292,0.632,0.583,0.947,0.875c0.495-0.338,0.971-0.712,1.424-1.124
									c0.453-0.412,0.867-0.847,1.241-1.301c-0.315-0.295-0.631-0.59-0.947-0.884c0.651-0.825,1.16-1.715,1.52-2.646
									c0.448,0.07,0.897,0.142,1.345,0.214c0.409-1.102,0.632-2.249,0.665-3.401c-0.453-0.073-0.908-0.146-1.362-0.217
									c0.003-0.996-0.155-1.993-0.479-2.957c0.419-0.183,0.837-0.365,1.257-0.545c-0.385-1.087-0.965-2.136-1.741-3.101
									c-0.423,0.184-0.846,0.368-1.268,0.554c-0.334-0.397-0.705-0.777-1.116-1.136c-0.411-0.359-0.849-0.684-1.305-0.976
									c0.215-0.368,0.432-0.736,0.649-1.103c-1.107-0.686-2.318-1.199-3.582-1.535c-0.213,0.37-0.426,0.74-0.639,1.11
									c-1.116-0.278-2.276-0.405-3.432-0.382c-0.085-0.404-0.172-0.809-0.258-1.212c-1.344,0.051-2.682,0.281-3.957,0.69
									c0.092,0.402,0.184,0.805,0.275,1.206c-1.07,0.362-2.087,0.864-3.014,1.505c-0.351-0.271-0.703-0.543-1.057-0.812
									c-0.511,0.368-0.997,0.773-1.449,1.218c-0.452,0.443-0.857,0.909-1.214,1.391c0.353,0.268,0.705,0.535,1.056,0.803
									c-0.622,0.87-1.077,1.796-1.37,2.749c-0.464-0.031-0.93-0.062-1.395-0.09c-0.316,1.13-0.43,2.289-0.352,3.433
									c0.459,0.028,0.918,0.059,1.377,0.091c0.083,0.987,0.326,1.963,0.722,2.894c-0.393,0.214-0.785,0.428-1.176,0.645
									c0.474,1.045,1.121,2.033,1.934,2.937c0.387-0.214,0.775-0.426,1.165-0.637C135.309,242.844,135.687,243.2,136.097,243.535z
									 M136.695,230.163c3.659-3.574,10.07-3.777,13.914-0.417c3.854,3.356,3.682,8.811,0.022,12.157
									c-3.67,3.348-9.443,3.497-13.295,0.366C133.494,239.14,133.027,233.74,136.695,230.163z"/>
								<path fill="#231F20" d="M146.301,238.057c1.316-1.229,1.304-3.185-0.081-4.363c-1.382-1.182-3.612-1.114-4.929,0.144
									c-1.318,1.257-1.223,3.207,0.16,4.356C142.834,239.344,144.982,239.285,146.301,238.057z M142.199,234.585
									c0.846-0.805,2.269-0.847,3.156-0.092c0.888,0.753,0.905,2.009,0.06,2.802c-0.846,0.791-2.234,0.829-3.123,0.087
									S141.354,235.389,142.199,234.585z"/>
								<path fill="#231F20" d="M149.393,240.782c2.977-2.739,3.069-7.188-0.065-9.901c-3.128-2.716-8.314-2.555-11.292,0.336
									c-2.984,2.892-2.651,7.306,0.476,9.87C141.646,243.648,146.407,243.522,149.393,240.782z M138.438,231.534
									c2.774-2.688,7.593-2.836,10.507-0.312c2.921,2.524,2.849,6.668,0.072,9.226c-2.781,2.557-7.23,2.677-10.149,0.284
									C135.954,238.337,135.657,234.223,138.438,231.534z"/>
							</g>
							<g>
								<path fill="#808184" d="M147.346,257.494c0.175,0.287,0.368,0.558,0.571,0.813c-0.406,0.446-0.81,0.895-1.211,1.343
									c0.635,0.74,1.364,1.369,2.158,1.882c0.402-0.445,0.806-0.889,1.213-1.331c0.573,0.346,1.188,0.615,1.823,0.81
									c-0.067,0.595-0.134,1.189-0.2,1.783c0.918,0.249,1.871,0.367,2.828,0.347c0.074-0.594,0.146-1.188,0.221-1.78
									c0.657-0.037,1.313-0.156,1.958-0.358c0.289,0.526,0.577,1.057,0.863,1.585c0.443-0.154,0.88-0.345,1.31-0.568
									s0.834-0.475,1.217-0.749c-0.282-0.532-0.566-1.064-0.852-1.596c0.532-0.415,1.001-0.886,1.403-1.403
									c0.549,0.27,1.097,0.54,1.643,0.814c0.564-0.777,1.007-1.629,1.314-2.525c-0.551-0.276-1.103-0.552-1.657-0.824
									c0.187-0.63,0.292-1.284,0.31-1.946c0.617-0.093,1.234-0.185,1.852-0.272c-0.005-0.938-0.157-1.884-0.469-2.809
									c-0.624,0.09-1.249,0.183-1.873,0.278c-0.118-0.307-0.256-0.609-0.419-0.906c-0.166-0.297-0.348-0.579-0.547-0.846
									c0.444-0.427,0.892-0.853,1.341-1.277c-0.619-0.78-1.356-1.449-2.176-1.996c-0.448,0.428-0.894,0.857-1.337,1.288
									c-0.592-0.366-1.235-0.651-1.905-0.856c0.083-0.594,0.166-1.188,0.25-1.78c-0.983-0.267-2.012-0.39-3.044-0.362
									c-0.077,0.594-0.152,1.188-0.228,1.781c-0.698,0.042-1.395,0.172-2.074,0.39c-0.318-0.521-0.638-1.039-0.96-1.559
									c-0.47,0.169-0.933,0.375-1.382,0.616c-0.449,0.242-0.87,0.512-1.26,0.806c0.327,0.516,0.65,1.031,0.973,1.548
									c-0.541,0.437-1.007,0.931-1.395,1.469c-0.583-0.238-1.167-0.475-1.753-0.707c-0.534,0.812-0.927,1.69-1.17,2.606
									c0.582,0.231,1.162,0.464,1.741,0.7c-0.15,0.639-0.214,1.297-0.187,1.955c-0.608,0.133-1.216,0.268-1.824,0.404
									c0.079,0.93,0.301,1.857,0.673,2.754c0.601-0.136,1.203-0.269,1.805-0.397C147.019,256.913,147.171,257.207,147.346,257.494
									z M150.909,248.104c3.287-1.768,7.515-0.597,9.253,2.559c1.742,3.154,0.431,7.014-2.737,8.673
									c-3.175,1.658-7.1,0.571-8.96-2.479C146.611,253.809,147.618,249.868,150.909,248.104z"/>
								<path fill="#FDBC11" d="M154.994,255c0.747-0.394,1.024-1.298,0.609-2.021c-0.414-0.725-1.369-0.988-2.123-0.588
									c-0.753,0.4-1.015,1.31-0.594,2.027C153.307,255.135,154.248,255.396,154.994,255z"/>
							</g>
							<g>
								<path fill="#F1664A" d="M110.814,239.762c0.31,0.236,0.634,0.449,0.965,0.645c-0.302,0.616-0.602,1.232-0.898,1.85
									c1.008,0.543,2.082,0.936,3.186,1.186c0.301-0.615,0.604-1.227,0.911-1.839c0.793,0.153,1.602,0.214,2.411,0.188
									c0.141,0.648,0.282,1.296,0.422,1.944c1.156-0.072,2.303-0.291,3.406-0.658c-0.131-0.65-0.264-1.301-0.396-1.95
									c0.747-0.276,1.466-0.636,2.142-1.08c0.532,0.449,1.061,0.903,1.587,1.357c0.458-0.321,0.898-0.678,1.315-1.065
									c0.417-0.388,0.795-0.797,1.14-1.223c-0.525-0.459-1.053-0.917-1.584-1.371c0.467-0.625,0.838-1.289,1.111-1.976
									c0.741,0.088,1.481,0.178,2.221,0.271c0.367-1.017,0.563-2.068,0.582-3.119c-0.747-0.095-1.496-0.187-2.245-0.275
									c-0.022-0.727-0.147-1.449-0.381-2.149c0.682-0.317,1.366-0.633,2.052-0.944c-0.366-0.981-0.91-1.92-1.633-2.776
									c-0.694,0.317-1.385,0.638-2.075,0.96c-0.257-0.278-0.535-0.546-0.842-0.799c-0.307-0.25-0.63-0.479-0.965-0.688
									c0.349-0.606,0.701-1.21,1.056-1.815c-1.027-0.594-2.15-1.027-3.321-1.303c-0.35,0.607-0.697,1.215-1.041,1.824
									c-0.833-0.165-1.691-0.232-2.551-0.202c-0.14-0.649-0.279-1.299-0.42-1.948c-1.246,0.082-2.488,0.326-3.671,0.73
									c0.149,0.646,0.297,1.293,0.445,1.939c-0.792,0.298-1.546,0.687-2.247,1.162c-0.574-0.427-1.15-0.849-1.73-1.271
									c-0.476,0.35-0.928,0.733-1.351,1.149c-0.422,0.416-0.801,0.853-1.135,1.303c0.58,0.415,1.158,0.833,1.733,1.253
									c-0.454,0.653-0.799,1.339-1.035,2.04c-0.766-0.032-1.532-0.062-2.301-0.088c-0.297,1.042-0.406,2.103-0.334,3.146
									c0.76,0.027,1.52,0.056,2.278,0.089c0.072,0.721,0.251,1.432,0.532,2.11c-0.651,0.361-1.3,0.726-1.947,1.093
									c0.445,0.942,1.054,1.828,1.818,2.629c0.641-0.361,1.285-0.721,1.931-1.079C110.22,239.274,110.505,239.526,110.814,239.762
									z M111.868,238.686c-3.284-2.51-3.649-6.988-0.54-10.033c3.101-3.045,8.478-3.361,11.73-0.683
									c3.261,2.677,3.191,7.193,0.121,10.069C120.102,240.917,115.159,241.196,111.868,238.686z"/>
								<path fill="#F1664A" d="M118.723,234.37c0.718-0.683,0.695-1.73-0.064-2.336c-0.76-0.608-1.969-0.537-2.688,0.155
									c-0.719,0.691-0.674,1.736,0.088,2.333C116.82,235.122,118.007,235.054,118.723,234.37z"/>
								<path fill="#F1664A" d="M113.199,230.557c-0.586,0.666-0.958,1.449-1.081,2.261c-0.244,1.631,0.527,3.224,1.977,4.177
									c1.097,0.72,2.451,1.017,3.83,0.844c1.379-0.176,2.617-0.802,3.5-1.775c0.587-0.646,0.978-1.416,1.129-2.226l0,0
									c0.301-1.62-0.394-3.252-1.848-4.244C118.435,228.041,115.016,228.482,113.199,230.557z M120.052,230.3
									c1.174,0.797,1.742,2.113,1.502,3.421c-0.119,0.654-0.434,1.275-0.907,1.8c-0.713,0.788-1.716,1.297-2.832,1.438
									c-1.117,0.142-2.215-0.1-3.1-0.684c-1.17-0.772-1.788-2.062-1.585-3.377c0.101-0.656,0.402-1.287,0.876-1.823
									C115.473,229.404,118.219,229.051,120.052,230.3z"/>
							</g>
							<g>
								<path fill="#FCB849" d="M157.684,243.71c0.089,0.102,0.185,0.195,0.285,0.283c-0.138,0.196-0.276,0.392-0.413,0.589
									c0.305,0.252,0.645,0.454,1.002,0.607c0.138-0.195,0.276-0.391,0.415-0.586c0.258,0.101,0.528,0.168,0.803,0.205
									c0.011,0.234,0.023,0.469,0.034,0.702c0.397,0.042,0.799,0.027,1.194-0.041c-0.01-0.234-0.021-0.467-0.031-0.701
									c0.267-0.056,0.529-0.145,0.78-0.263c0.157,0.184,0.314,0.37,0.47,0.555c0.172-0.09,0.337-0.191,0.499-0.307
									c0.16-0.114,0.307-0.239,0.445-0.371c-0.156-0.187-0.313-0.372-0.469-0.558c0.188-0.195,0.343-0.409,0.467-0.636
									c0.245,0.067,0.489,0.133,0.734,0.2c0.169-0.339,0.281-0.696,0.335-1.063c-0.246-0.066-0.491-0.135-0.737-0.201
									c0.028-0.256,0.019-0.514-0.028-0.77c0.242-0.078,0.482-0.156,0.724-0.233c-0.078-0.36-0.214-0.712-0.415-1.047
									c-0.243,0.077-0.484,0.155-0.726,0.235c-0.071-0.11-0.15-0.218-0.239-0.321c-0.088-0.104-0.184-0.199-0.284-0.289
									c0.144-0.194,0.289-0.388,0.433-0.582c-0.308-0.258-0.652-0.466-1.019-0.623c-0.144,0.194-0.287,0.388-0.43,0.581
									c-0.264-0.102-0.54-0.172-0.82-0.209c-0.011-0.234-0.023-0.468-0.035-0.703c-0.407-0.041-0.822-0.027-1.227,0.045
									c0.013,0.233,0.025,0.468,0.038,0.702c-0.274,0.057-0.54,0.146-0.794,0.271c-0.163-0.183-0.326-0.364-0.488-0.548
									c-0.175,0.092-0.343,0.196-0.506,0.315c-0.16,0.117-0.309,0.245-0.444,0.38c0.163,0.183,0.326,0.365,0.489,0.548
									c-0.187,0.198-0.34,0.415-0.46,0.644c-0.249-0.062-0.497-0.121-0.745-0.181c-0.162,0.342-0.264,0.705-0.305,1.07
									c0.248,0.061,0.496,0.121,0.742,0.182c-0.02,0.255-0.005,0.514,0.047,0.769c-0.238,0.083-0.475,0.167-0.712,0.251
									c0.087,0.358,0.234,0.706,0.438,1.035c0.237-0.085,0.475-0.169,0.712-0.253C157.515,243.503,157.593,243.607,157.684,243.71
									z M158.099,243.4c-0.947-1.079-0.78-2.659,0.406-3.527s2.938-0.681,3.88,0.419c0.942,1.098,0.722,2.674-0.458,3.522
									C160.747,244.663,159.048,244.479,158.099,243.4z"/>
								<path fill="#FCB849" d="M160.626,242.295c0.275-0.197,0.321-0.565,0.102-0.817c-0.219-0.254-0.622-0.297-0.896-0.097
									c-0.275,0.199-0.318,0.566-0.1,0.818C159.952,242.451,160.352,242.495,160.626,242.295z"/>
								<path fill="#FCB849" d="M161.385,242.979c0.682-0.577,0.726-1.562,0.085-2.193c-0.638-0.633-1.724-0.669-2.406-0.083
									c-0.682,0.585-0.706,1.569-0.067,2.193C159.637,243.519,160.703,243.558,161.385,242.979z M159.189,240.824
									c0.609-0.521,1.577-0.489,2.146,0.074c0.572,0.562,0.533,1.441-0.075,1.958c-0.609,0.516-1.56,0.481-2.13-0.074
									C158.56,242.226,158.582,241.346,159.189,240.824z"/>
							</g>
							<g>
								<path fill="#721E13" d="M166.738,218.828c0.079,0.086,0.163,0.165,0.251,0.241c-0.13,0.159-0.259,0.317-0.389,0.477
									c0.273,0.218,0.576,0.395,0.898,0.529c0.13-0.159,0.26-0.316,0.39-0.476c0.233,0.089,0.477,0.152,0.726,0.189
									c0.006,0.194,0.012,0.389,0.018,0.583c0.358,0.042,0.725,0.041,1.085-0.006c-0.005-0.194-0.01-0.388-0.014-0.583
									c0.243-0.039,0.483-0.105,0.713-0.2c0.139,0.157,0.278,0.313,0.417,0.472c0.157-0.069,0.311-0.15,0.458-0.241
									s0.284-0.191,0.41-0.298c-0.138-0.157-0.275-0.314-0.415-0.473c0.175-0.157,0.321-0.33,0.437-0.515
									c0.22,0.061,0.441,0.121,0.661,0.183c0.161-0.277,0.269-0.57,0.324-0.874c-0.222-0.062-0.443-0.122-0.665-0.185
									c0.03-0.209,0.027-0.425-0.01-0.638c0.22-0.059,0.439-0.119,0.659-0.177c-0.063-0.3-0.181-0.596-0.355-0.876
									c-0.221,0.059-0.441,0.117-0.662,0.177c-0.063-0.093-0.133-0.184-0.21-0.271c-0.079-0.089-0.164-0.17-0.251-0.246
									c0.134-0.157,0.268-0.315,0.401-0.472c-0.272-0.221-0.579-0.401-0.908-0.54c-0.134,0.157-0.267,0.313-0.4,0.472
									c-0.236-0.091-0.484-0.156-0.737-0.193c-0.005-0.194-0.011-0.388-0.017-0.583c-0.367-0.044-0.742-0.041-1.108,0.007
									c0.006,0.195,0.012,0.389,0.019,0.583c-0.249,0.041-0.491,0.109-0.723,0.205c-0.143-0.156-0.286-0.312-0.43-0.465
									c-0.16,0.072-0.314,0.154-0.462,0.248c-0.151,0.095-0.287,0.195-0.414,0.305c0.144,0.155,0.287,0.311,0.43,0.466
									c-0.173,0.159-0.317,0.335-0.43,0.521c-0.224-0.057-0.448-0.111-0.671-0.167c-0.155,0.278-0.256,0.576-0.302,0.879
									c0.223,0.055,0.446,0.112,0.668,0.168c-0.025,0.211-0.018,0.426,0.024,0.639c-0.218,0.062-0.435,0.127-0.652,0.191
									c0.071,0.297,0.195,0.59,0.372,0.867c0.217-0.065,0.434-0.128,0.651-0.19C166.589,218.651,166.66,218.741,166.738,218.828z
									 M167.123,218.581c-0.834-0.916-0.644-2.222,0.449-2.912c1.094-0.689,2.67-0.491,3.501,0.44
									c0.831,0.931,0.604,2.231-0.484,2.907C169.5,219.692,167.958,219.5,167.123,218.581z"/>
								<path fill="#721E13" d="M169.439,217.728c0.253-0.157,0.303-0.46,0.11-0.676c-0.195-0.214-0.557-0.261-0.812-0.102
									c-0.252,0.158-0.301,0.462-0.106,0.676C168.824,217.842,169.186,217.885,169.439,217.728z"/>
								<path fill="#721E13" d="M170.113,218.312c0.63-0.464,0.689-1.277,0.123-1.815c-0.566-0.537-1.546-0.595-2.177-0.125
									c-0.631,0.467-0.675,1.281-0.108,1.814S169.483,218.773,170.113,218.312z M168.17,216.475
									c0.562-0.418,1.436-0.367,1.939,0.113c0.506,0.479,0.454,1.204-0.108,1.618c-0.561,0.413-1.424,0.362-1.93-0.11
									C167.566,217.619,167.607,216.894,168.17,216.475z"/>
							</g>
							<g>
								<path fill="#9ABDAB" d="M143.906,215.182c0.17,0.157,0.353,0.302,0.541,0.437c-0.235,0.333-0.469,0.666-0.702,0.999
									c0.577,0.383,1.209,0.683,1.873,0.898c0.234-0.332,0.468-0.662,0.704-0.993c0.477,0.14,0.973,0.228,1.473,0.264
									c0.04,0.382,0.079,0.763,0.118,1.145c0.722,0.031,1.45-0.021,2.16-0.165c-0.037-0.383-0.074-0.764-0.109-1.145
									c0.482-0.113,0.951-0.276,1.398-0.49c0.298,0.29,0.595,0.581,0.892,0.871c0.305-0.156,0.601-0.336,0.884-0.535
									c0.282-0.199,0.544-0.412,0.782-0.637c-0.295-0.294-0.591-0.587-0.889-0.879c0.327-0.332,0.596-0.691,0.807-1.07
									c0.45,0.091,0.899,0.184,1.348,0.278c0.288-0.564,0.47-1.157,0.545-1.761c-0.453-0.095-0.906-0.188-1.358-0.279
									c0.032-0.421-0.001-0.844-0.101-1.258c0.435-0.145,0.87-0.286,1.307-0.429c-0.166-0.585-0.438-1.152-0.826-1.686
									c-0.439,0.144-0.877,0.288-1.315,0.434c-0.138-0.174-0.289-0.345-0.458-0.507c-0.171-0.161-0.351-0.312-0.54-0.452
									c0.25-0.327,0.5-0.653,0.752-0.979c-0.582-0.401-1.229-0.717-1.914-0.945c-0.25,0.327-0.499,0.655-0.747,0.983
									c-0.49-0.147-1-0.238-1.52-0.276c-0.04-0.381-0.078-0.763-0.116-1.145c-0.752-0.034-1.511,0.025-2.25,0.179
									c0.042,0.381,0.083,0.762,0.125,1.143c-0.496,0.118-0.978,0.29-1.434,0.516c-0.313-0.284-0.626-0.567-0.94-0.849
									c-0.312,0.166-0.613,0.354-0.899,0.563c-0.286,0.209-0.547,0.432-0.783,0.665c0.314,0.281,0.628,0.562,0.942,0.844
									c-0.323,0.342-0.586,0.712-0.785,1.097c-0.459-0.073-0.919-0.146-1.38-0.218c-0.265,0.576-0.418,1.177-0.462,1.78
									c0.458,0.071,0.915,0.144,1.373,0.217c-0.015,0.42,0.036,0.84,0.152,1.249c-0.426,0.162-0.851,0.324-1.275,0.485
									c0.191,0.574,0.489,1.127,0.89,1.642c0.423-0.161,0.847-0.321,1.271-0.481C143.58,214.859,143.734,215.025,143.906,215.182z
									 M144.636,214.637c-1.814-1.669-1.654-4.267,0.447-5.796c2.1-1.531,5.333-1.368,7.134,0.359
									c1.8,1.727,1.498,4.315-0.588,5.789C149.544,216.464,146.452,216.307,144.636,214.637z"/>
								<path fill="#9ABDAB" d="M149.149,212.61c0.485-0.347,0.543-0.949,0.124-1.346c-0.42-0.396-1.158-0.433-1.644-0.082
									c-0.487,0.349-0.537,0.952-0.117,1.346C147.933,212.922,148.665,212.958,149.149,212.61z"/>
								<path fill="#9ABDAB" d="M150.583,213.666c1.198-0.997,1.212-2.608-0.003-3.591c-1.215-0.983-3.208-0.951-4.407,0.066
									c-1.2,1.019-1.159,2.628,0.057,3.589C147.446,214.692,149.383,214.664,150.583,213.666z M146.414,210.33
									c1.069-0.906,2.844-0.935,3.928-0.06c1.085,0.876,1.074,2.313,0.004,3.204c-1.07,0.89-2.8,0.914-3.885,0.057
									C145.378,212.673,145.343,211.238,146.414,210.33z"/>
								<path fill="#9ABDAB" d="M151.388,214.325c1.644-1.359,1.678-3.569,0.009-4.921c-1.665-1.352-4.41-1.31-6.053,0.094
									c-1.646,1.402-1.574,3.604,0.091,4.916C147.102,215.725,149.744,215.688,151.388,214.325z M145.675,209.756
									c1.467-1.25,3.91-1.287,5.396-0.084s1.46,3.174-0.004,4.391c-1.467,1.215-3.827,1.25-5.314,0.078
									C144.267,212.97,144.208,211.004,145.675,209.756z"/>
							</g>
							<g>
								<path fill="#808184" d="M144.237,222.464c0.081,0.076,0.166,0.146,0.254,0.211c-0.11,0.161-0.22,0.32-0.33,0.48
									c0.272,0.186,0.571,0.331,0.884,0.436c0.11-0.161,0.22-0.321,0.33-0.481c0.225,0.068,0.459,0.109,0.695,0.127
									c0.02,0.183,0.041,0.366,0.061,0.549c0.34,0.016,0.684-0.014,1.02-0.087c-0.02-0.182-0.038-0.366-0.058-0.55
									c0.226-0.057,0.446-0.137,0.656-0.243c0.142,0.138,0.284,0.277,0.426,0.416c0.143-0.079,0.28-0.168,0.413-0.266
									c0.131-0.098,0.252-0.202,0.363-0.312c-0.143-0.14-0.284-0.278-0.427-0.418c0.152-0.162,0.276-0.337,0.372-0.523
									c0.212,0.043,0.423,0.084,0.635,0.126c0.13-0.274,0.21-0.562,0.239-0.854c-0.212-0.041-0.425-0.083-0.638-0.123
									c0.011-0.202-0.008-0.405-0.058-0.605c0.202-0.072,0.403-0.146,0.604-0.218c-0.083-0.278-0.216-0.549-0.4-0.805
									c-0.202,0.074-0.405,0.146-0.607,0.22c-0.066-0.083-0.137-0.164-0.218-0.24c-0.08-0.078-0.165-0.149-0.254-0.215
									c0.113-0.159,0.228-0.318,0.341-0.478c-0.272-0.189-0.574-0.337-0.893-0.443c-0.113,0.157-0.227,0.317-0.339,0.477
									c-0.23-0.068-0.467-0.111-0.707-0.128c-0.02-0.184-0.04-0.367-0.06-0.551c-0.349-0.015-0.7,0.016-1.041,0.091
									c0.021,0.184,0.041,0.366,0.062,0.55c-0.23,0.058-0.453,0.14-0.664,0.249c-0.146-0.137-0.292-0.273-0.438-0.409
									c-0.145,0.079-0.283,0.17-0.416,0.271c-0.133,0.1-0.254,0.207-0.364,0.319c0.147,0.136,0.293,0.272,0.439,0.408
									c-0.151,0.164-0.273,0.343-0.366,0.527c-0.214-0.037-0.429-0.073-0.643-0.11c-0.124,0.277-0.196,0.567-0.218,0.857
									c0.214,0.036,0.428,0.072,0.642,0.11c-0.008,0.201,0.016,0.405,0.07,0.602c-0.2,0.076-0.399,0.153-0.598,0.23
									c0.088,0.278,0.227,0.546,0.415,0.795c0.199-0.077,0.398-0.153,0.598-0.229
									C144.084,222.308,144.157,222.388,144.237,222.464z M144.581,222.201c-0.853-0.808-0.773-2.058,0.202-2.793
									c0.974-0.737,2.47-0.667,3.319,0.153s0.736,2.069-0.234,2.792C146.896,223.077,145.434,223.01,144.581,222.201z"/>
								<path fill="#808184" d="M146.69,221.219c0.227-0.169,0.249-0.459,0.052-0.648c-0.198-0.189-0.543-0.206-0.769-0.035
									c-0.226,0.169-0.248,0.458-0.049,0.647C146.122,221.371,146.464,221.389,146.69,221.219z"/>
								<path fill="#808184" d="M147.368,221.722c0.557-0.487,0.55-1.263-0.022-1.73s-1.497-0.447-2.054,0.043
									c-0.556,0.491-0.538,1.268,0.035,1.73C145.898,222.227,146.81,222.208,147.368,221.722z M145.405,220.125
									c0.497-0.438,1.321-0.455,1.831-0.038c0.511,0.416,0.516,1.109,0.02,1.544s-1.311,0.45-1.821,0.037
									C144.925,221.256,144.908,220.562,145.405,220.125z"/>
								<path fill="#808184" d="M147.749,222.036c0.763-0.665,0.759-1.73-0.026-2.371c-0.785-0.644-2.055-0.616-2.817,0.06
									c-0.764,0.675-0.735,1.736,0.049,2.37C145.74,222.728,146.986,222.701,147.749,222.036z M145.059,219.849
									c0.681-0.602,1.813-0.626,2.512-0.053c0.7,0.57,0.706,1.521,0.025,2.115c-0.68,0.593-1.793,0.616-2.493,0.052
									C144.404,221.397,144.379,220.449,145.059,219.849z"/>
							</g>
							<g>
								<path fill="#FCB849" d="M139.098,251.845c0.077,0.076,0.157,0.147,0.24,0.213c-0.097,0.167-0.194,0.332-0.29,0.498
									c0.255,0.187,0.534,0.332,0.826,0.433c0.096-0.164,0.192-0.33,0.29-0.496c0.209,0.066,0.426,0.105,0.644,0.12
									c0.023,0.188,0.047,0.376,0.07,0.564c0.314,0.01,0.63-0.026,0.937-0.104c-0.023-0.188-0.045-0.375-0.067-0.563
									c0.207-0.062,0.407-0.148,0.596-0.259c0.134,0.14,0.269,0.279,0.403,0.42c0.129-0.082,0.254-0.174,0.374-0.276
									c0.118-0.104,0.227-0.213,0.326-0.327c-0.134-0.14-0.269-0.281-0.403-0.422c0.135-0.168,0.246-0.35,0.328-0.54
									c0.197,0.039,0.393,0.078,0.589,0.117c0.112-0.283,0.177-0.579,0.198-0.878c-0.197-0.04-0.394-0.078-0.591-0.117
									c0.005-0.208-0.017-0.415-0.069-0.619c0.184-0.078,0.369-0.155,0.552-0.231c-0.082-0.286-0.212-0.562-0.389-0.82
									c-0.185,0.077-0.37,0.155-0.554,0.233c-0.063-0.084-0.131-0.166-0.207-0.244s-0.156-0.15-0.24-0.216
									c0.101-0.165,0.202-0.33,0.302-0.495c-0.256-0.189-0.539-0.337-0.835-0.442c-0.101,0.165-0.201,0.329-0.301,0.494
									c-0.213-0.065-0.433-0.106-0.656-0.12c-0.022-0.188-0.045-0.376-0.069-0.565c-0.322-0.009-0.646,0.026-0.958,0.108
									c0.023,0.188,0.047,0.375,0.071,0.563c-0.209,0.062-0.414,0.15-0.604,0.264c-0.138-0.139-0.277-0.275-0.415-0.413
									c-0.132,0.084-0.258,0.178-0.377,0.282c-0.12,0.104-0.228,0.216-0.327,0.333c0.139,0.138,0.277,0.275,0.416,0.412
									c-0.134,0.171-0.242,0.354-0.322,0.546c-0.199-0.034-0.397-0.068-0.596-0.103c-0.106,0.283-0.165,0.582-0.177,0.88
									c0.198,0.035,0.396,0.069,0.594,0.104c-0.001,0.208,0.026,0.415,0.081,0.617c-0.182,0.081-0.363,0.162-0.544,0.243
									c0.09,0.283,0.226,0.557,0.405,0.811c0.181-0.081,0.362-0.163,0.544-0.244C138.954,251.688,139.022,251.768,139.098,251.845
									z M139.408,251.571c-0.809-0.815-0.77-2.1,0.109-2.868c0.878-0.768,2.261-0.718,3.065,0.111
									c0.805,0.828,0.729,2.113-0.144,2.868C141.563,252.438,140.215,252.389,139.408,251.571z"/>
								<path fill="#FCB849" d="M141.324,250.535c0.204-0.177,0.218-0.476,0.031-0.666c-0.188-0.191-0.505-0.203-0.709-0.025
									c-0.204,0.176-0.216,0.475-0.028,0.666C140.804,250.701,141.122,250.711,141.324,250.535z"/>
								<path fill="#FCB849" d="M141.962,251.042c0.5-0.508,0.474-1.304-0.066-1.776c-0.539-0.471-1.392-0.437-1.892,0.074
									c-0.5,0.513-0.461,1.308,0.079,1.773C140.623,251.581,141.461,251.548,141.962,251.042z M140.11,249.433
									c0.447-0.457,1.207-0.485,1.688-0.066c0.481,0.42,0.505,1.131,0.06,1.583c-0.447,0.451-1.196,0.481-1.677,0.064
									C139.699,250.596,139.665,249.888,140.11,249.433z"/>
								<path fill="#FCB849" d="M142.321,251.358c0.686-0.694,0.653-1.785-0.087-2.433c-0.739-0.647-1.911-0.602-2.597,0.101
									c-0.685,0.703-0.627,1.793,0.112,2.431C140.49,252.095,141.635,252.052,142.321,251.358z M139.785,249.152
									c0.61-0.625,1.655-0.667,2.314-0.09c0.66,0.576,0.689,1.551,0.079,2.17c-0.611,0.618-1.634,0.657-2.295,0.087
									C139.223,250.75,139.173,249.778,139.785,249.152z"/>
							</g>
							<path fill="#808184" d="M178.623,238.679c0.073,0.166,0.158,0.324,0.253,0.476c-0.122,0.092-0.244,0.18-0.366,0.271
								c0.237,0.356,0.524,0.674,0.853,0.945c0.123-0.091,0.245-0.18,0.367-0.27c0.293,0.232,0.621,0.429,0.97,0.577
								c-0.039,0.141-0.079,0.278-0.119,0.417c0.406,0.166,0.839,0.279,1.282,0.333c0.041-0.141,0.082-0.278,0.123-0.417
								c0.377,0.037,0.762,0.028,1.146-0.033c0.056,0.137,0.113,0.272,0.169,0.408c0.214-0.038,0.427-0.091,0.639-0.159
								c0.21-0.069,0.413-0.15,0.604-0.244c-0.057-0.136-0.113-0.273-0.169-0.411c0.339-0.172,0.642-0.387,0.9-0.633
								c0.133,0.082,0.266,0.166,0.398,0.247c0.302-0.295,0.55-0.631,0.738-0.992c-0.133-0.083-0.266-0.166-0.399-0.249
								c0.156-0.316,0.262-0.652,0.311-1.003c0.161-0.002,0.321-0.004,0.482-0.006c0.048-0.396,0.032-0.805-0.058-1.214
								c-0.161,0.002-0.322,0.006-0.483,0.008c-0.042-0.17-0.096-0.341-0.166-0.509c-0.069-0.167-0.153-0.33-0.247-0.481
								c0.126-0.088,0.253-0.175,0.38-0.263c-0.231-0.363-0.52-0.688-0.851-0.966c-0.125,0.087-0.253,0.175-0.378,0.263
								c-0.298-0.241-0.63-0.44-0.988-0.595c0.041-0.139,0.083-0.277,0.125-0.415c-0.417-0.172-0.862-0.289-1.32-0.342
								c-0.042,0.139-0.083,0.278-0.123,0.416c-0.387-0.039-0.784-0.028-1.176,0.037c-0.06-0.136-0.12-0.271-0.181-0.407
								c-0.22,0.041-0.438,0.097-0.653,0.168c-0.215,0.071-0.42,0.156-0.615,0.252c0.062,0.137,0.122,0.271,0.182,0.407
								c-0.343,0.179-0.644,0.398-0.901,0.651c-0.138-0.079-0.275-0.158-0.412-0.238c-0.297,0.305-0.537,0.646-0.716,1.014
								c0.137,0.078,0.274,0.157,0.411,0.237c-0.148,0.319-0.244,0.659-0.282,1.008c-0.16,0.007-0.32,0.015-0.48,0.022
								c-0.036,0.397-0.005,0.804,0.095,1.209c0.16-0.008,0.319-0.017,0.479-0.023C178.49,238.344,178.547,238.513,178.623,238.679z
								 M181.109,234.593c1.739-0.577,3.713,0.247,4.368,1.824c0.656,1.576-0.229,3.29-1.938,3.848
								c-1.71,0.556-3.622-0.239-4.309-1.797C178.545,236.914,179.369,235.17,181.109,234.593z M182.774,238.444
								c0.618-0.203,0.928-0.821,0.689-1.387c-0.239-0.563-0.941-0.855-1.563-0.651c-0.622,0.206-0.925,0.829-0.682,1.391
								C181.462,238.357,182.156,238.648,182.774,238.444z M182.19,237.076c0.212-0.069,0.451,0.029,0.534,0.224
								c0.082,0.192-0.023,0.405-0.235,0.475c-0.212,0.069-0.451-0.029-0.533-0.222C181.874,237.361,181.977,237.146,182.19,237.076
								z"/>
							<g>
								<path fill="#6D6E70" d="M151.617,225.885c0.179,0.287,0.378,0.558,0.596,0.812c-0.212,0.191-0.424,0.383-0.635,0.574
									c0.532,0.598,1.153,1.112,1.837,1.535c0.211-0.189,0.423-0.381,0.636-0.57c0.612,0.367,1.276,0.653,1.973,0.854
									c-0.045,0.26-0.091,0.522-0.135,0.784c0.807,0.22,1.651,0.339,2.504,0.35c0.047-0.263,0.095-0.522,0.143-0.785
									c0.725-0.004,1.455-0.096,2.173-0.282c0.135,0.238,0.271,0.476,0.406,0.714c0.397-0.111,0.792-0.247,1.18-0.41
									c0.386-0.166,0.754-0.352,1.099-0.557c-0.133-0.239-0.267-0.479-0.402-0.719c0.611-0.376,1.146-0.823,1.594-1.32
									c0.27,0.128,0.54,0.255,0.809,0.383c0.518-0.594,0.929-1.25,1.221-1.943c-0.271-0.13-0.542-0.259-0.813-0.388
									c0.24-0.604,0.376-1.24,0.404-1.886c0.309-0.033,0.616-0.065,0.925-0.095c0.018-0.734-0.092-1.478-0.343-2.208
									c-0.31,0.031-0.621,0.063-0.931,0.096c-0.111-0.303-0.25-0.604-0.418-0.899c-0.169-0.296-0.36-0.576-0.572-0.841
									c0.227-0.182,0.454-0.363,0.682-0.545c-0.519-0.624-1.143-1.166-1.841-1.615c-0.228,0.183-0.455,0.366-0.682,0.549
									c-0.624-0.385-1.311-0.686-2.036-0.898c0.051-0.262,0.104-0.522,0.155-0.784c-0.846-0.232-1.735-0.358-2.635-0.365
									c-0.049,0.261-0.099,0.522-0.148,0.785c-0.76,0.006-1.524,0.105-2.272,0.306c-0.146-0.233-0.293-0.469-0.44-0.703
									c-0.415,0.117-0.826,0.265-1.227,0.441c-0.4,0.175-0.777,0.374-1.13,0.593c0.148,0.233,0.296,0.467,0.445,0.7
									c-0.621,0.399-1.155,0.868-1.59,1.384c-0.284-0.115-0.567-0.229-0.851-0.342c-0.503,0.618-0.884,1.296-1.139,2.004
									c0.283,0.112,0.564,0.226,0.847,0.339c-0.209,0.614-0.312,1.255-0.305,1.9c-0.305,0.049-0.61,0.099-0.916,0.148
									c0.028,0.731,0.184,1.464,0.472,2.177c0.303-0.049,0.605-0.099,0.908-0.146C151.288,225.308,151.438,225.6,151.617,225.885z
									 M155.459,217.909c3.235-1.422,7.246-0.287,8.82,2.479c1.579,2.768,0.201,6.052-2.938,7.388
									c-3.144,1.334-6.937,0.278-8.61-2.404C151.062,222.69,152.221,219.326,155.459,217.909z M159.502,224.599
									c1.14-0.489,1.61-1.68,1.032-2.663c-0.576-0.984-1.993-1.383-3.145-0.883c-1.152,0.499-1.594,1.7-1.004,2.674
									C156.974,224.699,158.363,225.088,159.502,224.599z M158.101,222.234c0.381-0.163,0.848-0.032,1.041,0.293
									c0.192,0.324,0.04,0.722-0.339,0.885c-0.378,0.162-0.843,0.032-1.037-0.291
									C157.571,222.797,157.721,222.399,158.101,222.234z M160.413,226.162c2.127-0.91,3.035-3.14,1.961-4.994
									c-1.072-1.855-3.76-2.614-5.931-1.667c-2.17,0.947-2.979,3.213-1.864,5.029C155.695,226.348,158.285,227.07,160.413,226.162
									z M156.945,220.322c1.629-0.711,3.644-0.144,4.456,1.249c0.811,1.394,0.137,3.075-1.468,3.765
									c-1.605,0.686-3.564,0.14-4.401-1.231C154.697,222.733,155.315,221.03,156.945,220.322z"/>
							</g>
							<g>
								<path fill-rule="evenodd" clip-rule="evenodd" fill="#D91C5C" d="M178.16,246.414c-0.974-1.07-7.217-7.599-11.396-11.634
									c-2.161-2.101-3.265-4.716-3.111-7.367c0.146-2.519,1.418-4.822,3.582-6.485c1.904-1.463,4.365-2.269,6.93-2.269
									c2.68,0,5.242,0.867,7.215,2.413c1.642-0.9,3.565-1.387,5.54-1.387c3.275,0,6.352,1.281,8.44,3.517
									c1.86,1.993,2.736,4.476,2.467,6.989c-0.284,2.653-1.808,5.063-4.29,6.785c-4.583,3.164-11.881,8.602-13.171,9.62
									l-1.188,0.938L178.16,246.414z"/>
								<path fill="#D3EEFB" d="M174.166,220.283c2.608,0,5.223,0.954,7.05,2.813c1.644-1.203,3.671-1.787,5.705-1.787
									c2.699,0,5.41,1.027,7.253,3.001c3.243,3.475,2.664,8.4-1.562,11.332c-4.739,3.271-12.016,8.704-13.251,9.679
									c-1.064-1.17-7.34-7.723-11.469-11.709c-3.672-3.57-3.438-8.498,0.333-11.397
									C169.914,220.918,172.038,220.283,174.166,220.283 M174.166,217.035c-2.92,0-5.733,0.925-7.919,2.604
									c-2.544,1.956-4.041,4.683-4.214,7.68c-0.182,3.129,1.096,6.19,3.596,8.622c4.163,4.02,10.364,10.503,11.33,11.565
									l2.037,2.239l2.377-1.875c1.281-1.011,8.53-6.411,13.085-9.556c2.881-1.999,4.649-4.821,4.985-7.951
									c0.32-2.99-0.708-5.927-2.894-8.27c-2.396-2.563-5.904-4.033-9.628-4.033c-1.884,0-3.73,0.392-5.386,1.125
									C179.417,217.801,176.84,217.035,174.166,217.035L174.166,217.035z"/>
							</g>
						</g>
					</g>
					<g>
						<defs>
							<path id="SVGID_5_" d="M200.362,253.718c-0.35,1.809-2.159,2.975-4.044,2.634c-28.755-5.185-58.204-5.295-87.011-0.326
								c-1.89,0.326-3.696-0.823-4.039-2.595c-2.053-10.767-4.107-21.532-6.161-32.299c-0.343-1.771,1.154-3.559,3.35-3.955
								c33.326-6.016,67.456-6.151,100.844-0.398c2.199,0.378,3.695,2.18,3.346,3.989
								C204.553,231.75,202.458,242.733,200.362,253.718z"/>
						</defs>
						<clipPath id="SVGID_6_">
							<use xlink:href="#SVGID_5_"  overflow="visible"/>
						</clipPath>
					</g>
				</g>
			</g>
		</g>
		<g>
			<g>
				<circle fill="#D3EEFB" cx="116.795" cy="388.761" r="22.192"/>
				<circle fill="#D3EEFB" cx="195.754" cy="385.139" r="22.192"/>
				<g>
					<path fill="#F1903D" d="M151.106,319.616c-18.085,0.642-41.164,9.128-41.164,9.128c-12.632,3.999-8.647,22.259-7.027,30.265
						c1.621,8.007,5.426,15.374,17.916,19.077c12.49,3.704,11.209,17.754,11.53,23.626s7.542,7.899,7.542,7.899
						s7.881-0.265,15.55-0.796l6.258-89.263C158.354,319.469,154.808,319.485,151.106,319.616z"/>
					<path fill="#FCB849" d="M200.276,337.552c-0.301-6.085-3.862-10.249-10.268-13.371c-5.094-2.483-15.255-4.308-28.298-4.628
						l-6.258,89.263c4.251-0.294,8.436-0.669,11.177-1.126c7.687-1.28,8.327-14.092,9.608-18.718
						c1.281-4.627,5.125-11.066,13.772-18.205c8.647-7.141,10.268-21.365,10.268-21.365S200.578,343.637,200.276,337.552z"/>
				</g>
			</g>
			<circle fill="#231F20" cx="155.7" cy="329.188" r="2.197"/>
			<circle fill="#231F20" cx="154.995" cy="338.833" r="2.196"/>
			<circle fill="#231F20" cx="154.29" cy="348.478" r="2.197"/>
			<circle fill="#231F20" cx="153.584" cy="358.124" r="2.197"/>
			<circle fill="#231F20" cx="152.879" cy="367.77" r="2.197"/>
			<circle fill="#231F20" cx="152.174" cy="377.415" r="2.197"/>
			<circle fill="#231F20" cx="151.468" cy="387.061" r="2.197"/>
			<circle fill="#231F20" cx="150.763" cy="396.707" r="2.197"/>
			<circle fill="#231F20" cx="165.662" cy="329.188" r="2.197"/>
			<circle fill="#231F20" cx="164.956" cy="338.833" r="2.197"/>
			<circle fill="#231F20" cx="164.251" cy="348.478" r="2.197"/>
			<circle fill="#231F20" cx="163.546" cy="358.124" r="2.197"/>
			<circle fill="#231F20" cx="162.84" cy="367.77" r="2.197"/>
			<circle fill="#231F20" cx="162.135" cy="377.415" r="2.197"/>
			<circle fill="#231F20" cx="161.429" cy="387.061" r="2.197"/>
			<circle fill="#231F20" cx="160.724" cy="396.707" r="2.197"/>
		</g>
	</g>
</g>
<g id="arm-1">
	<g>
		<g>
			<g>
				<polygon fill="#F1903D" points="243.597,167.377 350.299,98.812 332.965,78.823 236.352,157.098 				"/>
				<polygon fill="#FCB849" points="231.987,150.906 236.352,157.098 332.965,78.823 323.46,67.861 				"/>
			</g>
			<g>
				<path fill="#F1903D" d="M323.014,39.023l18.325-17.564l5.709,9.67c0,0,3.188,8.315-1.478,11.04
					c-4.668,2.724-11.473,2.62-11.473,2.62L323.014,39.023z"/>
				<path fill="#F1903D" d="M354.172,49.83l2.164-14.277c0,0,2.402-5.984,7.224-6.746c4.822-0.761,14.942-0.607,14.942-0.607
					s3.314,1.042,3.104,4.468l-9.109,27.389L354.172,49.83z"/>
				<polygon fill="#FCB849" points="317.128,58.821 322.196,37.348 337.746,45.32 328.779,60.738 				"/>
				<polygon fill="#FCB849" points="345.837,68.394 353.075,48.002 374.918,59.065 360.272,84.95 				"/>
				<polygon fill="#F1903D" points="317.159,65.877 316.077,57.308 331.108,59.121 333.608,73.652 				"/>
				<path fill="#F1903D" d="M329.352,70.008c0,0,16.115-4.382,16.365-4.769c0.249-0.386,16.718,19.59,16.718,19.59l-5.361,11.665
					L329.352,70.008z"/>
				<path fill="#B86028" d="M311.222,78.77l2.127-12.66c0,0,2.728-3.449,4.465-3.101c1.735,0.347,20.374,7.547,27.517,14.348
					c7.141,6.8,14.776,15.306,15.133,19.546c0.357,4.24-0.636,5.793-3.931,8.255c-3.296,2.462-9.081,6.309-9.081,6.309
					s-3.52,3.307-5.923,1.871c-2.406-1.437-7.593-4.18-7.593-4.18l3.417-2.196c0,0,2.231-1.913-2.072-7.023
					C331.993,96.032,322.199,81.154,311.222,78.77z"/>
			</g>
		</g>
		<path fill="#B86028" d="M257.344,150.484c-2.877-7.056-10.928-10.44-17.981-7.563c-5.125,2.091-8.311,6.911-8.568,12.097
			L22.899,223.273l-1.586,0.657c-1.418,0.896-2.363,2.474-2.363,4.276c0,2.794,2.265,5.06,5.06,5.06c0.917,0,1.882-0.464,2.849-0.88
			l207.025-67.968c3.733,4.576,10.147,6.395,15.901,4.047C256.838,165.588,260.223,157.537,257.344,150.484z"/>
		<circle fill="#D3EEFB" cx="244.699" cy="155.818" r="15.778"/>
	</g>
</g>
</svg>
