<?xml version="1.0" encoding="utf-8"?>
<!-- Generator: Adobe Illustrator 16.0.0, SVG Export Plug-In . SVG Version: 6.00 Build 0)  -->
<!DOCTYPE svg PUBLIC "-//W3C//DTD SVG 1.1//EN" "http://www.w3.org/Graphics/SVG/1.1/DTD/svg11.dtd">
<svg version="1.1" xmlns="http://www.w3.org/2000/svg" xmlns:xlink="http://www.w3.org/1999/xlink" x="0px" y="0px"
	 width="413.825px" height="600px" viewBox="0 0 413.825 600" enable-background="new 0 0 413.825 600" xml:space="preserve">
<g id="bg">
</g>
<g id="head">
	<g>
		<g>
			<polygon fill="#414042" points="137.074,106.006 144.723,129.153 259.051,129.153 270.926,112.246 163.442,101.779 			"/>
			<path fill="#E8B634" d="M159.747,1.256l-38.904,18.973c0,0-3.055,1.125-3.055,4.18s0.322,82.31,0.322,82.31
				s2.25,13.438,15.888,11.864l34.618-12.064L159.747,1.256z"/>
			<path d="M287.723,113.097c0,2.607-2.113,4.584-4.721,4.416l-121.487-7.852c-2.608-0.168-4.721-2.419-4.721-5.026V5.682
				c0-2.607,2.113-4.583,4.721-4.415l121.487,7.852c2.607,0.169,4.721,2.419,4.721,5.026V113.097z"/>
			<path fill="#F2913D" d="M277.455,27.859c0-4.089-3.314-7.618-7.403-7.882l-96.439-6.233c-4.089-0.264-7.404,2.836-7.404,6.925
				v70.196c0,4.089,3.314,7.619,7.404,7.882l96.439,6.233c4.089,0.264,7.403-2.836,7.403-6.926V27.859z"/>
			<path fill="#D4EFFC" d="M265.188,84.387c0,6.159-4.992,10.828-11.151,10.43l-66.98-4.329c-6.158-0.398-11.15-5.713-11.15-11.872
				V37.594c0-6.159,4.992-10.828,11.15-10.43l66.98,4.328c6.159,0.398,11.151,5.713,11.151,11.872V84.387z"/>
			<path d="M194.602,136.967v5.274c0,1.349,2.704,2.443,6.041,2.443c3.337,0,6.04-1.094,6.04-2.443v-5.274H194.602z"/>
			<path d="M192.286,132.286v5.204c0,1.866,3.742,3.379,8.356,3.379c4.615,0,8.357-1.513,8.357-3.379v-5.204H192.286z"/>
			<ellipse cx="200.643" cy="124.953" rx="12.505" ry="5.058"/>
			<path d="M200.643,124.728c-5.549,0-10.046,1.507-10.046,3.365l0,0v3.113c0,2.244,4.497,4.062,10.045,4.062
				c5.549,0,10.046-1.818,10.046-4.062v-3.113l0,0C210.688,126.234,206.191,124.728,200.643,124.728z"/>
		</g>
		<path d="M222.258,36.765c-11.391,0-20.81,8.431-22.366,19.393l44.962,3.082C244.788,46.815,234.698,36.765,222.258,36.765z"/>
		<path fill="#FFFFFF" d="M199.892,56.157c-0.148,1.048-0.23,2.117-0.23,3.206c0,12.48,10.117,22.598,22.597,22.598
			c12.481,0,22.599-10.118,22.599-22.598c0-0.042-0.003-0.082-0.003-0.124L199.892,56.157z"/>
		<g>
			<path d="M222.258,48.757c-5.044,0-9.258,3.526-10.331,8.246l20.893,1.467C232.366,53.032,227.816,48.757,222.258,48.757z"/>
			<path fill="#00AEEF" d="M211.927,57.002c-0.174,0.76-0.274,1.548-0.274,2.36c0,5.857,4.749,10.606,10.605,10.606
				c5.858,0,10.607-4.749,10.607-10.606c0-0.301-0.021-0.598-0.046-0.894L211.927,57.002z"/>
		</g>
	</g>
</g>
<g id="right_arm">
	<g>
		<g>
			<circle fill="#D4EFFC" cx="311.916" cy="162.573" r="20.779"/>
			<polygon fill="#BA834E" points="289.722,188.178 297.701,188.178 297.701,136.97 286.383,136.97 			"/>
			<polygon fill="#F2913D" points="297.701,188.178 301.782,188.178 313.841,136.97 297.701,136.97 			"/>
		</g>
		<g>
			<g>
				<polygon fill="#FDB949" points="366.307,284.641 354.519,286.482 366.012,419.299 392.071,417.899 				"/>
				<polygon fill="#F2913D" points="343.856,288.146 347.158,420.313 366.012,419.299 354.519,286.482 				"/>
			</g>
			<g>
				<path fill="#F2913D" d="M325.044,440.483l-0.057,27.163l11.705-2.726c0,0,8.791-3.675,7.452-9.302
					c-1.339-5.625-6.449-10.816-6.449-10.816L325.044,440.483z"/>
				<path fill="#F2913D" d="M356.431,456.618l-9.453,12.224c0,0-2.858,6.282,0.117,10.577c2.973,4.295,10.568,12.015,10.568,12.015
					s3.257,1.796,5.753-0.897l14.472-27.289L356.431,456.618z"/>
				<polygon fill="#FDB949" points="336.022,421.298 323.143,441.087 340.804,447.234 346.114,428.902 				"/>
				<polygon fill="#FDB949" points="364.644,436.45 354.207,457.118 378.91,465.851 388.125,435.392 				"/>
				<polygon fill="#F2913D" points="341.507,416.109 334.074,421.603 346.583,431.901 359.678,423.098 				"/>
				<path fill="#F2913D" d="M353.712,422.495c0,0,8.515,15.715,8.4,16.193c-0.115,0.479,27.516-1.534,27.516-1.534l5.069-12.768
					L353.712,422.495z"/>
				<path fill="#B86028" d="M346.705,402.142l-7.407,8.766c0,0-3.505,5.933,0.471,7.829c1.71,0.813,20.898,10.195,31.438,10.698
					c10.541,0.504,22.765,0.13,26.312-2.729c3.546-2.855,4.014-4.771,3.485-9.141c-0.529-4.371-1.825-11.693-1.825-11.693
					s-0.039-5.165-2.929-5.966c-2.89-0.802-8.699-5.388-8.699-5.388l1.315,6.8c0,0,0.177,4.602-6.429,5.545
					C377.028,407.635,356.662,408.878,346.705,402.142z"/>
			</g>
		</g>
		<g>
			<polygon fill="#F2913D" points="350.368,288.539 359.753,285.783 323.702,162.827 314.316,165.583 			"/>
			<circle fill="#D4EFFC" cx="355.033" cy="283.684" r="13.634"/>
		</g>
	</g>
</g>
<g id="body">
	<g>
		<g>
			<path d="M268.667,251.073c0.016,3.693-3.039,6.795-6.823,6.93l-108.389,3.842c-3.783,0.135-6.862-2.75-6.877-6.444l-0.01-2.539
				c-0.016-3.693,3.04-6.796,6.823-6.931l108.391-3.843c3.783-0.134,6.861,2.751,6.877,6.444L268.667,251.073z"/>
			<g>
				<path d="M277.391,239.511c0.015,3.694-3.04,6.796-6.824,6.931l-137.871,4.889c-3.783,0.133-6.862-2.751-6.877-6.444l-0.011-2.54
					c-0.015-3.694,3.04-6.796,6.823-6.931l137.871-4.888c3.783-0.134,6.863,2.751,6.879,6.444L277.391,239.511z"/>
				<path d="M260.913,261.045c0.016,3.693-3.041,6.795-6.823,6.93l-91.741,3.253c-3.783,0.134-6.862-2.751-6.877-6.444l-0.01-2.54
					c-0.015-3.693,3.039-6.796,6.823-6.931l91.741-3.252c3.783-0.134,6.863,2.751,6.878,6.444L260.913,261.045z"/>
				<path d="M253.667,270.481c0.015,3.693-3.04,6.796-6.823,6.93l-71.97,2.552c-3.783,0.134-6.862-2.751-6.878-6.444l-0.011-2.54
					c-0.015-3.693,3.04-6.796,6.823-6.931l71.969-2.551c3.784-0.135,6.863,2.751,6.88,6.444L253.667,270.481z"/>
			</g>
		</g>
		<path fill="#F2913D" d="M157.876,122.273c0,0-64.202,0.143-68.277,31.92l-4.769,62.242c0,0-4.5,19.386,7.617,26.31
			c12.116,6.924,27.002,14.539,58.159,5.192c31.156-9.347,41.543-14.539,55.043-15.578c1.678-0.129,3.548-0.226,5.563-0.289
			l-7.933-110.099C178.4,122.019,157.876,122.273,157.876,122.273z"/>
		<path fill="#FDB949" d="M308.121,225.782l-10.731-76.853c0,0-5.539-25.963-44.658-26.656c-15.381-0.272-33.33-0.33-49.45-0.301
			l7.933,110.099c14.208-0.438,35.665,0.848,48.096,4.789C273.502,241.36,309.852,255.9,308.121,225.782z"/>
	</g>
	<g>
		<circle cx="197.883" cy="126.825" r="1.231"/>
		<circle cx="198.256" cy="132.289" r="1.231"/>
		<circle cx="198.63" cy="137.751" r="1.23"/>
		<circle cx="199.004" cy="143.215" r="1.231"/>
		<circle cx="199.378" cy="148.678" r="1.231"/>
		<circle cx="199.751" cy="154.141" r="1.231"/>
		<circle cx="200.125" cy="159.604" r="1.231"/>
		<circle cx="200.5" cy="165.067" r="1.232"/>
		<circle cx="200.873" cy="170.53" r="1.231"/>
		<circle cx="201.247" cy="175.994" r="1.231"/>
		<circle cx="201.621" cy="181.457" r="1.232"/>
		<circle cx="201.995" cy="186.92" r="1.23"/>
		<circle cx="202.369" cy="192.383" r="1.231"/>
		<circle cx="202.742" cy="197.846" r="1.23"/>
		<circle cx="203.117" cy="203.31" r="1.231"/>
		<circle cx="203.489" cy="208.772" r="1.231"/>
		<circle cx="203.864" cy="214.236" r="1.231"/>
		<circle cx="204.237" cy="219.698" r="1.232"/>
		<circle cx="204.611" cy="225.162" r="1.231"/>
	</g>
	<g>
		<circle cx="208.267" cy="126.825" r="1.231"/>
		<circle cx="208.64" cy="132.289" r="1.231"/>
		<path d="M210.245,137.667c0.046,0.679-0.468,1.266-1.147,1.313c-0.677,0.045-1.264-0.466-1.31-1.145
			c-0.048-0.678,0.465-1.266,1.144-1.312C209.61,136.477,210.197,136.989,210.245,137.667z"/>
		<circle cx="209.388" cy="143.215" r="1.231"/>
		<circle cx="209.762" cy="148.678" r="1.23"/>
		<circle cx="210.136" cy="154.141" r="1.231"/>
		<circle cx="210.51" cy="159.604" r="1.231"/>
		<circle cx="210.884" cy="165.067" r="1.232"/>
		<circle cx="211.258" cy="170.53" r="1.23"/>
		<circle cx="211.631" cy="175.994" r="1.231"/>
		<circle cx="212.005" cy="181.457" r="1.232"/>
		<circle cx="212.379" cy="186.92" r="1.231"/>
		<circle cx="212.753" cy="192.383" r="1.23"/>
		<circle cx="213.126" cy="197.846" r="1.23"/>
		<circle cx="213.5" cy="203.31" r="1.231"/>
		<circle cx="213.875" cy="208.772" r="1.231"/>
		<circle cx="214.249" cy="214.236" r="1.23"/>
		<circle cx="214.623" cy="219.698" r="1.231"/>
		<circle cx="214.996" cy="225.162" r="1.231"/>
	</g>
	<path fill-rule="evenodd" clip-rule="evenodd" d="M166.532,192.943c-2.718,0.454-5.344-1.297-5.862-3.962
		c-2.319-12.158-4.638-24.315-6.957-36.473c-0.518-2.663,1.654-5.343,4.85-5.905c36.417-6.412,73.671-6.555,110.152-0.422
		c3.202,0.538,5.371,3.241,4.843,5.959c-2.366,12.403-4.732,24.807-7.099,37.21c-0.527,2.719-3.157,4.495-5.869,4.016
		C229.5,187.87,197.688,187.726,166.532,192.943z"/>
	<path fill-rule="evenodd" clip-rule="evenodd" fill="#D4EFFC" d="M264.984,189.328c-0.396,2.043-2.363,3.373-4.401,3.004
		c-31.074-5.623-62.902-5.762-94.041-0.41c-2.042,0.35-4.008-0.961-4.396-2.963c-2.319-12.158-4.638-24.315-6.958-36.473
		c-0.388-2.001,1.23-4.004,3.618-4.435c36.243-6.533,73.357-6.673,109.665-0.409c2.391,0.412,4.006,2.434,3.61,4.476
		C269.716,164.521,267.35,176.924,264.984,189.328z"/>
	<g>
		<g>
			<defs>
				<path id="SVGID_1_" d="M267.263,189.52c-0.395,2.043-2.438,3.359-4.568,2.976c-32.473-5.855-65.728-5.98-98.258-0.369
					c-2.134,0.368-4.173-0.929-4.561-2.931c-2.32-12.158-4.639-24.315-6.958-36.473c-0.387-2.001,1.304-4.019,3.784-4.466
					c37.635-6.792,76.176-6.946,113.881-0.45c2.483,0.427,4.174,2.462,3.778,4.504C271.995,164.714,269.628,177.117,267.263,189.52z
					"/>
			</defs>
			<clipPath id="SVGID_2_">
				<use xlink:href="#SVGID_1_"  overflow="visible"/>
			</clipPath>
		</g>
		<g>
			<defs>
				<path id="SVGID_3_" d="M267.263,189.52c-0.395,2.043-2.438,3.359-4.568,2.976c-32.473-5.855-65.728-5.98-98.258-0.369
					c-2.134,0.368-4.173-0.929-4.561-2.931c-2.32-12.158-4.639-24.315-6.958-36.473c-0.387-2.001,1.304-4.019,3.784-4.466
					c37.635-6.792,76.176-6.946,113.881-0.45c2.483,0.427,4.174,2.462,3.778,4.504C271.995,164.714,269.628,177.117,267.263,189.52z
					"/>
			</defs>
			<clipPath id="SVGID_4_">
				<use xlink:href="#SVGID_3_"  overflow="visible"/>
			</clipPath>
			<g clip-path="url(#SVGID_4_)">
				<path fill="#414042" d="M237.97,171.63c-0.257-0.177-0.524-0.334-0.8-0.473c0.084-0.222,0.168-0.444,0.252-0.665
					c-0.666-0.32-1.369-0.539-2.084-0.659c-0.084,0.223-0.166,0.445-0.247,0.668c-0.633-0.095-1.272-0.104-1.898-0.03
					c-0.082-0.225-0.162-0.449-0.243-0.674c-0.724,0.099-1.429,0.297-2.087,0.591c0.082,0.224,0.164,0.448,0.247,0.672
					c-0.553,0.257-1.065,0.591-1.521,0.998c-0.213-0.139-0.425-0.277-0.638-0.415c-0.25,0.231-0.482,0.483-0.695,0.755
					c-0.214,0.272-0.4,0.554-0.561,0.843c0.213,0.137,0.425,0.274,0.637,0.413c-0.277,0.521-0.46,1.067-0.556,1.621
					c-0.257,0.001-0.515,0.003-0.771,0.005c-0.097,0.656-0.081,1.321,0.037,1.97c0.255-0.002,0.511-0.004,0.767-0.005
					c0.112,0.56,0.312,1.105,0.593,1.62c-0.204,0.139-0.408,0.277-0.611,0.416c0.33,0.576,0.755,1.113,1.267,1.592
					c0.204-0.138,0.407-0.276,0.609-0.414c0.219,0.197,0.453,0.382,0.706,0.554c0.253,0.171,0.514,0.323,0.781,0.455
					c-0.077,0.224-0.155,0.447-0.232,0.67c0.644,0.307,1.318,0.517,2.002,0.632c0.079-0.223,0.16-0.446,0.239-0.668
					c0.605,0.091,1.22,0.101,1.824,0.032c0.075,0.226,0.15,0.451,0.225,0.676c0.693-0.091,1.374-0.277,2.016-0.558
					c-0.075-0.225-0.148-0.452-0.223-0.678c0.541-0.246,1.049-0.565,1.503-0.958c0.204,0.146,0.405,0.292,0.606,0.438
					c0.25-0.225,0.487-0.467,0.708-0.731c0.22-0.263,0.415-0.537,0.585-0.819c-0.201-0.147-0.404-0.293-0.607-0.439
					c0.295-0.512,0.5-1.051,0.617-1.603c0.256,0.011,0.513,0.021,0.77,0.031c0.127-0.652,0.146-1.319,0.057-1.974
					c-0.259-0.011-0.517-0.021-0.774-0.031c-0.089-0.565-0.269-1.12-0.536-1.645c0.213-0.13,0.426-0.261,0.641-0.392
					c-0.314-0.591-0.73-1.146-1.246-1.644c-0.214,0.132-0.429,0.264-0.643,0.396C238.465,172,238.228,171.808,237.97,171.63z
					 M238.393,179.296c-1.777,2.135-5.048,2.545-7.412,0.94c-2.362-1.607-2.961-4.667-1.229-6.862
					c1.729-2.194,5.168-2.644,7.575-0.979C239.739,174.061,240.167,177.161,238.393,179.296z M232.557,175.24
					c-0.629,0.783-0.432,1.887,0.423,2.47c0.854,0.585,2.049,0.433,2.683-0.342c0.632-0.773,0.459-1.883-0.402-2.475
					C234.401,174.301,233.184,174.459,232.557,175.24z M234.645,176.666c-0.216,0.266-0.628,0.318-0.921,0.118
					s-0.357-0.58-0.141-0.847c0.215-0.267,0.628-0.32,0.922-0.118C234.801,176.02,234.861,176.399,234.645,176.666z"/>
				<g>
					<path fill="#808285" d="M249.696,178.279c-0.39-0.149-0.782-0.267-1.178-0.358c0.02-0.311,0.038-0.622,0.057-0.933
						c-0.953-0.202-1.911-0.261-2.847-0.188c-0.015,0.311-0.031,0.623-0.046,0.935c-0.822,0.077-1.617,0.27-2.364,0.564
						c-0.188-0.262-0.376-0.524-0.564-0.787c-0.857,0.357-1.649,0.836-2.349,1.424c0.19,0.26,0.38,0.52,0.568,0.78
						c-0.581,0.507-1.084,1.097-1.486,1.762c-0.315-0.108-0.63-0.217-0.945-0.325c-0.218,0.376-0.407,0.773-0.565,1.189
						c-0.157,0.417-0.278,0.837-0.364,1.258c0.312,0.107,0.625,0.215,0.938,0.324c-0.144,0.754-0.161,1.513-0.07,2.253
						c-0.314,0.084-0.63,0.169-0.943,0.254c0.128,0.871,0.392,1.717,0.774,2.511c0.312-0.085,0.624-0.168,0.938-0.251
						c0.342,0.682,0.783,1.318,1.314,1.888c-0.202,0.242-0.401,0.485-0.601,0.728c0.611,0.634,1.32,1.189,2.116,1.642
						c0.201-0.242,0.401-0.482,0.604-0.723c0.335,0.184,0.689,0.348,1.058,0.489c0.372,0.141,0.744,0.254,1.12,0.34
						c-0.019,0.311-0.035,0.623-0.054,0.934c0.897,0.193,1.798,0.251,2.683,0.187c0.021-0.311,0.041-0.622,0.062-0.934
						c0.779-0.071,1.541-0.249,2.263-0.525c0.172,0.267,0.342,0.535,0.51,0.803c0.828-0.333,1.605-0.783,2.308-1.339
						c-0.169-0.27-0.339-0.538-0.508-0.807c0.583-0.483,1.104-1.051,1.534-1.696c0.301,0.125,0.602,0.25,0.902,0.376
						c0.236-0.365,0.446-0.751,0.628-1.158c0.181-0.407,0.329-0.82,0.441-1.237c-0.304-0.127-0.607-0.254-0.911-0.38
						c0.184-0.748,0.247-1.506,0.195-2.254c0.324-0.066,0.647-0.13,0.972-0.195c-0.076-0.881-0.296-1.744-0.647-2.562
						c-0.326,0.066-0.651,0.131-0.979,0.199c-0.318-0.701-0.748-1.359-1.279-1.952c0.217-0.235,0.435-0.469,0.651-0.704
						c-0.616-0.663-1.345-1.247-2.177-1.726c-0.217,0.235-0.433,0.472-0.648,0.708C250.455,178.6,250.084,178.426,249.696,178.279z
						 M253.047,188.007c-1.461,3.299-5.367,4.836-8.833,3.518c-3.464-1.321-5.314-5.048-4.026-8.412
						c1.287-3.361,5.366-5.037,9.001-3.65C252.829,180.847,254.505,184.712,253.047,188.007z M241.575,183.605
						c-1.029,2.642,0.415,5.587,3.155,6.631c2.741,1.044,5.829-0.178,6.966-2.779c1.132-2.599-0.202-5.631-3.051-6.713
						C245.798,179.659,242.602,180.966,241.575,183.605z M247.454,185.788c-0.169,0.409-0.659,0.606-1.096,0.44
						c-0.434-0.166-0.654-0.632-0.486-1.043c0.169-0.41,0.659-0.608,1.099-0.442C247.409,184.911,247.625,185.378,247.454,185.788z"
						/>
				</g>
				<g>
					<path fill="#F2913D" d="M255.172,150.995c-0.188-0.083-0.382-0.153-0.575-0.214c0.051-0.313,0.101-0.626,0.15-0.939
						c-0.585-0.164-1.185-0.247-1.772-0.255c-0.05,0.312-0.097,0.625-0.146,0.938c-0.415,0.006-0.824,0.062-1.215,0.157
						c-0.183-0.283-0.364-0.567-0.547-0.85c-0.559,0.156-1.085,0.386-1.56,0.68c0.184,0.282,0.366,0.564,0.548,0.847
						c-0.315,0.21-0.598,0.458-0.839,0.738c-0.34-0.143-0.681-0.286-1.021-0.428c-0.16,0.203-0.306,0.417-0.431,0.647
						c-0.126,0.228-0.229,0.461-0.309,0.695c0.34,0.142,0.677,0.284,1.016,0.427c-0.102,0.34-0.149,0.686-0.146,1.029
						c-0.363,0.051-0.729,0.104-1.093,0.156c0.029,0.504,0.146,1.003,0.345,1.479c0.362-0.052,0.727-0.103,1.089-0.154
						c0.148,0.328,0.346,0.64,0.586,0.929c-0.251,0.224-0.503,0.449-0.753,0.674c0.355,0.397,0.782,0.755,1.271,1.059
						c0.252-0.225,0.504-0.449,0.756-0.673c0.168,0.099,0.344,0.189,0.529,0.27c0.185,0.081,0.373,0.15,0.562,0.208
						c-0.049,0.313-0.098,0.626-0.144,0.939c0.569,0.161,1.147,0.241,1.72,0.251c0.049-0.313,0.098-0.626,0.147-0.939
						c0.405-0.005,0.804-0.056,1.189-0.149c0.173,0.286,0.345,0.571,0.518,0.857c0.546-0.148,1.065-0.367,1.538-0.652
						c-0.172-0.286-0.344-0.572-0.516-0.859c0.312-0.204,0.597-0.446,0.846-0.72c0.33,0.151,0.661,0.304,0.993,0.457
						c0.165-0.197,0.315-0.409,0.448-0.633c0.131-0.225,0.242-0.454,0.331-0.686c-0.332-0.154-0.665-0.307-0.998-0.46
						c0.113-0.337,0.173-0.682,0.177-1.026c0.367-0.041,0.734-0.081,1.103-0.121c-0.01-0.506-0.111-1.01-0.298-1.493
						c-0.369,0.04-0.737,0.08-1.105,0.121c-0.143-0.332-0.335-0.649-0.575-0.944c0.261-0.219,0.521-0.438,0.783-0.656
						c-0.354-0.407-0.785-0.776-1.282-1.091c-0.262,0.22-0.523,0.44-0.783,0.66C255.54,151.172,255.361,151.079,255.172,150.995z
						 M254.829,151.587c2.007,0.884,2.818,2.959,1.85,4.61c-0.97,1.652-3.322,2.277-5.289,1.416
						c-1.965-0.861-2.834-2.899-1.905-4.574C250.413,151.362,252.823,150.702,254.829,151.587z"/>
					<path fill="#F2913D" d="M252.26,154.23c-0.222,0.388-0.023,0.864,0.438,1.066c0.461,0.202,1.011,0.054,1.232-0.332
						c0.221-0.386,0.029-0.864-0.435-1.067C253.033,153.693,252.479,153.844,252.26,154.23z"/>
					<path fill="#F2913D" d="M250.788,153.779c-0.477,1.071,0.169,2.301,1.43,2.753c1.262,0.452,2.68-0.039,3.176-1.102
						c0.496-1.064-0.132-2.31-1.41-2.768C252.705,152.203,251.266,152.709,250.788,153.779z M255.144,155.338
						c-0.44,0.95-1.707,1.388-2.832,0.985c-1.124-0.403-1.701-1.502-1.272-2.456c0.427-0.955,1.707-1.406,2.847-0.997
						C255.026,153.28,255.585,154.391,255.144,155.338z"/>
				</g>
				<g>
					<path fill="#6D6E71" d="M259.971,160.73c-0.209-0.099-0.423-0.184-0.637-0.256c0.064-0.357,0.128-0.715,0.192-1.073
						c-0.648-0.199-1.314-0.306-1.969-0.325c-0.062,0.357-0.124,0.714-0.186,1.072c-0.463,0-0.919,0.055-1.357,0.159
						c-0.195-0.328-0.39-0.655-0.588-0.983c-0.626,0.17-1.218,0.422-1.752,0.752c0.197,0.326,0.394,0.652,0.589,0.979
						c-0.354,0.235-0.672,0.514-0.951,0.833c-0.373-0.17-0.748-0.339-1.123-0.507c-0.183,0.23-0.348,0.475-0.494,0.733
						c-0.144,0.258-0.263,0.524-0.359,0.792c0.374,0.167,0.749,0.334,1.122,0.502c-0.123,0.389-0.183,0.785-0.186,1.178
						c-0.406,0.053-0.812,0.106-1.218,0.161c0.021,0.579,0.141,1.152,0.352,1.7c0.402-0.054,0.805-0.107,1.21-0.16
						c0.159,0.376,0.37,0.737,0.63,1.072c-0.283,0.252-0.567,0.506-0.851,0.759c0.387,0.462,0.852,0.878,1.385,1.234
						c0.284-0.253,0.568-0.505,0.854-0.757c0.184,0.114,0.377,0.221,0.58,0.317c0.203,0.096,0.411,0.179,0.616,0.249
						c-0.06,0.357-0.12,0.716-0.182,1.073c0.627,0.193,1.266,0.295,1.899,0.316c0.062-0.357,0.127-0.714,0.189-1.07
						c0.449,0.001,0.894-0.05,1.322-0.149c0.185,0.331,0.368,0.661,0.552,0.991c0.608-0.161,1.19-0.401,1.721-0.716
						c-0.181-0.332-0.362-0.663-0.546-0.994c0.354-0.228,0.677-0.499,0.957-0.809c0.364,0.18,0.729,0.361,1.091,0.542
						c0.188-0.224,0.362-0.462,0.516-0.716c0.155-0.253,0.282-0.514,0.389-0.778c-0.365-0.183-0.729-0.365-1.096-0.545
						c0.135-0.384,0.211-0.779,0.227-1.172c0.408-0.04,0.818-0.078,1.228-0.115c0.003-0.581-0.094-1.16-0.287-1.718
						c-0.412,0.039-0.825,0.077-1.236,0.117c-0.149-0.383-0.354-0.75-0.611-1.092c0.296-0.246,0.592-0.49,0.891-0.735
						c-0.386-0.475-0.854-0.906-1.4-1.275c-0.297,0.247-0.594,0.493-0.889,0.74C260.376,160.939,260.177,160.83,259.971,160.73z
						 M259.572,161.401c2.212,1.051,3.055,3.442,1.932,5.313c-1.123,1.874-3.747,2.543-5.905,1.524
						c-2.157-1.021-3.078-3.367-2.008-5.272C254.66,161.064,257.361,160.35,259.572,161.401z"/>
					<path fill="#E6A5AA" d="M256.648,164.38c-0.254,0.441-0.047,0.99,0.459,1.229s1.122,0.081,1.38-0.358
						c0.256-0.438,0.053-0.99-0.456-1.23C257.522,163.78,256.901,163.941,256.648,164.38z"/>
					<path fill="#E6A5AA" d="M255.022,163.84c-0.555,1.217,0.134,2.637,1.521,3.177c1.388,0.539,2.976,0.004,3.557-1.204
						c0.579-1.209-0.087-2.648-1.497-3.197C257.19,162.065,255.58,162.621,255.022,163.84z M259.826,165.704
						c-0.516,1.079-1.934,1.556-3.174,1.074c-1.237-0.48-1.85-1.748-1.352-2.833c0.495-1.086,1.935-1.58,3.189-1.091
						C259.749,163.343,260.34,164.625,259.826,165.704z"/>
					<path fill="#E6A5AA" d="M254.078,163.483c-0.756,1.673,0.193,3.613,2.089,4.349c1.896,0.736,4.066,0.009,4.868-1.645
						c0.799-1.653-0.106-3.632-2.046-4.387S254.834,161.812,254.078,163.483z M260.66,166.037c-0.712,1.476-2.65,2.126-4.344,1.469
						s-2.536-2.39-1.859-3.88c0.676-1.49,2.649-2.171,4.378-1.499S261.371,164.562,260.66,166.037z"/>
				</g>
				<g>
					<path fill="#F2913D" d="M236.043,184.88c-0.092-0.108-0.188-0.208-0.29-0.302c0.144-0.203,0.287-0.406,0.431-0.609
						c-0.312-0.27-0.66-0.488-1.032-0.651c-0.143,0.203-0.287,0.407-0.428,0.611c-0.268-0.107-0.547-0.179-0.829-0.218
						c-0.014-0.245-0.027-0.491-0.041-0.735c-0.412-0.044-0.83-0.027-1.236,0.048c0.014,0.245,0.029,0.49,0.044,0.735
						c-0.275,0.061-0.544,0.156-0.8,0.286c-0.166-0.191-0.332-0.383-0.497-0.574c-0.174,0.096-0.345,0.207-0.505,0.331
						c-0.163,0.125-0.311,0.258-0.447,0.399c0.166,0.19,0.332,0.381,0.498,0.571c-0.187,0.211-0.339,0.436-0.459,0.677
						c-0.251-0.063-0.501-0.126-0.752-0.189c-0.161,0.358-0.262,0.738-0.302,1.123c0.25,0.062,0.5,0.125,0.75,0.188
						c-0.018,0.267-0.001,0.539,0.052,0.805c-0.24,0.088-0.478,0.176-0.719,0.265c0.093,0.374,0.242,0.738,0.451,1.082
						c0.238-0.088,0.477-0.176,0.717-0.264c0.072,0.113,0.153,0.223,0.245,0.329c0.09,0.106,0.187,0.207,0.288,0.298
						c-0.138,0.205-0.275,0.41-0.415,0.616c0.312,0.265,0.653,0.477,1.018,0.636c0.139-0.204,0.276-0.409,0.415-0.613
						c0.261,0.104,0.533,0.175,0.812,0.213c0.013,0.245,0.025,0.49,0.041,0.736c0.399,0.042,0.805,0.026,1.202-0.046
						c-0.012-0.244-0.023-0.49-0.036-0.735c0.27-0.058,0.534-0.151,0.786-0.277c0.16,0.192,0.318,0.387,0.479,0.581
						c0.172-0.094,0.34-0.202,0.501-0.322c0.161-0.123,0.311-0.251,0.448-0.391c-0.16-0.194-0.319-0.388-0.479-0.582
						c0.188-0.206,0.347-0.429,0.469-0.667c0.249,0.069,0.496,0.138,0.743,0.207c0.167-0.355,0.278-0.731,0.33-1.115
						c-0.248-0.07-0.496-0.139-0.746-0.208c0.026-0.268,0.016-0.54-0.033-0.807c0.243-0.083,0.486-0.165,0.729-0.248
						c-0.082-0.377-0.224-0.746-0.427-1.094c-0.243,0.083-0.487,0.165-0.731,0.249C236.212,185.101,236.132,184.989,236.043,184.88z
						 M235.613,185.199c0.96,1.147,0.75,2.799-0.437,3.692c-1.186,0.893-2.901,0.702-3.865-0.427
						c-0.962-1.129-0.804-2.784,0.387-3.695C232.886,183.858,234.655,184.052,235.613,185.199z"/>
					<path fill="#F2913D" d="M233.044,186.346c-0.275,0.21-0.315,0.593-0.093,0.857s0.625,0.308,0.901,0.1
						c0.276-0.209,0.321-0.593,0.098-0.858C233.728,186.181,233.321,186.135,233.044,186.346z"/>
					<path fill="#F2913D" d="M232.266,185.636c-0.684,0.614-0.702,1.645-0.052,2.298c0.651,0.652,1.726,0.69,2.41,0.082
						c0.685-0.607,0.722-1.639,0.071-2.298C234.045,185.059,232.95,185.022,232.266,185.636z M234.498,187.888
						c-0.609,0.542-1.571,0.509-2.15-0.073c-0.578-0.583-0.562-1.502,0.047-2.05c0.61-0.547,1.586-0.515,2.166,0.073
						C235.139,186.427,235.107,187.346,234.498,187.888z"/>
					<path fill="#F2913D" d="M231.826,185.198c-0.938,0.844-0.956,2.255-0.066,3.148c0.892,0.893,2.359,0.946,3.297,0.113
						c0.938-0.831,0.994-2.244,0.103-3.15C234.268,184.404,232.763,184.354,231.826,185.198z M234.883,188.282
						c-0.836,0.742-2.147,0.697-2.941-0.1c-0.794-0.797-0.777-2.058,0.059-2.809c0.837-0.752,2.177-0.708,2.974,0.099
						C235.768,186.28,235.719,187.542,234.883,188.282z"/>
				</g>
				<g>
					<path fill="#721F13" d="M181.274,155.215c0.283,0.376,0.595,0.727,0.928,1.053c-0.28,0.29-0.559,0.58-0.837,0.871
						c0.817,0.767,1.748,1.407,2.758,1.915c0.279-0.288,0.558-0.576,0.838-0.863c0.902,0.438,1.87,0.759,2.874,0.961
						c-0.037,0.368-0.075,0.736-0.111,1.104c1.162,0.215,2.363,0.287,3.566,0.205c0.041-0.368,0.082-0.736,0.124-1.103
						c1.022-0.084,2.043-0.29,3.037-0.625c0.214,0.315,0.428,0.632,0.641,0.948c0.552-0.196,1.095-0.427,1.624-0.694
						c0.532-0.269,1.032-0.565,1.5-0.885c-0.211-0.319-0.422-0.637-0.634-0.956c0.827-0.587,1.54-1.261,2.128-1.997
						c0.393,0.15,0.786,0.3,1.178,0.452c0.678-0.876,1.199-1.829,1.55-2.822c-0.394-0.152-0.789-0.305-1.185-0.456
						c0.283-0.864,0.422-1.76,0.401-2.659c0.434-0.075,0.868-0.149,1.302-0.224c-0.039-1.018-0.262-2.042-0.683-3.031
						c-0.438,0.074-0.876,0.148-1.312,0.224c-0.188-0.409-0.408-0.813-0.676-1.207c-0.266-0.393-0.564-0.762-0.89-1.108
						c0.307-0.275,0.612-0.55,0.92-0.826c-0.794-0.815-1.73-1.505-2.766-2.055c-0.308,0.278-0.614,0.556-0.92,0.834
						c-0.924-0.469-1.93-0.817-2.985-1.035c0.049-0.368,0.099-0.735,0.149-1.104c-1.228-0.234-2.509-0.311-3.792-0.222
						c-0.045,0.368-0.091,0.737-0.136,1.106c-1.082,0.092-2.162,0.316-3.207,0.68c-0.231-0.31-0.463-0.619-0.696-0.928
						c-0.581,0.212-1.151,0.463-1.705,0.754c-0.553,0.291-1.07,0.611-1.55,0.954c0.235,0.307,0.47,0.615,0.704,0.922
						c-0.843,0.625-1.553,1.335-2.121,2.104c-0.414-0.125-0.829-0.249-1.245-0.374c-0.648,0.919-1.12,1.904-1.406,2.918
						c0.413,0.121,0.825,0.243,1.237,0.367c-0.232,0.878-0.309,1.779-0.229,2.672c-0.428,0.104-0.855,0.21-1.283,0.316
						c0.117,1.01,0.417,2.009,0.901,2.962c0.423-0.105,0.847-0.208,1.271-0.312C180.746,154.45,180.991,154.838,181.274,155.215z
						 M185.902,143.702c4.464-2.343,10.292-1.194,12.777,2.489c2.492,3.684,0.834,8.375-3.469,10.558
						c-4.31,2.179-9.761,1.145-12.415-2.379C180.148,150.849,181.433,146.043,185.902,143.702z M192.304,152.536
						c1.566-0.802,2.119-2.502,1.205-3.807c-0.913-1.305-2.963-1.705-4.55-0.882c-1.586,0.821-2.091,2.537-1.158,3.821
						C188.736,152.953,190.737,153.338,192.304,152.536z M190.068,149.384c0.541-0.278,1.239-0.143,1.554,0.301
						s0.132,1.028-0.409,1.305c-0.537,0.278-1.228,0.144-1.546-0.298C189.349,150.25,189.527,149.664,190.068,149.384z"/>
				</g>
				<path fill="#6D6E71" d="M185.34,188.946c0.271,0.148,0.551,0.274,0.834,0.38c-0.055,0.237-0.109,0.474-0.163,0.71
					c0.679,0.243,1.379,0.383,2.081,0.426c0.055-0.236,0.111-0.473,0.167-0.709c0.62,0.028,1.238-0.029,1.837-0.167
					c0.1,0.223,0.198,0.445,0.298,0.667c0.688-0.17,1.35-0.434,1.966-0.79c-0.098-0.223-0.195-0.446-0.294-0.668
					c0.517-0.311,0.993-0.692,1.411-1.144c0.218,0.127,0.435,0.253,0.652,0.38c0.229-0.256,0.442-0.53,0.636-0.823
					c0.192-0.293,0.36-0.595,0.502-0.903c-0.218-0.127-0.437-0.256-0.655-0.383c0.243-0.553,0.395-1.127,0.458-1.703
					c0.258-0.018,0.517-0.035,0.776-0.052c0.062-0.681,0.012-1.364-0.143-2.025c-0.261,0.018-0.521,0.035-0.782,0.054
					c-0.146-0.569-0.382-1.116-0.704-1.625c0.201-0.157,0.401-0.313,0.604-0.47c-0.375-0.57-0.85-1.092-1.418-1.543
					c-0.202,0.158-0.404,0.315-0.605,0.473c-0.241-0.185-0.5-0.354-0.776-0.509c-0.277-0.154-0.562-0.284-0.854-0.396
					c0.063-0.236,0.126-0.473,0.188-0.708c-0.703-0.254-1.433-0.401-2.166-0.445c-0.061,0.237-0.122,0.473-0.183,0.71
					c-0.646-0.029-1.292,0.032-1.915,0.178c-0.104-0.222-0.208-0.442-0.313-0.663c-0.72,0.18-1.411,0.46-2.046,0.833
					c0.106,0.221,0.212,0.441,0.319,0.661c-0.531,0.323-1.014,0.721-1.432,1.186c-0.228-0.118-0.457-0.235-0.685-0.353
					c-0.229,0.264-0.438,0.547-0.625,0.849c-0.188,0.3-0.348,0.609-0.479,0.923c0.228,0.117,0.456,0.233,0.682,0.351
					c-0.224,0.563-0.352,1.143-0.39,1.719c-0.26,0.03-0.519,0.06-0.778,0.089c-0.029,0.683,0.055,1.36,0.243,2.01
					c0.257-0.03,0.515-0.059,0.773-0.087c0.172,0.56,0.429,1.095,0.766,1.589c-0.19,0.164-0.381,0.328-0.571,0.493
					c0.393,0.553,0.876,1.055,1.443,1.488c0.19-0.164,0.38-0.327,0.571-0.489C184.812,188.635,185.068,188.799,185.34,188.946z
					 M183.922,181.205c1.517-2.434,4.942-3.271,7.532-1.832c2.593,1.44,3.333,4.563,1.771,6.94
					c-1.566,2.376-4.807,3.152-7.355,1.771C183.325,186.702,182.4,183.64,183.922,181.205z M191.013,185.052
					c0.805-1.238,0.397-2.848-0.939-3.585c-1.337-0.739-3.087-0.313-3.879,0.939c-0.792,1.254-0.337,2.848,0.986,3.57
					C188.507,186.7,190.208,186.291,191.013,185.052z M188.239,183.512c0.125-0.195,0.395-0.26,0.603-0.146
					c0.209,0.114,0.275,0.366,0.149,0.561c-0.124,0.194-0.393,0.26-0.601,0.145C188.181,183.958,188.113,183.707,188.239,183.512z"
					/>
				<g>
					<path d="M194.689,178.021c0.464,0.377,0.949,0.716,1.451,1.021c-0.207,0.425-0.413,0.85-0.617,1.275
						c1.209,0.708,2.498,1.234,3.826,1.582c0.209-0.422,0.419-0.845,0.63-1.267c1.181,0.289,2.394,0.424,3.603,0.404
						c0.093,0.457,0.182,0.913,0.273,1.37c1.393-0.045,2.779-0.273,4.116-0.686c-0.084-0.458-0.168-0.917-0.253-1.374
						c1.132-0.37,2.221-0.888,3.233-1.556c0.358,0.329,0.716,0.657,1.07,0.987c0.56-0.381,1.097-0.804,1.607-1.269
						c0.512-0.465,0.979-0.957,1.402-1.469c-0.356-0.333-0.713-0.666-1.07-0.999c0.736-0.931,1.311-1.938,1.717-2.987
						c0.506,0.08,1.014,0.16,1.519,0.242c0.463-1.244,0.715-2.54,0.752-3.842c-0.513-0.083-1.025-0.164-1.538-0.244
						c0.003-1.125-0.176-2.251-0.542-3.339c0.473-0.207,0.945-0.411,1.42-0.615c-0.436-1.228-1.09-2.411-1.966-3.501
						c-0.478,0.207-0.955,0.416-1.433,0.624c-0.377-0.448-0.795-0.877-1.26-1.282c-0.464-0.405-0.958-0.771-1.473-1.102
						c0.243-0.415,0.488-0.831,0.733-1.245c-1.251-0.774-2.618-1.353-4.046-1.733c-0.241,0.418-0.481,0.836-0.722,1.254
						c-1.261-0.314-2.569-0.459-3.875-0.431c-0.098-0.457-0.194-0.913-0.291-1.369c-1.519,0.057-3.029,0.317-4.47,0.779
						c0.104,0.454,0.208,0.909,0.311,1.363c-1.209,0.408-2.357,0.977-3.403,1.699c-0.396-0.307-0.794-0.613-1.193-0.917
						c-0.578,0.416-1.126,0.875-1.637,1.375c-0.51,0.501-0.968,1.027-1.372,1.571c0.399,0.302,0.796,0.604,1.193,0.906
						c-0.702,0.982-1.216,2.028-1.547,3.105c-0.525-0.037-1.05-0.07-1.575-0.104c-0.357,1.277-0.486,2.585-0.397,3.877
						c0.518,0.033,1.037,0.067,1.555,0.103c0.095,1.116,0.368,2.217,0.815,3.268c-0.444,0.241-0.887,0.484-1.328,0.728
						c0.535,1.179,1.265,2.297,2.183,3.316c0.438-0.241,0.876-0.48,1.315-0.718C193.799,177.241,194.226,177.643,194.689,178.021z
						 M195.364,162.922c4.132-4.037,11.373-4.266,15.713-0.471c4.353,3.791,4.157,9.949,0.023,13.728
						c-4.143,3.781-10.662,3.95-15.013,0.414C191.75,173.058,191.223,166.96,195.364,162.922z"/>
					<path d="M206.212,171.835c1.487-1.387,1.473-3.595-0.091-4.927c-1.56-1.333-4.079-1.258-5.566,0.163
						c-1.488,1.42-1.381,3.62,0.18,4.92C202.299,173.289,204.723,173.223,206.212,171.835z M201.58,167.915
						c0.955-0.909,2.562-0.956,3.565-0.104c1.003,0.852,1.022,2.27,0.067,3.165c-0.955,0.894-2.523,0.937-3.527,0.099
						C200.683,170.236,200.625,168.823,201.58,167.915z"/>
					<path d="M209.704,174.913c3.361-3.093,3.466-8.117-0.073-11.182c-3.532-3.066-9.389-2.885-12.752,0.379
						c-3.369,3.265-2.993,8.25,0.539,11.145C200.955,178.15,206.332,178.008,209.704,174.913z M197.333,164.469
						c3.132-3.035,8.573-3.203,11.865-0.352c3.298,2.85,3.217,7.53,0.082,10.418c-3.141,2.888-8.166,3.022-11.462,0.32
						C194.528,172.153,194.192,167.506,197.333,164.469z"/>
				</g>
				<g>
					<path fill="#808285" d="M207.393,193.786c0.196,0.324,0.414,0.629,0.645,0.919c-0.459,0.504-0.915,1.01-1.368,1.517
						c0.718,0.836,1.542,1.545,2.437,2.124c0.454-0.501,0.91-1.002,1.369-1.502c0.647,0.39,1.341,0.694,2.06,0.915
						c-0.077,0.671-0.152,1.343-0.227,2.013c1.037,0.282,2.112,0.414,3.193,0.391c0.083-0.67,0.166-1.341,0.249-2.011
						c0.742-0.042,1.483-0.175,2.211-0.405c0.327,0.596,0.651,1.194,0.975,1.792c0.5-0.174,0.993-0.389,1.479-0.643
						c0.484-0.252,0.94-0.536,1.373-0.845c-0.318-0.602-0.639-1.202-0.961-1.802c0.601-0.468,1.131-1.001,1.583-1.584
						c0.621,0.304,1.239,0.61,1.855,0.919c0.638-0.877,1.138-1.839,1.486-2.852c-0.623-0.312-1.246-0.623-1.872-0.93
						c0.21-0.712,0.331-1.45,0.349-2.198c0.697-0.105,1.394-0.208,2.093-0.309c-0.007-1.058-0.177-2.126-0.529-3.172
						c-0.706,0.103-1.412,0.208-2.116,0.314c-0.134-0.346-0.289-0.688-0.474-1.023c-0.187-0.335-0.393-0.653-0.618-0.954
						c0.502-0.482,1.008-0.963,1.515-1.443c-0.7-0.881-1.532-1.637-2.458-2.254c-0.505,0.484-1.009,0.969-1.509,1.454
						c-0.67-0.412-1.396-0.734-2.151-0.966c0.093-0.671,0.188-1.342,0.282-2.012c-1.11-0.3-2.272-0.439-3.438-0.409
						c-0.086,0.67-0.172,1.342-0.259,2.012c-0.787,0.047-1.574,0.193-2.341,0.439c-0.359-0.587-0.721-1.174-1.085-1.76
						c-0.53,0.19-1.054,0.423-1.561,0.695c-0.506,0.274-0.982,0.579-1.423,0.91c0.368,0.582,0.735,1.165,1.099,1.748
						c-0.61,0.493-1.138,1.052-1.575,1.658c-0.658-0.269-1.318-0.535-1.979-0.799c-0.603,0.918-1.047,1.911-1.32,2.945
						c0.657,0.261,1.312,0.524,1.966,0.791c-0.171,0.721-0.243,1.464-0.211,2.208c-0.689,0.15-1.376,0.302-2.061,0.456
						c0.088,1.05,0.341,2.097,0.759,3.11c0.679-0.153,1.358-0.302,2.039-0.45C207.024,193.129,207.195,193.461,207.393,193.786z
						 M211.416,183.181c3.713-1.995,8.487-0.674,10.449,2.889c1.968,3.563,0.488,7.921-3.09,9.795
						c-3.586,1.873-8.018,0.644-10.119-2.8C206.562,189.624,207.7,185.173,211.416,183.181z"/>
					<path fill="#FEBD11" d="M216.029,190.97c0.844-0.446,1.157-1.467,0.688-2.284c-0.468-0.817-1.546-1.116-2.397-0.664
						c-0.85,0.452-1.146,1.478-0.67,2.289C214.124,191.121,215.186,191.415,216.029,190.97z"/>
				</g>
				<g>
					<path fill="#F2674A" d="M166.138,173.762c0.35,0.266,0.715,0.506,1.089,0.727c-0.341,0.696-0.68,1.393-1.015,2.089
						c1.139,0.613,2.352,1.056,3.598,1.337c0.34-0.692,0.683-1.384,1.028-2.075c0.896,0.173,1.81,0.241,2.722,0.212
						c0.16,0.732,0.319,1.464,0.478,2.196c1.305-0.081,2.6-0.328,3.846-0.743c-0.148-0.734-0.298-1.468-0.447-2.202
						c0.843-0.311,1.656-0.718,2.419-1.22c0.6,0.509,1.198,1.021,1.792,1.534c0.517-0.363,1.014-0.765,1.485-1.204
						c0.47-0.438,0.899-0.9,1.287-1.379c-0.593-0.519-1.189-1.036-1.789-1.55c0.527-0.706,0.946-1.455,1.254-2.23
						c0.837,0.098,1.673,0.2,2.508,0.306c0.415-1.148,0.636-2.335,0.657-3.522c-0.844-0.107-1.69-0.21-2.536-0.31
						c-0.024-0.822-0.166-1.639-0.43-2.428c0.77-0.359,1.542-0.714,2.318-1.067c-0.415-1.107-1.028-2.167-1.844-3.134
						c-0.783,0.358-1.564,0.719-2.343,1.084c-0.291-0.315-0.605-0.617-0.952-0.902c-0.347-0.284-0.712-0.542-1.09-0.777
						c0.395-0.684,0.792-1.367,1.192-2.05c-1.161-0.67-2.428-1.16-3.75-1.471c-0.395,0.686-0.787,1.373-1.176,2.061
						c-0.941-0.188-1.91-0.263-2.881-0.23c-0.158-0.733-0.316-1.466-0.474-2.199c-1.407,0.092-2.809,0.368-4.146,0.825
						c0.168,0.729,0.335,1.459,0.503,2.189c-0.895,0.336-1.747,0.775-2.538,1.312c-0.648-0.48-1.3-0.958-1.953-1.434
						c-0.538,0.395-1.049,0.828-1.526,1.298c-0.477,0.47-0.904,0.963-1.281,1.47c0.655,0.47,1.308,0.942,1.957,1.416
						c-0.512,0.737-0.902,1.513-1.169,2.304c-0.864-0.038-1.73-0.072-2.597-0.101c-0.336,1.177-0.459,2.376-0.378,3.553
						c0.858,0.03,1.716,0.063,2.572,0.1c0.082,0.815,0.284,1.616,0.602,2.382c-0.735,0.409-1.468,0.821-2.199,1.235
						c0.502,1.063,1.19,2.065,2.053,2.969c0.724-0.409,1.451-0.815,2.181-1.219C165.467,173.211,165.79,173.495,166.138,173.762z
						 M167.328,172.546c-3.708-2.835-4.122-7.894-0.609-11.332c3.502-3.439,9.574-3.794,13.246-0.771
						c3.683,3.023,3.604,8.124,0.137,11.372C176.626,175.066,171.045,175.381,167.328,172.546z"/>
					<path fill="#F2674A" d="M175.069,167.672c0.81-0.771,0.785-1.954-0.073-2.639c-0.858-0.685-2.224-0.606-3.035,0.175
						c-0.812,0.781-0.761,1.961,0.099,2.636S174.26,168.444,175.069,167.672z"/>
					<path fill="#F2674A" d="M168.831,163.365c-0.662,0.752-1.083,1.637-1.221,2.554c-0.275,1.84,0.596,3.639,2.232,4.715
						c1.238,0.813,2.769,1.149,4.324,0.953c1.557-0.198,2.955-0.905,3.953-2.004c0.663-0.731,1.104-1.6,1.274-2.513l0,0
						c0.341-1.829-0.444-3.674-2.087-4.792C174.744,160.524,170.882,161.024,168.831,163.365z M176.57,163.075
						c1.326,0.9,1.967,2.386,1.696,3.864c-0.135,0.738-0.49,1.439-1.025,2.032c-0.805,0.889-1.938,1.463-3.198,1.624
						c-1.262,0.16-2.501-0.113-3.501-0.772c-1.322-0.873-2.019-2.329-1.791-3.813c0.114-0.741,0.455-1.454,0.989-2.059
						C171.398,162.065,174.5,161.666,176.57,163.075z"/>
				</g>
				<g>
					<path fill="#FDB949" d="M219.066,178.22c0.102,0.114,0.209,0.22,0.321,0.32c-0.155,0.221-0.312,0.442-0.466,0.665
						c0.345,0.285,0.728,0.513,1.133,0.686c0.155-0.221,0.311-0.441,0.468-0.662c0.291,0.114,0.596,0.19,0.906,0.232
						c0.013,0.264,0.027,0.529,0.039,0.792c0.449,0.047,0.902,0.031,1.348-0.046c-0.012-0.264-0.023-0.528-0.035-0.792
						c0.302-0.064,0.598-0.163,0.88-0.298c0.178,0.209,0.354,0.417,0.532,0.627c0.194-0.102,0.381-0.216,0.563-0.346
						c0.18-0.13,0.347-0.27,0.501-0.42c-0.176-0.21-0.353-0.419-0.529-0.629c0.212-0.22,0.388-0.461,0.527-0.717
						c0.277,0.075,0.553,0.15,0.83,0.226c0.189-0.382,0.317-0.787,0.378-1.201c-0.277-0.077-0.556-0.152-0.832-0.228
						c0.03-0.288,0.021-0.581-0.031-0.869c0.272-0.088,0.545-0.176,0.817-0.264c-0.088-0.407-0.243-0.805-0.469-1.182
						c-0.273,0.088-0.547,0.177-0.82,0.265c-0.08-0.125-0.168-0.246-0.27-0.362c-0.101-0.116-0.208-0.226-0.32-0.326
						c0.162-0.219,0.325-0.438,0.489-0.657c-0.349-0.292-0.737-0.527-1.152-0.705c-0.161,0.219-0.323,0.438-0.485,0.657
						c-0.297-0.115-0.609-0.194-0.926-0.237c-0.012-0.265-0.025-0.529-0.039-0.793c-0.459-0.047-0.929-0.03-1.385,0.05
						c0.015,0.264,0.028,0.528,0.042,0.792c-0.309,0.064-0.609,0.167-0.897,0.306c-0.184-0.207-0.367-0.413-0.551-0.619
						c-0.197,0.104-0.387,0.223-0.57,0.356c-0.181,0.133-0.349,0.278-0.502,0.43c0.185,0.205,0.368,0.411,0.552,0.617
						c-0.21,0.225-0.384,0.469-0.519,0.728c-0.28-0.068-0.562-0.137-0.843-0.205c-0.183,0.387-0.297,0.797-0.344,1.21
						c0.28,0.068,0.56,0.135,0.839,0.204c-0.022,0.288-0.006,0.58,0.053,0.867c-0.27,0.094-0.536,0.189-0.806,0.285
						c0.099,0.403,0.264,0.797,0.496,1.168c0.267-0.095,0.535-0.19,0.804-0.285C218.875,177.985,218.964,178.104,219.066,178.22z
						 M219.536,177.87c-1.07-1.219-0.881-3.003,0.459-3.983c1.339-0.98,3.317-0.768,4.381,0.473c1.063,1.24,0.815,3.021-0.517,3.978
						C222.526,179.296,220.607,179.088,219.536,177.87z"/>
					<path fill="#FDB949" d="M222.389,176.623c0.311-0.225,0.362-0.639,0.115-0.924c-0.247-0.287-0.702-0.335-1.012-0.109
						c-0.312,0.225-0.36,0.64-0.113,0.925C221.629,176.798,222.08,176.847,222.389,176.623z"/>
					<path fill="#FDB949" d="M223.246,177.395c0.771-0.654,0.821-1.765,0.098-2.479c-0.722-0.713-1.948-0.754-2.718-0.093
						c-0.771,0.661-0.798,1.773-0.075,2.477C221.274,178.004,222.476,178.047,223.246,177.395z M220.767,174.961
						c0.688-0.59,1.78-0.553,2.424,0.083c0.646,0.636,0.602,1.627-0.085,2.211c-0.688,0.582-1.761,0.545-2.405-0.084
						C220.056,176.542,220.081,175.55,220.767,174.961z"/>
				</g>
				<g>
					<path fill="#721F13" d="M229.292,150.121c0.088,0.096,0.185,0.187,0.284,0.273c-0.146,0.179-0.294,0.358-0.44,0.538
						c0.309,0.245,0.651,0.445,1.015,0.597c0.146-0.179,0.293-0.358,0.439-0.537c0.263,0.101,0.538,0.171,0.82,0.213
						c0.007,0.22,0.012,0.439,0.019,0.658c0.405,0.05,0.818,0.048,1.227-0.005c-0.006-0.22-0.012-0.439-0.017-0.658
						c0.274-0.045,0.546-0.121,0.806-0.226c0.157,0.178,0.314,0.355,0.471,0.532c0.178-0.079,0.351-0.171,0.518-0.273
						c0.167-0.103,0.32-0.216,0.463-0.336c-0.155-0.178-0.31-0.355-0.468-0.533c0.197-0.179,0.362-0.375,0.492-0.582
						c0.25,0.068,0.499,0.137,0.748,0.206c0.181-0.312,0.304-0.644,0.365-0.987c-0.249-0.069-0.5-0.139-0.751-0.208
						c0.034-0.237,0.031-0.481-0.011-0.721c0.248-0.067,0.496-0.133,0.744-0.2c-0.071-0.338-0.204-0.672-0.401-0.988
						c-0.249,0.066-0.497,0.133-0.746,0.2c-0.071-0.104-0.15-0.207-0.238-0.305c-0.088-0.1-0.185-0.192-0.284-0.278
						c0.151-0.178,0.303-0.355,0.455-0.532c-0.31-0.25-0.655-0.453-1.026-0.61c-0.15,0.177-0.302,0.355-0.453,0.532
						c-0.265-0.102-0.546-0.175-0.831-0.217c-0.007-0.219-0.013-0.439-0.018-0.659c-0.415-0.049-0.839-0.047-1.253,0.009
						c0.008,0.219,0.014,0.438,0.021,0.657c-0.281,0.046-0.554,0.124-0.815,0.231c-0.162-0.176-0.323-0.351-0.485-0.525
						c-0.181,0.082-0.354,0.176-0.522,0.281c-0.169,0.107-0.324,0.221-0.467,0.343c0.163,0.176,0.324,0.351,0.486,0.526
						c-0.196,0.18-0.357,0.377-0.487,0.587c-0.252-0.062-0.505-0.126-0.757-0.188c-0.176,0.315-0.289,0.651-0.343,0.993
						c0.253,0.063,0.505,0.126,0.757,0.19c-0.029,0.239-0.021,0.48,0.025,0.72c-0.245,0.072-0.49,0.144-0.735,0.216
						c0.079,0.337,0.22,0.667,0.419,0.98c0.246-0.072,0.491-0.144,0.736-0.216C229.123,149.921,229.203,150.022,229.292,150.121z
						 M229.726,149.842c-0.941-1.036-0.728-2.509,0.506-3.289c1.235-0.778,3.016-0.556,3.955,0.497
						c0.938,1.052,0.682,2.521-0.548,3.283C232.41,151.097,230.669,150.879,229.726,149.842z"/>
					<path fill="#721F13" d="M232.341,148.879c0.286-0.18,0.343-0.52,0.125-0.764c-0.221-0.243-0.63-0.293-0.916-0.114
						c-0.285,0.179-0.341,0.521-0.122,0.763C231.647,149.007,232.055,149.057,232.341,148.879z"/>
					<path fill="#721F13" d="M233.101,149.538c0.713-0.523,0.78-1.442,0.14-2.051c-0.64-0.606-1.746-0.671-2.458-0.142
						c-0.712,0.529-0.763,1.449-0.123,2.05C231.3,149.998,232.391,150.06,233.101,149.538z M230.909,147.463
						c0.636-0.472,1.621-0.414,2.189,0.127c0.573,0.542,0.513,1.362-0.12,1.829c-0.635,0.467-1.608,0.41-2.181-0.126
						C230.227,148.755,230.273,147.936,230.909,147.463z"/>
				</g>
				<g>
					<path fill="#9BBEAC" d="M203.506,146.003c0.193,0.178,0.398,0.341,0.611,0.494c-0.265,0.375-0.529,0.751-0.792,1.127
						c0.651,0.432,1.365,0.77,2.114,1.015c0.265-0.374,0.529-0.749,0.795-1.123c0.539,0.158,1.1,0.257,1.664,0.299
						c0.045,0.431,0.089,0.861,0.133,1.292c0.816,0.037,1.638-0.023,2.44-0.187c-0.041-0.43-0.083-0.86-0.125-1.291
						c0.546-0.127,1.074-0.312,1.58-0.555c0.337,0.328,0.671,0.657,1.007,0.986c0.344-0.178,0.678-0.381,0.999-0.605
						c0.317-0.225,0.614-0.467,0.882-0.72c-0.333-0.332-0.667-0.663-1.004-0.993c0.369-0.374,0.674-0.78,0.912-1.208
						c0.508,0.104,1.015,0.208,1.521,0.313c0.326-0.636,0.532-1.306,0.615-1.987c-0.51-0.106-1.021-0.212-1.533-0.317
						c0.037-0.475-0.001-0.951-0.114-1.419c0.491-0.163,0.983-0.324,1.476-0.484c-0.188-0.66-0.495-1.302-0.932-1.903
						c-0.496,0.162-0.991,0.325-1.486,0.491c-0.155-0.197-0.326-0.39-0.517-0.572c-0.193-0.183-0.397-0.353-0.612-0.511
						c0.283-0.37,0.566-0.738,0.851-1.107c-0.657-0.452-1.389-0.808-2.161-1.066c-0.282,0.37-0.562,0.74-0.844,1.111
						c-0.553-0.167-1.13-0.269-1.715-0.312c-0.045-0.431-0.089-0.862-0.132-1.293c-0.85-0.039-1.707,0.029-2.54,0.202
						c0.046,0.43,0.093,0.86,0.141,1.29c-0.561,0.134-1.104,0.328-1.62,0.581c-0.354-0.319-0.706-0.639-1.062-0.957
						c-0.352,0.188-0.692,0.4-1.016,0.637c-0.321,0.235-0.617,0.488-0.883,0.75c0.355,0.317,0.709,0.635,1.062,0.953
						c-0.365,0.387-0.661,0.804-0.885,1.239c-0.52-0.083-1.038-0.166-1.559-0.246c-0.3,0.649-0.473,1.328-0.522,2.01
						c0.517,0.08,1.033,0.162,1.55,0.244c-0.016,0.474,0.041,0.949,0.172,1.412c-0.48,0.181-0.96,0.364-1.44,0.547
						c0.216,0.648,0.553,1.273,1.005,1.854c0.479-0.182,0.956-0.363,1.437-0.544C203.139,145.639,203.315,145.825,203.506,146.003z
						 M204.333,145.387c-2.049-1.884-1.868-4.817,0.504-6.545c2.372-1.728,6.023-1.545,8.057,0.406
						c2.033,1.95,1.691,4.875-0.664,6.539C209.875,147.45,206.384,147.273,204.333,145.387z"/>
					<path fill="#9BBEAC" d="M209.429,143.1c0.548-0.393,0.613-1.072,0.14-1.52c-0.475-0.447-1.309-0.489-1.856-0.093
						c-0.55,0.394-0.606,1.075-0.132,1.521C208.054,143.451,208.88,143.492,209.429,143.1z"/>
					<path fill="#9BBEAC" d="M211.048,144.292c1.354-1.126,1.368-2.946-0.004-4.056c-1.372-1.11-3.623-1.074-4.978,0.076
						c-1.354,1.151-1.309,2.968,0.065,4.052C207.505,145.45,209.693,145.418,211.048,144.292z M206.34,140.525
						c1.207-1.025,3.212-1.056,4.435-0.068c1.227,0.99,1.213,2.612,0.007,3.617c-1.209,1.005-3.163,1.033-4.388,0.065
						C205.17,143.17,205.131,141.551,206.34,140.525z"/>
					<path fill="#9BBEAC" d="M211.958,145.037c1.855-1.536,1.894-4.032,0.011-5.558c-1.882-1.527-4.982-1.478-6.836,0.106
						c-1.858,1.583-1.777,4.071,0.103,5.552C207.118,146.617,210.1,146.575,211.958,145.037z M205.505,139.876
						c1.656-1.411,4.415-1.455,6.094-0.094c1.679,1.358,1.649,3.584-0.005,4.958c-1.656,1.373-4.321,1.413-6.001,0.088
						C203.916,143.505,203.849,141.284,205.505,139.876z"/>
				</g>
				<g>
					<path fill="#808285" d="M203.881,154.227c0.092,0.086,0.188,0.164,0.288,0.238c-0.125,0.181-0.248,0.362-0.373,0.543
						c0.308,0.208,0.645,0.373,0.997,0.49c0.126-0.181,0.248-0.361,0.374-0.542c0.254,0.077,0.519,0.123,0.784,0.142
						c0.023,0.207,0.046,0.415,0.068,0.622c0.385,0.016,0.771-0.016,1.152-0.098c-0.022-0.207-0.045-0.414-0.066-0.621
						c0.256-0.064,0.505-0.156,0.742-0.275c0.159,0.156,0.319,0.312,0.479,0.469c0.161-0.089,0.317-0.188,0.468-0.299
						c0.146-0.109,0.284-0.229,0.408-0.352c-0.159-0.158-0.319-0.314-0.48-0.472c0.172-0.183,0.312-0.381,0.419-0.589
						c0.239,0.046,0.478,0.093,0.717,0.14c0.146-0.31,0.236-0.634,0.269-0.963c-0.238-0.046-0.479-0.093-0.72-0.139
						c0.013-0.229-0.009-0.458-0.065-0.684c0.228-0.082,0.455-0.164,0.683-0.247c-0.093-0.314-0.243-0.621-0.451-0.908
						c-0.229,0.082-0.457,0.165-0.687,0.248c-0.073-0.094-0.155-0.186-0.245-0.272c-0.092-0.087-0.187-0.168-0.286-0.242
						c0.127-0.18,0.256-0.359,0.383-0.539c-0.307-0.214-0.647-0.381-1.007-0.502c-0.128,0.18-0.256,0.359-0.383,0.538
						c-0.261-0.076-0.527-0.125-0.799-0.144c-0.021-0.207-0.045-0.415-0.067-0.623c-0.394-0.016-0.79,0.018-1.175,0.103
						c0.022,0.207,0.047,0.414,0.07,0.622c-0.261,0.064-0.513,0.158-0.749,0.281c-0.166-0.154-0.331-0.309-0.496-0.462
						c-0.163,0.09-0.319,0.192-0.469,0.306c-0.151,0.112-0.287,0.232-0.412,0.36c0.166,0.153,0.331,0.307,0.496,0.461
						c-0.17,0.185-0.309,0.386-0.413,0.596c-0.241-0.042-0.484-0.083-0.727-0.124c-0.14,0.312-0.222,0.64-0.246,0.968
						c0.241,0.041,0.483,0.082,0.725,0.124c-0.009,0.228,0.018,0.457,0.079,0.68c-0.227,0.087-0.451,0.173-0.677,0.26
						c0.102,0.313,0.257,0.616,0.47,0.896c0.224-0.086,0.448-0.172,0.675-0.258C203.709,154.051,203.792,154.141,203.881,154.227z
						 M204.27,153.931c-0.964-0.913-0.873-2.326,0.227-3.156c1.101-0.831,2.79-0.753,3.75,0.174
						c0.959,0.926,0.831,2.337-0.266,3.154C206.885,154.919,205.232,154.843,204.27,153.931z"/>
					<path fill="#808285" d="M206.652,152.821c0.255-0.191,0.282-0.52,0.06-0.733c-0.224-0.214-0.613-0.231-0.868-0.04
						c-0.256,0.192-0.28,0.52-0.057,0.733S206.397,153.012,206.652,152.821z"/>
					<path fill="#808285" d="M207.416,153.388c0.63-0.549,0.622-1.426-0.023-1.953c-0.646-0.529-1.691-0.505-2.318,0.048
						c-0.629,0.555-0.608,1.431,0.038,1.954S206.788,153.938,207.416,153.388z M205.201,151.586c0.561-0.495,1.49-0.515,2.066-0.044
						c0.578,0.47,0.584,1.252,0.024,1.743c-0.562,0.49-1.48,0.509-2.057,0.042C204.658,152.863,204.639,152.081,205.201,151.586z"/>
					<path fill="#808285" d="M207.848,153.743c0.861-0.751,0.855-1.954-0.03-2.678s-2.32-0.695-3.182,0.067
						c-0.862,0.763-0.83,1.964,0.056,2.678C205.579,154.526,206.985,154.495,207.848,153.743z M204.81,151.273
						c0.769-0.68,2.048-0.707,2.837-0.06c0.79,0.645,0.796,1.716,0.028,2.388c-0.769,0.669-2.024,0.697-2.815,0.059
						C204.07,153.023,204.042,151.952,204.81,151.273z"/>
				</g>
				<g>
					<path fill="#FDB949" d="M198.078,187.406c0.086,0.087,0.178,0.167,0.272,0.24c-0.109,0.187-0.219,0.375-0.327,0.562
						c0.288,0.21,0.603,0.374,0.932,0.489c0.109-0.187,0.218-0.373,0.327-0.56c0.236,0.074,0.481,0.118,0.728,0.134
						c0.025,0.212,0.052,0.424,0.078,0.637c0.356,0.011,0.713-0.029,1.057-0.118c-0.024-0.211-0.05-0.424-0.075-0.636
						c0.233-0.069,0.46-0.167,0.674-0.292c0.151,0.158,0.304,0.315,0.455,0.474c0.146-0.092,0.287-0.197,0.422-0.312
						c0.133-0.117,0.257-0.24,0.368-0.37c-0.152-0.158-0.304-0.317-0.456-0.475c0.152-0.19,0.279-0.396,0.37-0.61
						c0.223,0.044,0.444,0.088,0.666,0.132c0.125-0.319,0.2-0.655,0.224-0.991c-0.223-0.045-0.445-0.088-0.668-0.133
						c0.006-0.234-0.02-0.469-0.078-0.699c0.207-0.088,0.416-0.176,0.624-0.263c-0.093-0.322-0.239-0.634-0.44-0.925
						c-0.208,0.087-0.416,0.175-0.626,0.264c-0.07-0.095-0.147-0.188-0.233-0.276c-0.086-0.088-0.176-0.169-0.271-0.244
						c0.114-0.186,0.228-0.372,0.342-0.559c-0.29-0.214-0.609-0.381-0.943-0.5c-0.113,0.186-0.227,0.372-0.34,0.559
						c-0.241-0.076-0.489-0.12-0.741-0.137c-0.025-0.212-0.051-0.424-0.077-0.637c-0.364-0.011-0.729,0.03-1.082,0.121
						c0.025,0.212,0.054,0.425,0.081,0.637c-0.237,0.069-0.467,0.169-0.683,0.297c-0.156-0.156-0.313-0.311-0.469-0.467
						c-0.149,0.095-0.292,0.201-0.426,0.319c-0.135,0.118-0.257,0.244-0.369,0.375c0.157,0.156,0.314,0.31,0.469,0.466
						c-0.151,0.192-0.273,0.4-0.364,0.617c-0.224-0.04-0.449-0.079-0.673-0.118c-0.119,0.321-0.186,0.658-0.2,0.995
						c0.224,0.039,0.447,0.078,0.672,0.117c-0.001,0.234,0.029,0.469,0.09,0.698c-0.206,0.091-0.41,0.183-0.615,0.275
						c0.102,0.319,0.255,0.627,0.458,0.914c0.206-0.092,0.41-0.184,0.616-0.275C197.915,187.229,197.992,187.319,198.078,187.406z
						 M198.428,187.098c-0.913-0.923-0.87-2.372,0.124-3.24c0.991-0.866,2.552-0.811,3.461,0.126
						c0.909,0.936,0.824,2.386-0.162,3.239C200.862,188.076,199.34,188.02,198.428,187.098z"/>
					<path fill="#FDB949" d="M200.592,185.927c0.23-0.2,0.246-0.537,0.034-0.753c-0.211-0.216-0.57-0.229-0.801-0.028
						c-0.229,0.2-0.243,0.537-0.032,0.752C200.004,186.113,200.364,186.126,200.592,185.927z"/>
					<path fill="#FDB949" d="M201.312,186.5c0.564-0.573,0.535-1.473-0.074-2.005c-0.609-0.532-1.571-0.494-2.137,0.084
						c-0.564,0.577-0.52,1.475,0.09,2.001C199.8,187.108,200.747,187.07,201.312,186.5z M199.221,184.681
						c0.504-0.515,1.363-0.548,1.906-0.074c0.543,0.475,0.57,1.276,0.066,1.788c-0.503,0.511-1.351,0.544-1.894,0.073
						C198.757,185.996,198.718,185.196,199.221,184.681z"/>
					<path fill="#FDB949" d="M201.718,186.856c0.773-0.784,0.737-2.016-0.098-2.747c-0.835-0.73-2.159-0.679-2.932,0.114
						c-0.775,0.794-0.709,2.024,0.125,2.745C199.651,187.688,200.944,187.639,201.718,186.856z M198.853,184.365
						c0.689-0.706,1.87-0.753,2.613-0.101c0.746,0.651,0.779,1.75,0.09,2.449c-0.69,0.7-1.846,0.744-2.593,0.1
						C198.219,186.17,198.163,185.072,198.853,184.365z"/>
				</g>
				<path fill="#808285" d="M242.712,172.538c0.083,0.188,0.179,0.367,0.286,0.537c-0.138,0.102-0.276,0.204-0.415,0.306
					c0.269,0.403,0.594,0.761,0.964,1.066c0.138-0.102,0.276-0.203,0.415-0.304c0.331,0.264,0.7,0.484,1.095,0.653
					c-0.045,0.157-0.089,0.314-0.134,0.471c0.458,0.188,0.946,0.315,1.448,0.375c0.045-0.157,0.092-0.314,0.138-0.47
					c0.426,0.042,0.86,0.032,1.294-0.039c0.064,0.153,0.128,0.308,0.19,0.461c0.241-0.042,0.483-0.103,0.721-0.18
					c0.239-0.077,0.468-0.169,0.684-0.274c-0.064-0.155-0.128-0.31-0.191-0.464c0.383-0.195,0.724-0.437,1.017-0.716
					c0.15,0.094,0.301,0.187,0.45,0.28c0.341-0.333,0.621-0.713,0.834-1.121c-0.151-0.094-0.302-0.188-0.451-0.281
					c0.176-0.357,0.296-0.738,0.351-1.133c0.183-0.002,0.363-0.004,0.545-0.007c0.054-0.447,0.035-0.908-0.066-1.37
					c-0.182,0.002-0.363,0.005-0.545,0.008c-0.046-0.192-0.108-0.383-0.188-0.574c-0.078-0.189-0.173-0.373-0.278-0.544
					c0.143-0.1,0.285-0.197,0.428-0.296c-0.26-0.41-0.587-0.777-0.96-1.091c-0.142,0.099-0.285,0.197-0.428,0.297
					c-0.335-0.271-0.711-0.498-1.115-0.671c0.047-0.156,0.094-0.312,0.141-0.469c-0.47-0.194-0.973-0.325-1.49-0.386
					c-0.047,0.157-0.092,0.313-0.139,0.471c-0.437-0.045-0.885-0.032-1.328,0.042c-0.068-0.153-0.136-0.308-0.204-0.46
					c-0.247,0.045-0.494,0.109-0.736,0.189c-0.243,0.081-0.475,0.177-0.695,0.286c0.069,0.153,0.137,0.306,0.205,0.459
					c-0.387,0.202-0.728,0.451-1.018,0.736c-0.155-0.09-0.311-0.179-0.465-0.269c-0.337,0.343-0.606,0.729-0.809,1.144
					c0.156,0.089,0.31,0.178,0.464,0.268c-0.168,0.361-0.276,0.745-0.319,1.139c-0.181,0.008-0.361,0.017-0.542,0.026
					c-0.041,0.449-0.006,0.907,0.107,1.365c0.18-0.009,0.36-0.017,0.54-0.025C242.563,172.161,242.627,172.35,242.712,172.538z
					 M245.521,167.923c1.963-0.651,4.192,0.28,4.932,2.06c0.74,1.781-0.258,3.716-2.188,4.345c-1.931,0.629-4.091-0.269-4.867-2.027
					C242.624,170.545,243.554,168.576,245.521,167.923z M247.401,172.273c0.697-0.228,1.049-0.927,0.779-1.566
					c-0.271-0.637-1.063-0.967-1.767-0.735c-0.701,0.232-1.044,0.936-0.769,1.57C245.919,172.175,246.702,172.502,247.401,172.273z
					 M246.74,170.729c0.24-0.079,0.511,0.033,0.604,0.251c0.093,0.218-0.026,0.458-0.266,0.537
					c-0.239,0.079-0.509-0.034-0.602-0.251C246.383,171.049,246.501,170.808,246.74,170.729z"/>
				<g>
					<path fill="#6D6E71" d="M212.215,158.091c0.202,0.324,0.428,0.629,0.672,0.916c-0.239,0.216-0.479,0.432-0.717,0.647
						c0.602,0.676,1.302,1.257,2.073,1.735c0.24-0.215,0.479-0.429,0.72-0.644c0.691,0.413,1.441,0.737,2.228,0.963
						c-0.051,0.296-0.103,0.591-0.152,0.887c0.912,0.248,1.864,0.383,2.826,0.394c0.055-0.296,0.107-0.591,0.163-0.886
						c0.818-0.004,1.644-0.108,2.452-0.32c0.154,0.269,0.308,0.537,0.46,0.806c0.449-0.125,0.894-0.278,1.333-0.463
						c0.436-0.186,0.851-0.397,1.24-0.628c-0.15-0.27-0.3-0.541-0.452-0.811c0.69-0.425,1.294-0.93,1.799-1.492
						c0.305,0.144,0.61,0.289,0.913,0.433c0.585-0.671,1.051-1.412,1.38-2.196c-0.306-0.146-0.612-0.292-0.919-0.437
						c0.271-0.683,0.426-1.4,0.456-2.129c0.35-0.037,0.696-0.072,1.046-0.107c0.02-0.828-0.105-1.668-0.389-2.494
						c-0.35,0.036-0.701,0.072-1.051,0.108c-0.126-0.342-0.283-0.682-0.473-1.017c-0.191-0.333-0.407-0.649-0.646-0.948
						c0.256-0.206,0.513-0.41,0.769-0.615c-0.585-0.706-1.29-1.317-2.078-1.825c-0.257,0.207-0.514,0.413-0.77,0.62
						c-0.705-0.434-1.482-0.775-2.301-1.015c0.058-0.295,0.118-0.59,0.176-0.885c-0.955-0.263-1.96-0.406-2.976-0.412
						c-0.057,0.294-0.111,0.589-0.168,0.884c-0.857,0.008-1.723,0.121-2.566,0.348c-0.165-0.265-0.332-0.531-0.496-0.795
						c-0.469,0.133-0.933,0.3-1.387,0.498c-0.451,0.199-0.877,0.424-1.276,0.67c0.168,0.264,0.336,0.528,0.503,0.792
						c-0.701,0.451-1.304,0.979-1.796,1.562c-0.32-0.129-0.641-0.258-0.96-0.386c-0.568,0.698-0.999,1.464-1.286,2.263
						c0.318,0.127,0.638,0.255,0.955,0.383c-0.235,0.694-0.353,1.417-0.344,2.146c-0.345,0.056-0.689,0.111-1.033,0.167
						c0.032,0.826,0.207,1.653,0.532,2.458c0.342-0.056,0.684-0.11,1.025-0.165C211.843,157.437,212.014,157.768,212.215,158.091z
						 M216.554,149.083c3.653-1.604,8.184-0.324,9.96,2.8c1.783,3.126,0.227,6.834-3.318,8.341
						c-3.551,1.507-7.832,0.316-9.723-2.714C211.588,154.482,212.898,150.684,216.554,149.083z M221.12,156.638
						c1.287-0.553,1.818-1.897,1.165-3.008c-0.649-1.112-2.251-1.562-3.552-0.997c-1.301,0.563-1.801,1.919-1.133,3.019
						C218.265,156.751,219.833,157.189,221.12,156.638z M219.538,153.967c0.43-0.184,0.958-0.036,1.176,0.331
						c0.217,0.367,0.045,0.814-0.385,0.998c-0.426,0.184-0.951,0.038-1.169-0.328C218.94,154.604,219.109,154.154,219.538,153.967z
						 M222.149,158.402c2.402-1.027,3.427-3.545,2.215-5.64c-1.211-2.095-4.247-2.951-6.698-1.882
						c-2.451,1.068-3.363,3.628-2.105,5.68C216.822,158.613,219.746,159.428,222.149,158.402z M218.233,151.807
						c1.838-0.802,4.115-0.161,5.031,1.412c0.916,1.575,0.155,3.473-1.658,4.25c-1.812,0.775-4.023,0.158-4.969-1.391
						C215.694,154.53,216.391,152.608,218.233,151.807z"/>
				</g>
				<g>
					<path fill-rule="evenodd" clip-rule="evenodd" fill="#DA1C5C" d="M242.19,181.274c-1.11-1.22-8.183-8.613-12.868-13.138
						c-2.441-2.373-3.688-5.327-3.514-8.321c0.165-2.844,1.602-5.445,4.045-7.324c2.151-1.652,4.93-2.562,7.826-2.562
						c3.027,0,5.92,0.979,8.148,2.725c1.854-1.017,4.024-1.565,6.255-1.565c3.699,0,7.173,1.448,9.531,3.972
						c2.102,2.25,3.091,5.053,2.787,7.892c-0.32,2.997-2.041,5.719-4.845,7.664c-5.174,3.572-13.416,9.712-14.874,10.862
						l-1.342,1.058L242.19,181.274z"/>
					<path fill="#D4EFFC" d="M237.679,151.764c2.945,0,5.898,1.077,7.962,3.177c1.855-1.359,4.145-2.019,6.441-2.018
						c3.047,0,6.109,1.161,8.191,3.39c3.663,3.923,3.01,9.486-1.763,12.797c-5.351,3.694-13.569,9.828-14.965,10.929
						c-1.202-1.32-8.29-8.722-12.951-13.222c-4.147-4.032-3.883-9.597,0.376-12.872
						C232.877,152.481,235.276,151.764,237.679,151.764 M237.679,148.096c-3.298,0-6.474,1.044-8.942,2.94
						c-2.873,2.209-4.563,5.289-4.76,8.673c-0.204,3.534,1.237,6.992,4.062,9.737c4.669,4.508,11.693,11.851,12.796,13.062
						l2.301,2.526l2.683-2.116c1.447-1.142,9.635-7.24,14.777-10.791c3.255-2.258,5.251-5.445,5.63-8.98
						c0.36-3.377-0.801-6.693-3.271-9.338c-2.704-2.895-6.667-4.555-10.872-4.555c-2.128,0-4.213,0.442-6.082,1.271
						C243.609,148.961,240.7,148.096,237.679,148.096L237.679,148.096z"/>
				</g>
			</g>
		</g>
		<g>
			<defs>
				<path id="SVGID_5_" d="M267.263,189.52c-0.395,2.043-2.438,3.359-4.568,2.976c-32.473-5.855-65.728-5.98-98.258-0.369
					c-2.134,0.368-4.173-0.929-4.561-2.931c-2.32-12.158-4.639-24.315-6.958-36.473c-0.387-2.001,1.304-4.019,3.784-4.466
					c37.635-6.792,76.176-6.946,113.881-0.45c2.483,0.427,4.174,2.462,3.778,4.504C271.995,164.714,269.628,177.117,267.263,189.52z
					"/>
			</defs>
			<clipPath id="SVGID_6_">
				<use xlink:href="#SVGID_5_"  overflow="visible"/>
			</clipPath>
		</g>
	</g>
	<g>
		<circle cx="103.185" cy="155.647" r="1.008"/>
		<circle cx="102.948" cy="160.122" r="1.008"/>
		<circle cx="102.711" cy="164.597" r="1.007"/>
		<circle cx="102.474" cy="169.072" r="1.008"/>
		<circle cx="102.238" cy="173.547" r="1.008"/>
		<circle cx="102.001" cy="178.021" r="1.007"/>
		<circle cx="101.764" cy="182.496" r="1.008"/>
		<circle cx="101.527" cy="186.971" r="1.007"/>
		<circle cx="101.29" cy="191.445" r="1.008"/>
		<circle cx="101.054" cy="195.92" r="1.008"/>
		<circle cx="100.817" cy="200.395" r="1.008"/>
		<circle cx="100.58" cy="204.869" r="1.008"/>
		<circle cx="100.343" cy="209.344" r="1.007"/>
		<circle cx="100.106" cy="213.818" r="1.007"/>
		<circle cx="99.869" cy="218.293" r="1.008"/>
		<circle cx="99.633" cy="222.768" r="1.008"/>
		<circle cx="99.396" cy="227.242" r="1.007"/>
		<circle cx="99.159" cy="231.718" r="1.007"/>
	</g>
	<g>
		<circle cx="290.083" cy="147.146" r="1.008"/>
		<circle cx="290.668" cy="151.588" r="1.008"/>
		<circle cx="291.253" cy="156.03" r="1.008"/>
		<circle cx="291.838" cy="160.473" r="1.007"/>
		<circle cx="292.424" cy="164.916" r="1.007"/>
		<circle cx="293.008" cy="169.358" r="1.008"/>
		<circle cx="293.594" cy="173.801" r="1.007"/>
		<circle cx="294.18" cy="178.243" r="1.008"/>
		<circle cx="294.764" cy="182.686" r="1.008"/>
		<circle cx="295.349" cy="187.129" r="1.008"/>
		<circle cx="295.934" cy="191.571" r="1.008"/>
		<circle cx="296.519" cy="196.014" r="1.008"/>
		<circle cx="297.105" cy="200.456" r="1.008"/>
		<circle cx="297.689" cy="204.899" r="1.007"/>
		<circle cx="298.274" cy="209.342" r="1.007"/>
		<circle cx="298.86" cy="213.784" r="1.008"/>
		<circle cx="299.445" cy="218.227" r="1.008"/>
		<circle cx="300.03" cy="222.669" r="1.007"/>
		<circle cx="300.615" cy="227.112" r="1.007"/>
	</g>
</g>
<g id="hips_x2F_legs">
	<g>
		<path stroke="#000000" stroke-width="0.4291" stroke-miterlimit="10" d="M306.341,525.719l-39.919-2.826l-22.248-19.376
			l6.077-14.705c-1.109-3.014,8.625-0.986,12.363-0.986l41.733-1.524L306.341,525.719z"/>
		
			<rect x="261.612" y="339.698" transform="matrix(0.9725 -0.233 0.233 0.9725 -83.0184 73.745)" fill="#FDB949" width="18.091" height="97.192"/>
		<path fill="#B86028" d="M266.422,473.09l-13.687,0.892c-1.732,0.113-3.434-0.496-4.7-1.684c-1.267-1.187-1.985-2.845-1.985-4.581
			v-45.816c0-3.309,2.568-6.049,5.87-6.264l14.502-0.944V473.09z"/>
		<polygon fill="#D4EFFC" points="279.461,467.624 266.422,468.473 266.422,420.123 279.461,419.273 		"/>
		<polygon fill="#C6DDF3" points="291.141,469.854 279.461,470.615 279.461,413.84 291.141,413.081 		"/>
		<path fill="#B86028" d="M299.562,465.05c0,3.309-2.568,6.049-5.87,6.265l-2.551,0.166v-61.662l1.735-0.113
			c1.732-0.112,3.434,0.497,4.7,1.684c1.267,1.188,1.985,2.846,1.985,4.582V465.05z"/>
		<polygon fill="#B86028" points="244.174,503.517 235.292,523.659 246.711,559.024 270.659,578.689 276.842,562.195 
			254.482,536.187 		"/>
		<polygon fill="#F2913D" points="244.174,503.517 254.482,536.187 276.842,562.195 309.354,557.754 309.354,518.741 
			303.169,507.005 266.803,518.977 		"/>
		<polygon fill="#FDB949" points="309.354,557.754 313.161,572.663 270.659,578.689 276.842,562.195 		"/>
		<polygon fill="#B86028" points="309.354,518.741 312.999,572.029 309.354,557.754 		"/>
	</g>
	<g>
		<polygon stroke="#000000" stroke-width="0.4291" stroke-miterlimit="10" points="122.73,499.262 117.569,522.893 125.446,539.735 
			181.403,532.944 177.6,499.262 		"/>
		
			<rect x="147.648" y="345.302" transform="matrix(0.9839 0.1785 -0.1785 0.9839 74.3993 -21.6903)" fill="#FDB949" width="20.218" height="114.744"/>
		<path fill="#B86028" d="M138.038,496l-11.759,0.767c-1.732,0.112-3.434-0.497-4.701-1.684c-1.267-1.187-1.985-2.846-1.985-4.581
			v-48.43c0-3.309,2.568-6.049,5.87-6.265l12.576-0.819V496z"/>
		<path fill="#B86028" d="M176.702,487.598c0,3.309-2.568,6.049-5.87,6.265l-6.502,0.424v-61.013l5.686-0.37
			c1.732-0.112,3.434,0.497,4.7,1.684c1.267,1.188,1.985,2.846,1.985,4.581V487.598z"/>
		<polygon fill="#D4EFFC" points="151.184,490.532 138.038,491.388 138.038,440.663 151.184,439.806 		"/>
		<polygon fill="#C6DDF3" points="164.33,489.674 151.184,490.532 151.184,447.703 164.33,446.845 		"/>
		<polygon fill="#B86028" points="117.569,522.893 146.527,579.933 141.774,598.285 120.255,578.746 		"/>
		<polygon fill="#FDB949" points="146.527,579.933 182.732,575.576 190.623,591.552 141.774,598.285 		"/>
		<polygon fill="#F2913D" points="146.527,579.933 126.08,539.659 181.403,532.944 182.732,575.576 		"/>
		<polygon fill="#B86028" points="190.623,591.552 182.732,575.576 177.685,511.941 187.19,534.913 		"/>
	</g>
	<g>
		<circle fill="#D4EFFC" cx="171.37" cy="343.329" r="23.748"/>
		<circle fill="#D4EFFC" cx="255.864" cy="339.453" r="23.748"/>
		<g>
			<path fill="#F2913D" d="M208.085,269.336c-19.353,0.686-44.049,9.768-44.049,9.768c-13.518,4.279-9.253,23.819-7.52,32.387
				c1.734,8.567,5.806,16.451,19.172,20.414c13.366,3.964,11.995,18.999,12.338,25.283c0.343,6.282,8.07,8.453,8.07,8.453
				s8.434-0.284,16.64-0.852l6.696-95.521C215.841,269.18,212.047,269.196,208.085,269.336z"/>
			<path fill="#FDB949" d="M260.705,288.529c-0.323-6.511-4.134-10.967-10.989-14.309c-5.451-2.658-16.325-4.609-30.282-4.952
				l-6.696,95.521c4.549-0.313,9.026-0.717,11.961-1.205c8.225-1.371,8.909-15.079,10.281-20.031
				c1.37-4.951,5.484-11.842,14.736-19.482c9.254-7.64,10.989-22.861,10.989-22.861S261.027,295.041,260.705,288.529z"/>
		</g>
	</g>
	<circle cx="213.003" cy="279.578" r="2.35"/>
	<circle cx="212.248" cy="289.9" r="2.351"/>
	<circle cx="211.493" cy="300.222" r="2.351"/>
	<circle cx="210.738" cy="310.543" r="2.35"/>
	<circle cx="209.983" cy="320.865" r="2.351"/>
	<circle cx="209.228" cy="331.186" r="2.351"/>
	<circle cx="208.474" cy="341.509" r="2.351"/>
	<circle cx="207.719" cy="351.831" r="2.351"/>
	<circle cx="223.662" cy="279.578" r="2.351"/>
	<circle cx="222.907" cy="289.9" r="2.35"/>
	<circle cx="222.153" cy="300.222" r="2.351"/>
	<circle cx="221.398" cy="310.543" r="2.351"/>
	<circle cx="220.642" cy="320.865" r="2.351"/>
	<circle cx="219.888" cy="331.186" r="2.351"/>
	<circle cx="219.133" cy="341.509" r="2.351"/>
	<circle cx="218.378" cy="351.831" r="2.351"/>
	<g>
		<path fill="#F2913D" d="M141.52,478.125l-7.302,15.743l-21.364-32.055c0,0,2.837,35.641,11.705,57.056
			c8.869,21.415,16.006,24.143,26.625,23.096c2.365-0.232,4.977-0.713,7.628-1.52l-6.448-63.027L141.52,478.125z"/>
		<path fill="#FDB949" d="M172.057,483.459l-3.32-7.108l-16.374,1.066l6.448,63.027c9.256-2.815,18.994-9.642,20.373-24.07
			c1.773-18.561,3.547-66.917,3.547-66.917L172.057,483.459z"/>
	</g>
	<g>
		<path fill="#F2913D" d="M271.584,454.496l-8.691,15.835l-22.003-32.248c0,0,7.061,55.496,15.347,65.551
			c8.285,10.054,14.178,14.287,25.764,13.533c0.769-0.05,1.513-0.141,2.235-0.261l-4.007-62.973L271.584,454.496z"/>
		<path fill="#FDB949" d="M307.168,428.061l-6.519,30.032l-2.894-5.303l-17.527,1.143l4.007,62.973
			c10.161-1.708,15.742-10.251,17.772-19.513C304.18,487.471,311.887,439.553,307.168,428.061z"/>
	</g>
</g>
<g id="left_arm">
	<g>
		<g>
			<polygon fill="#F2913D" points="49.795,339.917 22.097,472.787 50.355,474.549 63.076,342.098 			"/>
			<polygon fill="#FDB949" points="71.076,343.412 63.076,342.098 50.355,474.549 65.852,475.515 			"/>
		</g>
		<g>
			<path fill="#F2913D" d="M88.197,496.806l-0.338,27.16l-11.664-2.896c0,0-8.738-3.803-7.317-9.409
				c1.421-5.605,6.605-10.721,6.605-10.721L88.197,496.806z"/>
			<path fill="#F2913D" d="M56.579,512.482l9.274,12.36c0,0,2.767,6.322-0.27,10.574c-3.036,4.252-10.744,11.859-10.744,11.859
				s-3.281,1.747-5.739-0.981l-14.073-27.495L56.579,512.482z"/>
			<polygon fill="#FDB949" points="77.5,477.464 90.089,497.438 72.342,503.328 67.297,484.918 			"/>
			<polygon fill="#FDB949" points="48.661,492.196 58.796,513.015 33.969,521.388 25.197,490.797 			"/>
			<polygon fill="#F2913D" points="72.091,472.196 79.444,477.797 66.786,487.91 53.82,478.918 			"/>
			<path fill="#F2913D" d="M59.794,478.402c0,0-8.743,15.59-8.635,16.069c0.108,0.479-27.491-1.934-27.491-1.934l-4.883-12.841
				L59.794,478.402z"/>
			<path fill="#B86028" d="M66.706,457.993l8.067,11.12c0,0,0.586,4.669-0.981,5.733c-1.567,1.063-21.043,9.891-31.59,10.242
				c-10.547,0.35-22.766-0.203-26.27-3.11c-3.504-2.907-3.945-4.831-3.353-9.192c0.592-4.362,1.996-11.664,1.996-11.664
				s0.113-5.165,3.014-5.924c2.9-0.76,8.886-2.66,8.886-2.66l-0.887,4.255c0,0-0.213,3.138,6.915,3.687
				C37.95,460.9,56.651,464.584,66.706,457.993z"/>
		</g>
	</g>
	<g>
		
			<rect x="58.977" y="182.048" transform="matrix(0.9989 0.0467 -0.0467 0.9989 12.2092 -2.7002)" fill="#F2913D" width="9.782" height="155.563"/>
		<circle fill="#D4EFFC" cx="59.813" cy="343.553" r="13.634"/>
	</g>
	<g>
		<circle fill="#D4EFFC" cx="72.392" cy="168.423" r="20.78"/>
		<path fill="#F2913D" d="M86.606,194.027H85.12c-1.521,0-2.842-1.046-3.191-2.526l-11.467-48.688h16.144V194.027z"/>
		<path fill="#FDB949" d="M94.783,190.962c-0.112,1.724-1.543,3.064-3.27,3.064h-4.908v-51.208h7.819"/>
	</g>
</g>
</svg>
