<?xml version="1.0" encoding="utf-8"?>
<!-- Generator: Adobe Illustrator 16.0.0, SVG Export Plug-In . SVG Version: 6.00 Build 0)  -->
<!DOCTYPE svg PUBLIC "-//W3C//DTD SVG 1.1//EN" "http://www.w3.org/Graphics/SVG/1.1/DTD/svg11.dtd">
<svg version="1.1" id="Layer_1" xmlns="http://www.w3.org/2000/svg" xmlns:xlink="http://www.w3.org/1999/xlink" x="0px" y="0px"
	 width="200px" height="195px" viewBox="1150 1152.5 200 195" enable-background="new 1150 1152.5 200 195" xml:space="preserve">
<path fill="#F7DF1E" d="M1150,1152.5h200v194.445h-200V1152.5z"/>
<path d="M1203.129,1314.993l14.88-9.005c2.871,5.09,5.482,9.396,11.746,9.396c6.005,0,9.791-2.348,9.791-11.483v-62.131h18.273
	v62.389c0,18.925-11.094,27.541-27.28,27.541c-14.618,0-23.103-7.571-27.411-16.708 M1267.744,1313.035l14.876-8.615
	c3.92,6.397,9.009,11.096,18.014,11.096c7.572,0,12.399-3.786,12.399-9.008c0-6.264-4.959-8.482-13.312-12.137l-4.569-1.959
	c-13.184-5.611-21.927-12.659-21.927-27.539c0-13.706,10.442-24.149,26.756-24.149c11.618,0,19.971,4.047,25.976,14.62
	l-14.229,9.138c-3.132-5.613-6.523-7.831-11.746-7.831c-5.353,0-8.745,3.393-8.745,7.831c0,5.48,3.393,7.701,11.225,11.096
	l4.568,1.957c15.532,6.657,24.278,13.444,24.278,28.715c0,16.446-12.923,25.452-30.282,25.452c-16.967,0-27.933-8.093-33.283-18.665
	"/>
</svg>
