<?xml version="1.0" encoding="utf-8"?>
<!-- Generator: Adobe Illustrator 16.0.0, SVG Export Plug-In . SVG Version: 6.00 Build 0)  -->
<!DOCTYPE svg PUBLIC "-//W3C//DTD SVG 1.1 Tiny//EN" "http://www.w3.org/Graphics/SVG/1.1/DTD/svg11-tiny.dtd">
<svg version="1.1" baseProfile="tiny" xmlns="http://www.w3.org/2000/svg" xmlns:xlink="http://www.w3.org/1999/xlink" x="0px"
	 y="0px" width="285.928px" height="285.928px" viewBox="-42.964 -45.464 285.928 285.928" xml:space="preserve">
<g id="bg" display="none">
	<rect x="-42.964" y="-45.464" display="inline" fill="#FFFFFF" width="285.928" height="285.928"/>
</g>
<g id="Layer_1" display="none">
	<g id="face" display="inline">
	</g>
	<g id="hair" display="inline">
	</g>
	<g display="inline">
		<g id="circle">
			<circle fill="#8038EB" cx="100" cy="97.5" r="97.035"/>
		</g>
		<g id="features">
			<g>
				<g>
					<path fill="#FFFFFF" d="M147.861,96.14c0,42.269-21.409,76.532-47.817,76.532c-26.409,0-47.817-34.265-47.817-76.532
						c0-42.269,7.271-76.533,47.817-76.533C138.902,19.606,147.861,53.872,147.861,96.14z"/>
					
						<ellipse transform="matrix(-0.9729 0.2311 -0.2311 -0.9729 126.9259 189.6506)" fill="#FFFFFF" cx="52.356" cy="102.259" rx="5.54" ry="13.249"/>
					
						<ellipse transform="matrix(0.9729 0.2311 -0.2311 0.9729 27.3476 -31.3863)" fill="#FFFFFF" cx="147.653" cy="101.046" rx="5.54" ry="13.247"/>
				</g>
				<path fill="#F1F1F1" d="M96.791,9.242c0,0-52.984,2.188-51.355,60.721l6.984,33.093c0,0,1.594-29.524,2.671-34.126
					s11.575-23.862,22.048-27.085c10.474-3.223,36.051-3.223,48.942-13.091c0,0-7.251,10.674-16.718,13.292
					c0,0,17.725,1.813,23.564-3.625c0,0,3.224,7.653,4.632,15.709c1.41,8.057,11.521,35.505,10.483,48.926
					c-1.039,13.42,0.795-15.292,5.428-27.376C158.103,63.595,150.249,8.411,96.791,9.242z"/>
				<g>
					<path fill="#F1F1F1" d="M91.944,74.672c0,0-14.3-5.64-20.343-5.035c-6.042,0.604-10.069,8.459-10.069,8.459
						S76.034,68.63,91.944,74.672z"/>
					<path fill="#F1F1F1" d="M108.056,74.672c0,0,14.3-5.64,20.343-5.035s10.07,8.459,10.07,8.459S123.967,68.63,108.056,74.672z"/>
					<g>
						<path fill="#8038EB" d="M91.232,111.283c0,0-4.146,7.239-2.724,8.167s3.342,0.124,5.259,0.496
							c1.918,0.371,3.446,4.33,6.292,4.393c2.997,0.064,4.958-4.702,6.887-4.702c1.608,0,7.548,0.742,7.362-1.176
							c-0.187-1.918-4.393-7.796-4.393-7.796l5.938,6.497c0,0,1.731,4.33-1.671,4.393c-2.413,0.044-4.338-0.289-6.559,0.311
							c-2.07,0.558-5.073,4.776-7.567,4.771c-2.234-0.007-5.362-3.843-6.725-4.646c-1.362-0.805-3.891-0.591-5.476-0.619
							c-3.495-0.062-1.862-3.751-1.021-4.887C87.838,115.133,91.232,111.283,91.232,111.283z"/>
						<g>
							<path fill="#8038EB" d="M76.323,82.729c-0.684,0.801-1.096,1.838-1.096,2.972c0,2.531,2.052,4.582,4.582,4.582
								c2.531,0,4.583-2.051,4.583-4.582c0-1.134-0.412-2.17-1.095-2.972H76.323z"/>
						</g>
						<g>
							<path fill="#8038EB" d="M118.416,82.729c-0.682,0.801-1.095,1.838-1.095,2.972c0,2.531,2.052,4.582,4.582,4.582
								c2.529,0,4.582-2.051,4.582-4.582c0-1.134-0.412-2.17-1.097-2.972H118.416z"/>
						</g>
						<path fill="#8038EB" d="M82.032,136.1c0,0,8.442,5.202,16.886,5.127c8.444-0.074,20.429-5.127,20.429-5.127H82.032z"/>
						<path fill="#8038EB" d="M68.979,86.121c0,0,4.547-3.119,9.83-3.286c5.285-0.167,12.845,2.888,12.845,2.888
							s-7.316-5.114-12.926-4.591C73.119,81.656,68.979,86.121,68.979,86.121z"/>
						<path fill="#8038EB" d="M133.259,86.121c0,0-4.547-3.119-9.831-3.286s-12.844,2.888-12.844,2.888s7.314-5.114,12.925-4.591
							C129.119,81.656,133.259,86.121,133.259,86.121z"/>
					</g>
				</g>
			</g>
			<g id="beard">
				<path fill="#F1F1F1" d="M148.075,99.041c0,0-6.476,30.011-18.561,41.491c0,0-3.223-12.487-27.189-12.487
					c-23.966,0-34.439,8.459-34.439,12.89c0,4.432-15.253-22.177-15.984-40.393c0,0-1.389,26.093,1.257,35.357
					c2.826,9.897,11.682,12.89,14.702,23.563c3.021,10.675,6.067,24.974,29.229,24.974c31.821,0,32.401-19.334,34.616-24.771
					c2.216-5.438,12.512-15.911,13.922-23.766C147.037,128.044,149.398,108.813,148.075,99.041z M113,157.651
					c-3.65,2.014-8.655-12.892-12.988-12.892c-4.332,0-9.166,13.062-12.791,13.078c-3.625,0.014-13.694-10.479-9.869-17.106
					c0,0,3.827-4.026,9.063-3.825c5.236,0.2,7.854,2.216,10.876,2.216c3.021,0,8.66-2.44,13.896-2.228
					c5.236,0.212,9.868,2.63,10.069,6.055C121.46,146.372,116.651,155.636,113,157.651z"/>
			</g>
		</g>
	</g>
</g>
<g id="type">
	<circle fill="none" cx="100" cy="97.5" r="110.57"/>
	<text transform="matrix(-0.856 -0.517 0.517 -0.856 53.7007 198.7275)" font-family="'MuseoSans-900'" font-size="35">C</text>
	<text transform="matrix(-0.7516 -0.6597 0.6597 -0.7516 34.498 187.1299)" font-family="'MuseoSans-900'" font-size="35">L</text>
	<text transform="matrix(-0.6671 -0.745 0.745 -0.6671 21.603 175.7012)" font-family="'MuseoSans-900'" font-size="35">I</text>
	<text transform="matrix(-0.5533 -0.833 0.833 -0.5533 14.7988 169.0908)" font-family="'MuseoSans-900'" font-size="35">C</text>
	<text transform="matrix(-0.3789 -0.9254 0.9254 -0.3789 2.2227 150.5801)" font-family="'MuseoSans-900'" font-size="35">K</text>
	<text transform="matrix(-0.2616 -0.9652 0.9652 -0.2616 -5.6807 130.3643)" font-family="'MuseoSans-900'" font-size="35"> </text>
	<text transform="matrix(-0.1275 -0.9918 0.9918 -0.1275 -7.9268 125.2383)" font-family="'MuseoSans-900'" font-size="35">H</text>
	<text transform="matrix(0.0601 -0.9982 0.9982 0.0601 -10.9854 101.0234)" font-family="'MuseoSans-900'" font-size="35">E</text>
	<text transform="matrix(0.234 -0.9722 0.9722 0.234 -10.3081 83.1826)" font-family="'MuseoSans-900'" font-size="35">R</text>
	<text transform="matrix(0.4011 -0.916 0.916 0.4011 -5.4595 62.6128)" font-family="'MuseoSans-900'" font-size="35">E</text>
	<text transform="matrix(0.4975 -0.8675 0.8675 0.4975 2.0234 46.0479)" font-family="'MuseoSans-900'" font-size="35"> </text>
	<text transform="matrix(0.5912 -0.8065 0.8065 0.5912 4.3823 40.9043)" font-family="'MuseoSans-900'" font-size="35">T</text>
	<text transform="matrix(0.7393 -0.6734 0.6734 0.7393 14.9814 25.3774)" font-family="'MuseoSans-900'" font-size="35">O</text>
	<text transform="matrix(0.8269 -0.5623 0.5623 0.8269 34.5903 8.2539)" font-family="'MuseoSans-900'" font-size="35"> </text>
	<text transform="matrix(0.8819 -0.4713 0.4713 0.8819 39.0068 4.7026)" font-family="'MuseoSans-900'" font-size="35">S</text>
	<text transform="matrix(0.9462 -0.3236 0.3236 0.9462 54.46 -3.814)" font-family="'MuseoSans-900'" font-size="35">E</text>
	<text transform="matrix(0.9903 -0.139 0.139 0.9903 71.1152 -10.1138)" font-family="'MuseoSans-900'" font-size="35">N</text>
	<text transform="matrix(0.9975 0.0711 -0.0711 0.9975 94.96 -13.7148)" font-family="'MuseoSans-900'" font-size="35">D</text>
	<text transform="matrix(0.9795 0.2012 -0.2012 0.9795 118.4443 -11.6123)" font-family="'MuseoSans-900'" font-size="35"> </text>
	<text transform="matrix(0.9364 0.3511 -0.3511 0.9364 124.0137 -11.6147)" font-family="'MuseoSans-900'" font-size="35">M</text>
	<text transform="matrix(0.8429 0.5381 -0.5381 0.8429 150.749 -1.2998)" font-family="'MuseoSans-900'" font-size="35">E</text>
	<text transform="matrix(0.7805 0.6252 -0.6252 0.7805 165.9512 8.6528)" font-family="'MuseoSans-900'" font-size="35"> </text>
	<text transform="matrix(0.7013 0.7129 -0.7129 0.7013 170.7041 11.7041)" font-family="'MuseoSans-900'" font-size="35">A</text>
	<text transform="matrix(0.546 0.8378 -0.8378 0.546 185.3223 25.8877)" font-family="'MuseoSans-900'" font-size="35">N</text>
	<text transform="matrix(0.4279 0.9038 -0.9038 0.4279 198.2773 46.6226)" font-family="'MuseoSans-900'" font-size="35"> </text>
	<text transform="matrix(0.3278 0.9447 -0.9447 0.3278 201.1133 51.5142)" font-family="'MuseoSans-900'" font-size="35">E</text>
	<text transform="matrix(0.1238 0.9923 -0.9923 0.1238 207.7588 67.9971)" font-family="'MuseoSans-900'" font-size="35">M</text>
	<text transform="matrix(-0.0936 0.9956 -0.9956 -0.0936 211.1641 96.4424)" font-family="'MuseoSans-900'" font-size="35">A</text>
	<text transform="matrix(-0.2276 0.9738 -0.9738 -0.2276 209.0371 116.9189)" font-family="'MuseoSans-900'" font-size="35">I</text>
	<text transform="matrix(-0.3444 0.9388 -0.9388 -0.3444 207.2314 126.3271)" font-family="'MuseoSans-900'" font-size="35">L</text>
</g>
<g id="type-copy" display="none">
	<circle display="inline" fill="none" cx="100" cy="97.5" r="110.57"/>
	
		<text transform="matrix(-0.856 -0.517 0.517 -0.856 53.7007 198.7275)" display="inline" font-family="'MuseoSans-900'" font-size="35">C</text>
	
		<text transform="matrix(-0.7516 -0.6597 0.6597 -0.7516 34.498 187.1299)" display="inline" font-family="'MuseoSans-900'" font-size="35">L</text>
	
		<text transform="matrix(-0.6671 -0.745 0.745 -0.6671 21.603 175.7012)" display="inline" font-family="'MuseoSans-900'" font-size="35">I</text>
	
		<text transform="matrix(-0.5533 -0.833 0.833 -0.5533 14.7988 169.0908)" display="inline" font-family="'MuseoSans-900'" font-size="35">C</text>
	
		<text transform="matrix(-0.3789 -0.9254 0.9254 -0.3789 2.2227 150.5801)" display="inline" font-family="'MuseoSans-900'" font-size="35">K</text>
	
		<text transform="matrix(-0.2616 -0.9652 0.9652 -0.2616 -5.6807 130.3643)" display="inline" font-family="'MuseoSans-900'" font-size="35"> </text>
	
		<text transform="matrix(-0.1275 -0.9918 0.9918 -0.1275 -7.9268 125.2383)" display="inline" font-family="'MuseoSans-900'" font-size="35">H</text>
	
		<text transform="matrix(0.0601 -0.9982 0.9982 0.0601 -10.9854 101.0234)" display="inline" font-family="'MuseoSans-900'" font-size="35">E</text>
	
		<text transform="matrix(0.234 -0.9722 0.9722 0.234 -10.3081 83.1826)" display="inline" font-family="'MuseoSans-900'" font-size="35">R</text>
	
		<text transform="matrix(0.4011 -0.916 0.916 0.4011 -5.4595 62.6128)" display="inline" font-family="'MuseoSans-900'" font-size="35">E</text>
	
		<text transform="matrix(0.4975 -0.8675 0.8675 0.4975 2.0234 46.0479)" display="inline" font-family="'MuseoSans-900'" font-size="35"> </text>
	
		<text transform="matrix(0.5912 -0.8065 0.8065 0.5912 4.3823 40.9043)" display="inline" font-family="'MuseoSans-900'" font-size="35">T</text>
	
		<text transform="matrix(0.7393 -0.6734 0.6734 0.7393 14.9814 25.3774)" display="inline" font-family="'MuseoSans-900'" font-size="35">O</text>
	
		<text transform="matrix(0.8269 -0.5623 0.5623 0.8269 34.5903 8.2539)" display="inline" font-family="'MuseoSans-900'" font-size="35"> </text>
	
		<text transform="matrix(0.8819 -0.4713 0.4713 0.8819 39.0068 4.7026)" display="inline" font-family="'MuseoSans-900'" font-size="35">S</text>
	
		<text transform="matrix(0.9462 -0.3236 0.3236 0.9462 54.46 -3.814)" display="inline" font-family="'MuseoSans-900'" font-size="35">E</text>
	
		<text transform="matrix(0.9903 -0.139 0.139 0.9903 71.1152 -10.1138)" display="inline" font-family="'MuseoSans-900'" font-size="35">N</text>
	
		<text transform="matrix(0.9975 0.0711 -0.0711 0.9975 94.96 -13.7148)" display="inline" font-family="'MuseoSans-900'" font-size="35">D</text>
	
		<text transform="matrix(0.9795 0.2012 -0.2012 0.9795 118.4443 -11.6123)" display="inline" font-family="'MuseoSans-900'" font-size="35"> </text>
	
		<text transform="matrix(0.9364 0.3511 -0.3511 0.9364 124.0137 -11.6147)" display="inline" font-family="'MuseoSans-900'" font-size="35">M</text>
	
		<text transform="matrix(0.8429 0.5381 -0.5381 0.8429 150.749 -1.2998)" display="inline" font-family="'MuseoSans-900'" font-size="35">E</text>
	
		<text transform="matrix(0.7805 0.6252 -0.6252 0.7805 165.9512 8.6528)" display="inline" font-family="'MuseoSans-900'" font-size="35"> </text>
	
		<text transform="matrix(0.7013 0.7129 -0.7129 0.7013 170.7041 11.7041)" display="inline" font-family="'MuseoSans-900'" font-size="35">A</text>
	
		<text transform="matrix(0.546 0.8378 -0.8378 0.546 185.3223 25.8877)" display="inline" font-family="'MuseoSans-900'" font-size="35">N</text>
	
		<text transform="matrix(0.4279 0.9038 -0.9038 0.4279 198.2773 46.6226)" display="inline" font-family="'MuseoSans-900'" font-size="35"> </text>
	
		<text transform="matrix(0.3278 0.9447 -0.9447 0.3278 201.1133 51.5142)" display="inline" font-family="'MuseoSans-900'" font-size="35">E</text>
	
		<text transform="matrix(0.1238 0.9923 -0.9923 0.1238 207.7588 67.9971)" display="inline" font-family="'MuseoSans-900'" font-size="35">M</text>
	
		<text transform="matrix(-0.0936 0.9956 -0.9956 -0.0936 211.1641 96.4424)" display="inline" font-family="'MuseoSans-900'" font-size="35">A</text>
	
		<text transform="matrix(-0.2276 0.9738 -0.9738 -0.2276 209.0371 116.9189)" display="inline" font-family="'MuseoSans-900'" font-size="35">I</text>
	
		<text transform="matrix(-0.3444 0.9388 -0.9388 -0.3444 207.2314 126.3271)" display="inline" font-family="'MuseoSans-900'" font-size="35">L</text>
</g>
</svg>
