<?xml version="1.0" encoding="utf-8"?>
<!-- Generator: Adobe Illustrator 16.0.0, SVG Export Plug-In . SVG Version: 6.00 Build 0)  -->
<!DOCTYPE svg PUBLIC "-//W3C//DTD SVG 1.1//EN" "http://www.w3.org/Graphics/SVG/1.1/DTD/svg11.dtd">
<svg version="1.1" xmlns="http://www.w3.org/2000/svg" xmlns:xlink="http://www.w3.org/1999/xlink" x="0px" y="0px"
	 width="963.579px" height="963.579px" viewBox="0 0 963.579 963.579" enable-background="new 0 0 963.579 963.579"
	 xml:space="preserve">
<g id="circle">
	<circle fill="#8038EB" cx="481.789" cy="481.789" r="481.789"/>
</g>
<g id="face">
</g>
<g id="hair">
</g>
<g id="features">
	<g>
		<g>
			<path fill="#FFFFFF" d="M719.424,475.039c0,209.867-106.296,379.997-237.419,379.997s-237.419-170.13-237.419-379.997
				S280.683,95.042,482.005,95.042C674.941,95.042,719.424,265.172,719.424,475.039z"/>
			
				<ellipse transform="matrix(0.9729 -0.2311 0.2311 0.9729 -110.1585 70.3829)" fill="#FFFFFF" cx="245.332" cy="505.374" rx="27.509" ry="65.783"/>
			
				<ellipse transform="matrix(-0.9729 -0.2311 0.2311 -0.9729 1301.6387 1151.2214)" fill="#FFFFFF" cx="718.247" cy="499.374" rx="27.51" ry="65.783"/>
		</g>
		<path fill="#F1F1F1" d="M465.856,43.58c0,0-263.077,10.87-254.987,301.485l34.676,164.308c0,0,7.912-146.595,13.26-169.44
			S316.279,221.45,368.279,205.45s179-16,243-65c0,0-36,53-83,66c0,0,88,9,117-18c0,0,16,38,23,78s57.205,176.288,52.051,242.923
			s3.949-75.923,26.949-135.923S731.279,39.45,465.856,43.58z"/>
		<g>
			<path fill="#F1F1F1" d="M441.79,368.45c0,0-71-28-101-25s-50,42-50,42S362.79,338.45,441.79,368.45z"/>
			<path fill="#F1F1F1" d="M521.79,368.45c0,0,71-28,101-25s50,42,50,42S600.79,338.45,521.79,368.45z"/>
			<g>
				<path fill="#8038EB" d="M438.252,550.229c0,0-20.583,35.941-13.518,40.549c7.066,4.608,16.59,0.614,26.112,2.458
					s17.108,21.503,31.238,21.811c14.879,0.323,24.614-23.347,34.194-23.347c7.987,0,37.477,3.687,36.556-5.836
					c-0.922-9.523-21.811-38.707-21.811-38.707l29.49,32.255c0,0,8.602,21.503-8.294,21.811
					c-11.982,0.218-21.537-1.433-32.563,1.536c-10.283,2.77-25.189,23.724-37.572,23.689c-11.098-0.031-26.631-19.081-33.389-23.075
					c-6.759-3.994-19.32-2.933-27.182-3.072c-17.361-0.307-9.255-18.631-5.074-24.268
					C421.402,569.344,438.252,550.229,438.252,550.229z"/>
				<g>
					<path fill="#8038EB" d="M364.226,408.45c-3.388,3.972-5.437,9.121-5.437,14.75c0,12.564,10.186,22.75,22.75,22.75
						s22.75-10.186,22.75-22.75c0-5.629-2.049-10.778-5.437-14.75H364.226z"/>
				</g>
				<g>
					<path fill="#8038EB" d="M573.226,408.45c-3.388,3.972-5.437,9.121-5.437,14.75c0,12.564,10.186,22.75,22.75,22.75
						s22.75-10.186,22.75-22.75c0-5.629-2.049-10.778-5.437-14.75H573.226z"/>
				</g>
				<path fill="#8038EB" d="M392.573,673.45c0,0,41.921,25.826,83.842,25.452s101.434-25.452,101.434-25.452H392.573z"/>
				<path fill="#8038EB" d="M327.761,425.295c0,0,22.572-15.487,48.811-16.314s63.771,14.336,63.771,14.336
					s-36.324-25.393-64.174-22.793S327.761,425.295,327.761,425.295z"/>
				<path fill="#8038EB" d="M646.923,425.295c0,0-22.572-15.487-48.811-16.314s-63.771,14.336-63.771,14.336
					s36.324-25.393,64.174-22.793S646.923,425.295,646.923,425.295z"/>
			</g>
		</g>
	</g>
	<g id="beard">
		<path fill="#F1F1F1" d="M720.483,489.442c0,0-32.148,149.008-92.148,206.008c0,0-16-62-135-62s-171,42-171,64
			s-75.736-110.111-79.368-200.556c0,0-6.89,129.556,6.243,175.556c14.03,49.144,57.999,64,72.999,117s30.126,124,145.126,124
			c158,0,160.876-96,171.876-123s62.124-79,69.124-118S727.059,537.967,720.483,489.442z M546.334,780.45
			c-18.125,10-42.979-64-64.489-64s-45.511,64.858-63.511,64.929s-68-52.027-49-84.929c0,0,19-20,45-19s39,11,54,11
			s43-12.118,69-11.059s49,13.059,50,30.059S564.459,770.45,546.334,780.45z"/>
	</g>
</g>
</svg>
