<?xml version="1.0" encoding="utf-8"?>
<!-- Generator: Adobe Illustrator 16.0.0, SVG Export Plug-In . SVG Version: 6.00 Build 0)  -->
<!DOCTYPE svg PUBLIC "-//W3C//DTD SVG 1.1//EN" "http://www.w3.org/Graphics/SVG/1.1/DTD/svg11.dtd">
<svg version="1.1" id="Layer_1" xmlns="http://www.w3.org/2000/svg" xmlns:xlink="http://www.w3.org/1999/xlink" x="0px" y="0px"
	 width="200px" height="195px" viewBox="381.79 384.29 200 195" enable-background="new 381.79 384.29 200 195"
	 xml:space="preserve">
<g id="circle">
	<circle fill="#8038EB" cx="481.789" cy="481.79" r="97.035"/>
</g>
<g id="face">
</g>
<g id="hair">
</g>
<g id="features">
	<g>
		<g>
			<path fill="#FFFFFF" d="M529.65,480.43c0,42.268-21.409,76.532-47.817,76.532c-26.409,0-47.817-34.265-47.817-76.532
				c0-42.269,7.27-76.534,47.817-76.534C520.691,403.896,529.65,438.162,529.65,480.43z"/>
			
				<ellipse transform="matrix(-0.2311 -0.9729 0.9729 -0.2311 61.1273 1021.3845)" fill="#FFFFFF" cx="434.163" cy="486.538" rx="13.249" ry="5.54"/>
			
				<ellipse transform="matrix(-0.2311 0.9729 -0.9729 -0.2311 1123.9724 82.428)" fill="#FFFFFF" cx="529.416" cy="485.335" rx="13.248" ry="5.54"/>
		</g>
		<path fill="#F1F1F1" d="M478.58,393.532c0,0-52.984,2.189-51.355,60.721l6.984,33.093c0,0,1.594-29.525,2.671-34.126
			c1.077-4.602,11.575-23.863,22.048-27.085c10.473-3.223,36.051-3.223,48.942-13.091c0,0-7.251,10.674-16.718,13.292
			c0,0,17.725,1.813,23.565-3.625c0,0,3.223,7.653,4.632,15.709c1.41,8.057,11.521,35.505,10.483,48.926
			c-1.039,13.42,0.795-15.292,5.428-27.376C539.892,447.885,532.038,392.701,478.58,393.532z"/>
		<g>
			<path fill="#F1F1F1" d="M473.733,458.962c0,0-14.299-5.64-20.342-5.035c-6.042,0.604-10.07,8.459-10.07,8.459
				S457.823,452.92,473.733,458.962z"/>
			<path fill="#F1F1F1" d="M489.845,458.962c0,0,14.3-5.64,20.342-5.035c6.043,0.604,10.071,8.459,10.071,8.459
				S505.756,452.92,489.845,458.962z"/>
			<g>
				<path fill="#8038EB" d="M473.021,495.573c0,0-4.146,7.239-2.723,8.167c1.423,0.928,3.342,0.124,5.259,0.496
					c1.918,0.371,3.446,4.33,6.292,4.393c2.997,0.064,4.958-4.702,6.886-4.702c1.609,0,7.548,0.742,7.363-1.176
					c-0.187-1.918-4.393-7.796-4.393-7.796l5.939,6.497c0,0,1.731,4.33-1.671,4.393c-2.413,0.044-4.338-0.289-6.559,0.31
					c-2.07,0.558-5.073,4.777-7.567,4.771c-2.235-0.007-5.363-3.843-6.725-4.647s-3.891-0.591-5.475-0.619
					c-3.496-0.062-1.863-3.751-1.021-4.887C469.627,499.423,473.021,495.573,473.021,495.573z"/>
				<g>
					<path fill="#8038EB" d="M458.112,467.019c-0.683,0.8-1.095,1.837-1.095,2.971c0,2.531,2.051,4.582,4.582,4.582
						c2.531,0,4.583-2.051,4.583-4.582c0-1.134-0.413-2.17-1.095-2.971H458.112z"/>
				</g>
				<g>
					<path fill="#8038EB" d="M500.205,467.019c-0.682,0.8-1.095,1.837-1.095,2.971c0,2.531,2.052,4.582,4.582,4.582
						s4.582-2.051,4.582-4.582c0-1.134-0.412-2.17-1.096-2.971H500.205z"/>
				</g>
				<path fill="#8038EB" d="M463.821,520.39c0,0,8.443,5.202,16.886,5.127c8.444-0.075,20.429-5.127,20.429-5.127H463.821z"/>
				<path fill="#8038EB" d="M450.768,470.411c0,0,4.546-3.119,9.83-3.286c5.285-0.167,12.844,2.888,12.844,2.888
					s-7.316-5.115-12.925-4.591C454.908,465.946,450.768,470.411,450.768,470.411z"/>
				<path fill="#8038EB" d="M515.048,470.411c0,0-4.547-3.119-9.831-3.286s-12.844,2.888-12.844,2.888s7.315-5.115,12.925-4.591
					C510.908,465.946,515.048,470.411,515.048,470.411z"/>
			</g>
		</g>
	</g>
	<g id="beard">
		<path fill="#F1F1F1" d="M529.864,483.331c0,0-6.475,30.011-18.56,41.491c0,0-3.223-12.487-27.19-12.487
			c-23.966,0-34.439,8.459-34.439,12.89s-15.253-22.177-15.985-40.393c0,0-1.388,26.093,1.257,35.357
			c2.826,9.898,11.682,12.89,14.702,23.564c3.021,10.675,6.068,24.974,29.229,24.974c31.821,0,32.401-19.334,34.616-24.772
			c2.216-5.438,12.512-15.911,13.922-23.766C528.826,512.334,531.187,493.104,529.864,483.331z M494.789,541.941
			c-3.65,2.014-8.655-12.891-12.988-12.891c-4.332,0-9.166,13.062-12.791,13.078c-3.625,0.014-13.695-10.479-9.869-17.106
			c0,0,3.827-4.027,9.063-3.826c5.236,0.201,7.854,2.216,10.876,2.216c3.021,0,8.66-2.44,13.897-2.227
			c5.236,0.212,9.868,2.629,10.069,6.054C503.249,530.662,498.44,539.926,494.789,541.941z"/>
	</g>
</g>
</svg>
