<?xml version="1.0" encoding="utf-8"?>
<!-- Generator: Adobe Illustrator 16.0.0, SVG Export Plug-In . SVG Version: 6.00 Build 0)  -->
<!DOCTYPE svg PUBLIC "-//W3C//DTD SVG 1.1//EN" "http://www.w3.org/Graphics/SVG/1.1/DTD/svg11.dtd">
<svg version="1.1" id="Layer_1" xmlns="http://www.w3.org/2000/svg" xmlns:xlink="http://www.w3.org/1999/xlink" x="0px" y="0px"
	 width="331.067px" height="331.096px" viewBox="0 0 331.067 331.096" enable-background="new 0 0 331.067 331.096"
	 xml:space="preserve">
<path fill="#24FFC3" d="M165.586,330.944L165.586,330.944c91.308,0,165.325-74.019,165.325-165.324v-0.112
	c0-91.307-74.018-165.325-165.325-165.325C74.281,0.183,0.262,74.201,0.262,165.508v0.112
	C0.262,256.926,74.281,330.944,165.586,330.944"/>
<g>
	<defs>
		<rect id="SVGID_1_" x="0.261" y="0.183" width="165.33" height="330.762"/>
	</defs>
	<clipPath id="SVGID_2_">
		<use xlink:href="#SVGID_1_"  overflow="visible"/>
	</clipPath>
	<path clip-path="url(#SVGID_2_)" fill="#18D198" d="M165.587,0.183L165.587,0.183v330.762
		c-91.308,0-165.325-74.019-165.325-165.325v-0.112C0.262,74.2,74.28,0.183,165.587,0.183"/>
</g>
<path fill="#F1F1F2" d="M69.301,166.109c27.477,53.12,86.375,72.025,86.375,72.025l-26.241-56.253
	c17.383-9.088,25.892-23.455,25.533-43.081c-0.365-12.729-4.824-23.548-13.369-32.448c-8.551-8.91-19.189-13.36-31.92-13.36
	c-13.095,0-24.102,4.723-33.011,14.187c-8.919,9.455-13.369,20.735-13.369,33.831C63.299,149.373,69.301,166.109,69.301,166.109"/>
<path fill="#F1F1F2" d="M181.5,166.109c27.477,53.12,86.375,72.025,86.375,72.025l-26.242-56.253
	c17.384-9.088,25.893-23.455,25.534-43.081c-0.366-12.729-4.825-23.548-13.368-32.448c-8.552-8.91-19.19-13.36-31.921-13.36
	c-13.095,0-24.102,4.723-33.011,14.187c-8.919,9.455-13.369,20.735-13.369,33.831C175.498,149.373,181.5,166.109,181.5,166.109"/>
</svg>
