<?xml version="1.0" encoding="utf-8"?>
<!-- Generator: Adobe Illustrator 16.0.0, SVG Export Plug-In . SVG Version: 6.00 Build 0)  -->
<!DOCTYPE svg PUBLIC "-//W3C//DTD SVG 1.1//EN" "http://www.w3.org/Graphics/SVG/1.1/DTD/svg11.dtd">
<svg version="1.1" id="Layer_1" xmlns="http://www.w3.org/2000/svg" xmlns:xlink="http://www.w3.org/1999/xlink" x="0px" y="0px"
	 width="155px" height="155px" viewBox="0 0 155 155" enable-background="new 0 0 155 155" xml:space="preserve">
<g>
	<path d="M31.079,130.001l0.771,0.722l-1.736,1.854l-0.831-0.778l-1.669,1.782l-2.456-2.301l1.669-1.782l-1.276-1.195l1.737-1.854
		l1.276,1.195l1.376-1.469c0.665-0.71,0.178-1.325-0.183-1.663c-0.265-0.248-0.456-0.382-0.456-0.382l1.883-2.011
		c0,0,0.431,0.312,0.984,0.832c1.156,1.083,2.622,3.088,0.626,5.219L31.079,130.001z"/>
	<path d="M21.262,124.02c-1.771-2.11-1.848-4.844,0.274-6.626c2.11-1.771,4.765-1.2,6.525,0.897c1.771,2.11,1.874,4.824-0.236,6.595
		C25.703,126.667,23.022,126.117,21.262,124.02z M26.002,120.02c-0.52-0.619-1.413-0.708-2.26,0.002
		c-0.859,0.721-0.951,1.638-0.431,2.257c0.53,0.632,1.449,0.701,2.308-0.021C26.466,121.547,26.532,120.651,26.002,120.02z"/>
	<path d="M17.088,118.775l-1.616-2.84l0.574-0.326c0.244-0.139,0.518-0.257,0.518-0.257l-0.016-0.029
		c-0.696-0.021-1.828-0.308-2.489-1.47c-0.547-0.961-0.631-1.977,0.009-2.854l-0.024-0.043c-0.778-0.032-1.895-0.46-2.572-1.65
		c-0.792-1.391-0.709-2.881,1.284-4.016l4.862-2.768l1.707,2.998l-4.246,2.417c-0.474,0.269-0.689,0.524-0.477,0.897
		c0.286,0.502,0.808,0.585,1.397,0.42c0.27-0.059,0.565-0.208,0.809-0.346l3.356-1.911l1.763,3.098l-4.246,2.417
		c-0.473,0.27-0.689,0.525-0.477,0.898c0.294,0.516,0.83,0.591,1.42,0.426c0.262-0.073,0.543-0.214,0.787-0.353l3.356-1.91
		l1.706,2.998L17.088,118.775z"/>
	<path d="M9.298,104.565l-0.967-3.121l0.63-0.195c0.268-0.083,0.562-0.139,0.562-0.139l-0.01-0.032
		c-0.675-0.171-1.718-0.694-2.113-1.971c-0.327-1.056-0.191-2.065,0.623-2.784l-0.015-0.047c-0.752-0.199-1.751-0.856-2.156-2.165
		c-0.474-1.529-0.072-2.966,2.119-3.645l5.343-1.655l1.021,3.294l-4.666,1.445c-0.521,0.161-0.786,0.364-0.659,0.774
		c0.171,0.551,0.663,0.745,1.274,0.711c0.277,0,0.597-0.082,0.865-0.165l3.688-1.143l1.055,3.405l-4.666,1.445
		c-0.521,0.161-0.786,0.364-0.659,0.774c0.176,0.567,0.683,0.756,1.295,0.722c0.271-0.015,0.576-0.092,0.844-0.175l3.688-1.143
		l1.021,3.294L9.298,104.565z"/>
	<path d="M13.932,87.828c0,0,0.28-0.535,0.217-1.026c-0.057-0.441-0.247-0.883-1.058-1.111l-7.937,4.613l-0.474-3.68l3.435-1.473
		c0.537-0.219,1.418-0.482,1.418-0.482l-0.008-0.065c0,0-0.951-0.027-1.473-0.076l-3.688-0.357l-0.459-3.566l9.581,2.092
		c2.125,0.491,3.078,1.948,3.276,3.486c0.166,1.292-0.343,2.372-0.343,2.372L13.932,87.828z"/>
	<path d="M12.496,69.752l2.623,0.043l-0.167,9.996l-2.623-0.044L12.496,69.752z"/>
	<path d="M0.953,67.146l0.571-3.4l3.237,0.544c0.423,0.071,0.71,0.152,0.71,0.152l0.005-0.032c0,0-0.777-0.85-0.539-2.265
		c0.374-2.228,2.401-3.343,4.987-2.909c2.667,0.448,4.129,2.299,3.755,4.527c-0.251,1.497-1.342,2.016-1.342,2.016l-0.005,0.032
		c0,0,0.214,0.02,0.475,0.063l0.309,0.052l-0.533,3.172L0.953,67.146z M10.9,64.184c0.117-0.7-0.395-1.337-1.484-1.521
		c-1.057-0.177-1.833,0.161-1.961,0.925c-0.109,0.651,0.334,1.294,1.538,1.496C9.887,65.235,10.76,65.014,10.9,64.184z"/>
	<path d="M6.184,57.139l0.931-3.133l1.187,0.352c0.269,0.08,0.556,0.217,0.556,0.217l0.014-0.047
		c-0.908-0.597-1.527-1.814-1.199-2.922c0.057-0.189,0.135-0.338,0.135-0.338l3.181,0.944c0,0-0.118,0.224-0.212,0.54
		c-0.216,0.728-0.173,1.567,0.556,2.128c0.248,0.211,0.55,0.353,0.93,0.465l3.054,0.907l-0.982,3.307L6.184,57.139z"/>
	<path d="M9.898,45.861c1.098-2.528,3.512-3.818,6.055-2.713c2.528,1.098,3.202,3.73,2.11,6.243
		c-1.098,2.528-3.482,3.831-6.01,2.733C9.51,51.019,8.806,48.374,9.898,45.861z M15.596,48.318c0.322-0.742,0.003-1.582-1.011-2.022
		c-1.029-0.447-1.891-0.12-2.213,0.622c-0.329,0.757,0.02,1.61,1.049,2.058C14.435,49.416,15.267,49.075,15.596,48.318z"/>
	<path d="M12.262,40.683l1.828-2.807l4.321,1.83c0.441,0.169,0.86,0.462,0.86,0.462l0.036-0.055c0,0-0.419-0.293-0.744-0.642
		l-3.358-3.309l1.63-2.502l4.384,1.733c0.45,0.155,0.879,0.434,0.879,0.434l0.036-0.055c0,0-0.428-0.279-0.761-0.614l-3.43-3.198
		l1.819-2.793l5.868,6.558l-1.98,3.042l-3.373-1.291c-0.441-0.169-0.911-0.416-0.911-0.416l-0.027,0.042c0,0,0.415,0.33,0.739,0.679
		l2.544,2.562l-1.99,3.055L12.262,40.683z"/>
	<path d="M20.803,28.177l2.217-2.399l0.424,0.392c0.206,0.19,0.401,0.416,0.401,0.416l0.022-0.024
		c-0.19-0.67-0.198-1.779,0.776-2.833c1.131-1.224,2.585-1.655,4.293-0.075l4.107,3.796l-2.341,2.532L27.13,26.68
		c-0.46-0.426-0.788-0.437-1.102-0.097c-0.616,0.667-0.22,1.526,0.325,2.031l3.029,2.8l-2.341,2.532L20.803,28.177z"/>
	<path d="M32.234,14.622c2.919-2.239,5.246-1.673,6.661,0.172l1.847,2.409l0.93-0.713l1.486,1.938l-4.071,3.123
		c-1.912,1.466-3.782,0.925-4.746-0.332c-0.924-1.204-0.994-3.084,0.931-4.561l0.576-0.441c-0.351-0.458-1.235-0.093-1.876,0.399
		c-1.741,1.335-1.765,3.745-0.57,5.303c1.275,1.663,3.402,2.484,6.003,0.427l1.526,1.99c-3.92,3.131-7.783,2.621-10.112-0.416
		C28.55,20.96,29.014,17.091,32.234,14.622z M37.917,19.619l0.406-0.311l-1.155-1.506l-0.38,0.292
		c-0.55,0.421-0.541,0.976-0.239,1.369C36.871,19.881,37.394,20.021,37.917,19.619z"/>
	<path d="M40.259,11.173l2.946-1.411l0.285,0.595c0.121,0.253,0.22,0.535,0.22,0.535l0.03-0.014c0.071-0.692,0.436-1.8,1.641-2.377
		c0.997-0.478,2.015-0.49,2.845,0.21l0.044-0.021c0.087-0.773,0.592-1.857,1.827-2.448C51.54,5.55,53.02,5.737,54.01,7.805
		l2.416,5.043l-3.109,1.489l-2.109-4.403c-0.235-0.491-0.475-0.724-0.861-0.539c-0.521,0.25-0.64,0.764-0.518,1.363
		c0.04,0.274,0.167,0.579,0.289,0.832l1.667,3.481l-3.214,1.539l-2.109-4.404c-0.235-0.491-0.475-0.724-0.862-0.539
		c-0.536,0.257-0.648,0.786-0.525,1.386c0.054,0.267,0.175,0.556,0.296,0.809l1.667,3.481l-3.109,1.489L40.259,11.173z"/>
	<path d="M58.772,3.384c2.605-0.729,4.378,0.591,4.973,2.72c0.102,0.365,0.221,1.035,0.221,1.035L59.01,8.523
		c0.38,0.87,1.165,1.044,2.055,0.795c1.287-0.359,2-1.364,2-1.364l1.687,1.807c0,0-0.949,1.447-3.268,2.095
		c-3.272,0.915-5.356-0.78-5.964-2.957C54.853,6.517,55.96,4.169,58.772,3.384z M60.577,6.287c-0.202-0.663-0.715-0.965-1.239-0.818
		c-0.604,0.168-0.833,0.695-0.746,1.373L60.577,6.287z"/>
	<path d="M64.986,7.625l3.136-0.556l0.542,3.055l-3.136,0.557L64.986,7.625z"/>
	<path d="M73.261,0.872c2.483-0.205,3.69,0.971,3.69,0.971l-1.244,2.388c-0.212-0.165-0.903-0.704-1.923-0.62
		c-1.201,0.099-1.662,0.932-1.593,1.771c0.072,0.872,0.717,1.663,1.918,1.564c1.003-0.083,1.833-0.863,2.031-1.079l1.428,2.25
		c0,0-1.01,1.408-3.543,1.617c-3.29,0.272-5.113-1.747-5.301-4.034C68.54,3.465,69.971,1.144,73.261,0.872z"/>
	<path d="M82.464,0.766c2.752,0.132,4.812,1.933,4.68,4.702c-0.133,2.752-2.355,4.313-5.091,4.182
		c-2.752-0.133-4.814-1.9-4.682-4.652C77.505,2.228,79.729,0.634,82.464,0.766z M82.183,6.962c0.808,0.039,1.48-0.556,1.534-1.66
		c0.054-1.121-0.557-1.811-1.365-1.85c-0.824-0.04-1.499,0.588-1.552,1.709C80.746,6.266,81.358,6.923,82.183,6.962z"/>
	<path d="M89.125,1.263l3.181,0.74l-0.149,0.643c-0.063,0.273-0.163,0.555-0.163,0.555l0.032,0.007
		c0.488-0.496,1.466-1.132,2.768-0.83c1.076,0.25,1.879,0.877,2.088,1.942l0.048,0.011c0.551-0.549,1.623-1.079,2.957-0.769
		c1.559,0.363,2.597,1.434,2.077,3.667l-1.267,5.447l-3.358-0.781l1.107-4.756c0.123-0.53,0.082-0.862-0.336-0.959
		c-0.562-0.131-0.977,0.196-1.256,0.741c-0.14,0.238-0.231,0.556-0.294,0.829l-0.875,3.76l-3.471-0.807l1.107-4.756
		c0.123-0.53,0.082-0.861-0.336-0.958c-0.579-0.135-0.997,0.208-1.276,0.753c-0.124,0.242-0.211,0.544-0.274,0.817l-0.875,3.76
		L87.2,9.538L89.125,1.263z"/>
	<path fill="#24FFC3" d="M108.911,11.149c0.85-1.623,2.833-2.242,4.456-1.392c1.623,0.851,2.242,2.833,1.392,4.456
		c-0.851,1.623-2.833,2.242-4.456,1.392C108.68,14.755,108.06,12.772,108.911,11.149z"/>
	<path fill="#8038EB" d="M120.322,25.098c0.719,0.605,1.584,0.858,2.221,0.102l0.234-0.278c0.063-0.076,0.214-0.229,0.214-0.229
		l-0.025-0.021c-0.723,0.167-1.356,0.023-2.088-0.593c-1.905-1.604-1.479-4.005-0.099-5.645c1.402-1.666,3.657-2.398,5.524-0.827
		c1.187,0.999,1.126,2.069,1.126,2.069l0.038,0.032c0,0,0.041-0.074,0.115-0.162l0.297-0.353l2.474,2.082l-4.864,5.779
		c-1.997,2.373-4.643,1.956-6.674,0.247c-1.211-1.02-1.961-2.383-2.151-2.824l2.289-1.285
		C118.953,23.191,119.363,24.291,120.322,25.098z M125.186,22.163c0.807-0.959,0.548-1.522,0.068-1.926
		c-0.593-0.499-1.251-0.255-1.782,0.376c-0.573,0.681-0.786,1.472-0.143,2.014C123.758,22.988,124.389,23.109,125.186,22.163z"/>
	<path fill="#8038EB" d="M131.518,22.547l2.395,2.481l-6.114,5.901l-2.395-2.481L131.518,22.547z M134.117,20.084l2.349,2.434
		l-1.805,1.742l-2.349-2.434L134.117,20.084z"/>
	<path fill="#8038EB" d="M133.235,28.287l-0.669-0.816l1.965-1.61l0.721,0.88l1.888-1.547l2.132,2.602l-1.888,1.547l1.108,1.352
		l-1.965,1.61l-1.108-1.352l-1.556,1.275c-0.752,0.617-0.351,1.29-0.037,1.672c0.23,0.28,0.402,0.438,0.402,0.438l-2.13,1.746
		c0,0-0.386-0.366-0.866-0.953c-1.003-1.225-2.193-3.405,0.064-5.255L133.235,28.287z"/>
	<path fill="#8038EB" d="M142.429,30.103l1.817,2.853l-3.104,1.977c-0.306,0.195-0.588,0.336-0.588,0.336l0.018,0.028
		c0.783-0.03,1.758,0.425,2.405,1.441c0.895,1.405,0.941,2.921-1.021,4.171l-4.718,3.005l-1.853-2.909l4.105-2.615
		c0.529-0.337,0.623-0.65,0.374-1.04c-0.319-0.501-0.815-0.635-1.344-0.513c-0.276,0.058-0.544,0.19-0.794,0.35l-3.396,2.163
		l-1.853-2.909L142.429,30.103z"/>
	<path fill="#8038EB" d="M145.271,40.948l1.419,3.145l-4.438,2.003c-0.572,0.258-0.709,0.556-0.519,0.977
		c0.36,0.797,1.322,0.762,2.104,0.409l3.641-1.644l1.419,3.145l-7.748,3.497l-1.345-2.979l0.527-0.238
		c0.256-0.115,0.54-0.208,0.54-0.208l-0.014-0.03c-0.825-0.062-1.784-0.662-2.293-1.791c-0.686-1.52-0.515-3.027,1.606-3.985
		L145.271,40.948z"/>
	<path fill="#8038EB" d="M152.76,49.946l0.947,3.317l-3.158,0.902c-0.413,0.118-0.708,0.167-0.708,0.167l0.009,0.032
		c0,0,1.068,0.433,1.462,1.814c0.621,2.174-0.73,4.053-3.253,4.773c-2.603,0.744-4.72-0.3-5.341-2.474
		c-0.417-1.46,0.345-2.398,0.345-2.398l-0.009-0.032c0,0-0.202,0.075-0.456,0.147l-0.302,0.086l-0.884-3.095L152.76,49.946z
		 M145.049,56.902c0.195,0.682,0.932,1.038,1.995,0.735c1.032-0.295,1.587-0.934,1.374-1.68c-0.181-0.635-0.859-1.025-2.033-0.689
		C145.512,55.517,144.818,56.093,145.049,56.902z"/>
	<path fill="#8038EB" d="M146.962,62.061l0.554,3.137l-3.055,0.539l-0.554-3.136L146.962,62.061z"/>
	<path fill="#8038EB" d="M153.7,70.353c0.2,2.483-0.978,3.688-0.978,3.688l-2.385-1.248c0.165-0.212,0.706-0.901,0.623-1.921
		c-0.097-1.201-0.929-1.664-1.768-1.596c-0.872,0.07-1.664,0.713-1.567,1.915c0.081,1.003,0.86,1.834,1.074,2.032l-2.252,1.423
		c0,0-1.406-1.012-1.611-3.545c-0.265-3.29,1.757-5.108,4.043-5.293C151.116,65.627,153.434,67.062,153.7,70.353z"/>
	<path fill="#8038EB" d="M153.793,79.558c-0.137,2.752-1.942,4.81-4.71,4.671c-2.752-0.138-4.31-2.363-4.173-5.099
		c0.138-2.752,1.909-4.811,4.662-4.673C152.34,74.595,153.93,76.822,153.793,79.558z M147.596,79.264
		c-0.041,0.808,0.554,1.481,1.658,1.537c1.121,0.056,1.812-0.554,1.852-1.361c0.042-0.824-0.585-1.5-1.706-1.556
		C148.295,77.829,147.637,78.44,147.596,79.264z"/>
	<path fill="#8038EB" d="M153.287,86.241l-0.746,3.181l-0.643-0.151c-0.273-0.064-0.555-0.164-0.555-0.164l-0.007,0.032
		c0.495,0.489,1.13,1.469,0.825,2.771c-0.252,1.076-0.881,1.878-1.947,2.086l-0.012,0.048c0.549,0.553,1.077,1.626,0.764,2.959
		c-0.365,1.559-1.439,2.595-3.672,2.071l-5.447-1.277l0.788-3.358l4.756,1.116c0.53,0.125,0.862,0.083,0.96-0.334
		c0.132-0.562-0.194-0.978-0.739-1.258c-0.238-0.141-0.556-0.232-0.829-0.296l-3.76-0.882l0.814-3.471l4.756,1.116
		c0.53,0.125,0.862,0.083,0.96-0.334c0.136-0.579-0.207-0.998-0.751-1.278c-0.242-0.125-0.544-0.212-0.817-0.276l-3.76-0.882
		l0.788-3.358L153.287,86.241z"/>
	<path fill="#8038EB" d="M151.327,106.547l-1.086,2.622l-10.456-8.906l1.086-2.622L151.327,106.547z"/>
	<path fill="#8038EB" d="M144.836,111.722l1.755-3.045l2.631,1.516l-5.282,9.165l-2.631-1.516l1.755-3.045l-7.592-4.375l1.771-3.074
		L144.836,111.722z"/>
	<path fill="#8038EB" d="M138.738,121.011c-1.662,2.199-4.312,2.886-6.523,1.215c-2.199-1.662-2.236-4.378-0.584-6.564
		c1.662-2.199,4.285-2.906,6.484-1.245C140.326,116.088,140.389,118.825,138.738,121.011z M133.776,117.284
		c-0.487,0.645-0.375,1.537,0.507,2.203c0.896,0.677,1.81,0.561,2.297-0.084c0.498-0.659,0.359-1.57-0.537-2.247
		C135.162,116.49,134.274,116.625,133.776,117.284z"/>
	<path fill="#8038EB" d="M134.562,126.232l-2.405,2.211l-0.447-0.486c-0.19-0.207-0.367-0.447-0.367-0.447l-0.024,0.022
		c0.135,0.683,0.109,1.85-0.875,2.755c-0.814,0.748-1.785,1.058-2.783,0.631l-0.036,0.033c0.143,0.765-0.023,1.949-1.032,2.876
		c-1.178,1.083-2.648,1.337-4.201-0.351l-3.787-4.118l2.539-2.334l3.306,3.595c0.369,0.401,0.666,0.554,0.981,0.263
		c0.425-0.391,0.389-0.918,0.096-1.456c-0.118-0.25-0.329-0.504-0.519-0.71l-2.614-2.842l2.624-2.413l3.306,3.595
		c0.369,0.401,0.666,0.554,0.981,0.263c0.438-0.402,0.39-0.941,0.097-1.479c-0.13-0.239-0.33-0.481-0.52-0.688l-2.614-2.842
		l2.539-2.334L134.562,126.232z"/>
	<path fill="#8038EB" d="M122.474,137.001l-2.822,1.646l-0.333-0.57c-0.142-0.242-0.263-0.516-0.263-0.516l-0.028,0.017
		c-0.014,0.696-0.289,1.831-1.443,2.504c-0.955,0.557-1.969,0.652-2.853,0.022l-0.042,0.025c-0.024,0.778-0.439,1.899-1.622,2.589
		c-1.383,0.807-2.873,0.74-4.029-1.241l-2.819-4.831l2.979-1.738l2.461,4.219c0.274,0.47,0.532,0.683,0.903,0.466
		c0.499-0.291,0.576-0.813,0.405-1.401c-0.062-0.27-0.214-0.563-0.355-0.805l-1.946-3.335l3.079-1.796l2.461,4.219
		c0.274,0.47,0.532,0.683,0.903,0.466c0.513-0.299,0.582-0.836,0.411-1.424c-0.076-0.261-0.22-0.541-0.361-0.783l-1.946-3.335
		l2.979-1.738L122.474,137.001z"/>
	<path fill="#8038EB" d="M105.146,136.262c0,0-0.584-0.152-1.048,0.021c-0.417,0.155-0.804,0.44-0.843,1.281l6.29,6.687
		l-3.478,1.294l-2.212-3.013c-0.335-0.474-0.79-1.272-0.79-1.272l-0.062,0.023c0,0,0.189,0.933,0.259,1.453l0.487,3.672l-3.37,1.254
		l-0.13-9.807c-0.002-2.181,1.202-3.439,2.655-3.979c1.221-0.455,2.388-0.203,2.388-0.203L105.146,136.262z"/>
	<path fill="#8038EB" d="M98.913,145.599l-5.479,1.347l-0.701-2.852l5.479-1.346L98.913,145.599z"/>
	<path fill="#8038EB" d="M92.342,152.915l-4.965,0.578c-2.327,0.271-4.072-0.589-4.306-2.605c-0.115-0.983,0.277-2.042,1.152-2.659
		l-0.003-0.033c-1.424-0.25-2.072-1.387-2.192-2.419c-0.297-2.556,1.708-3.736,4.019-4.005l4.933-0.574L92.342,152.915z
		 M86.592,144.333c-0.753,0.088-1.021,0.65-0.954,1.224c0.069,0.59,0.454,1.043,1.191,0.958l1.246-0.145l-0.253-2.18L86.592,144.333
		z M87.212,148.944c-0.59,0.069-0.833,0.545-0.769,1.103c0.063,0.541,0.402,0.883,1.041,0.809l1.098-0.127l-0.223-1.917
		L87.212,148.944z"/>
	<path fill="#8038EB" d="M81.033,148.409l-5.642-0.094l0.049-2.936l5.642,0.094L81.033,148.409z"/>
	<path fill="#8038EB" d="M66.918,153.265c-3.021-0.438-4.324-2.144-4.324-2.144l1.843-2.483c0,0,0.908,1.215,2.655,1.468
		c2.188,0.317,3.263-0.894,3.483-2.413c0.258-1.78-0.733-3.224-2.513-3.481c-1.094-0.158-2.026,0.29-2.161,0.42l-0.076,0.522
		l1.486,0.215l-0.364,2.514l-4.408-0.638l0.955-6.596l2.809,0.407l-0.073,0.506c-0.026,0.179-0.066,0.34-0.087,0.371l0.065,0.009
		c0.175-0.174,1.234-0.921,3.111-0.649c3.167,0.459,5.42,3.202,4.893,6.843C73.716,151.565,70.804,153.828,66.918,153.265z"/>
	<path fill="#8038EB" d="M59.649,151.906l-3.263-0.895l0.663-2.419l3.263,0.895L59.649,151.906z M60.628,148.461l-3.326-0.912
		l2.248-8.196l3.326,0.912L60.628,148.461z"/>
	<path fill="#8038EB" d="M56.217,144.405l0.992,0.361l-0.869,2.387l-1.07-0.39l-0.835,2.294l-3.163-1.151l0.835-2.294l-1.644-0.599
		l0.87-2.388l1.644,0.599l0.688-1.891c0.333-0.915-0.356-1.289-0.821-1.458c-0.341-0.125-0.569-0.172-0.569-0.172l0.943-2.589
		c0,0,0.519,0.119,1.232,0.378c1.488,0.542,3.625,1.812,2.625,4.556L56.217,144.405z"/>
	<path fill="#24FFC3" d="M44.91,138.483c-0.945,1.568-2.96,2.068-4.529,1.123c-1.568-0.945-2.068-2.96-1.123-4.529
		s2.96-2.068,4.529-1.123C45.355,134.9,45.855,136.915,44.91,138.483z"/>
</g>
</svg>
