<?xml version="1.0" encoding="utf-8"?>
<!-- Generator: Adobe Illustrator 16.0.0, SVG Export Plug-In . SVG Version: 6.00 Build 0)  -->
<!DOCTYPE svg PUBLIC "-//W3C//DTD SVG 1.1//EN" "http://www.w3.org/Graphics/SVG/1.1/DTD/svg11.dtd">
<svg version="1.1" id="Layer_1" xmlns="http://www.w3.org/2000/svg" xmlns:xlink="http://www.w3.org/1999/xlink" x="0px" y="0px"
	 width="108.004px" height="137.558px" viewBox="0 0 108.004 137.558" enable-background="new 0 0 108.004 137.558"
	 xml:space="preserve">
<path fill="#006A6E" d="M-116.357,599.334v26.214c13.042,1.783,23.093,12.962,23.093,26.493c0,13.533-10.051,24.711-23.093,26.494
	v26.172c27.445-1.898,49.119-24.76,49.119-52.686C-67.238,624.094-88.912,601.233-116.357,599.334z"/>
<path fill="#2E3192" d="M-146.445,599.203v-29.446h-26.428v82.284h0.002c0.01,28.031,21.858,50.953,49.454,52.688v-26.162
	c-13.163-1.674-23.341-12.907-23.341-26.525v-26.727h23.341v-0.021v-25.98v-0.109H-146.445z"/>
<g>
	<path fill="#231F20" d="M74.737,37.411c-3.664-1.635-7.907-1.303-11.273,0.879c-3.367,2.183-5.404,5.922-5.404,9.934v0.817
		c0,4.646,2.718,8.866,6.947,10.79c8.667,3.943,14.692,12.675,14.692,22.818c0,12.681-9.418,23.154-21.639,24.826v24.523
		c25.717-1.777,46.025-23.2,46.025-49.368C104.085,62.469,92.032,45.125,74.737,37.411z"/>
	<path fill="#5B55A3" d="M29.866,33.137V5.543H16.949c-6.543,0-11.848,5.305-11.848,11.848v65.256h0.002
		c0.009,26.266,20.482,47.746,46.34,49.371v-24.515c-12.335-1.569-21.871-12.096-21.871-24.855V57.604h10.023
		c6.543,0,11.848-5.305,11.848-11.848v-0.771c0-6.543-5.305-11.848-11.848-11.848H29.866z"/>
</g>
</svg>
